<?xml version="1.0" encoding="UTF-8" standalone="no"?>
<!DOCTYPE svg PUBLIC "-//W3C//DTD SVG 1.1//EN"
 "http://www.w3.org/Graphics/SVG/1.1/DTD/svg11.dtd">
<!-- Generated by graphviz version 2.40.1 (20161225.0304)
 -->
<!-- Title: %3 Pages: 1 -->
<svg width="821pt" height="200pt"
 viewBox="0.00 0.00 820.72 200.23" xmlns="http://www.w3.org/2000/svg" xmlns:xlink="http://www.w3.org/1999/xlink">
<g id="graph0" class="graph" transform="scale(1 1) rotate(0) translate(4 196.2328)">
<title>%3</title>
<polygon fill="#ffffff" stroke="transparent" points="-4,4 -4,-196.2328 816.7193,-196.2328 816.7193,4 -4,4"/>
<!-- A -->
<g id="node1" class="node">
<title>A</title>
<polygon fill="#d3d3d3" stroke="#000000" points="677.3648,-126.8731 654.3545,-126.8731 654.3545,-109.8731 677.3648,-109.8731 677.3648,-126.8731"/>
<text text-anchor="middle" x="665.8597" y="-115.6731" font-family="Times,serif" font-size="9.00" fill="#000000">A</text>
</g>
<!-- LEFT -->
<g id="node17" class="node">
<title>LEFT</title>
<ellipse fill="#add8e6" stroke="#000000" cx="345.8597" cy="-30.7567" rx="26.5303" ry="26.5303"/>
<text text-anchor="middle" x="345.8597" y="-28.0567" font-family="Times,serif" font-size="9.00" fill="#000000">LEFT</text>
</g>
<!-- A&#45;&gt;LEFT -->
<g id="edge1" class="edge">
<title>A&#45;&gt;LEFT</title>
<path fill="none" stroke="#00ff00" stroke-width=".3109" stroke-dasharray="1,5" d="M659.766,-109.796C656.2085,-105.4348 651.3447,-100.449 645.8597,-97.5135 565.4578,-54.4833 532.4331,-83.2112 443.8597,-61.5135 422.5716,-56.2986 399.1348,-49.0014 380.5197,-42.8235"/>
<polygon fill="#00ff00" stroke="#00ff00" stroke-width=".3109" points="381.5848,-39.4891 370.9907,-39.6196 379.3539,-46.1241 381.5848,-39.4891"/>
</g>
<!-- RIGHT -->
<g id="node18" class="node">
<title>RIGHT</title>
<ellipse fill="#add8e6" stroke="#000000" cx="483.8597" cy="-30.7567" rx="30.5154" ry="30.5154"/>
<text text-anchor="middle" x="483.8597" y="-28.0567" font-family="Times,serif" font-size="9.00" fill="#000000">RIGHT</text>
</g>
<!-- A&#45;&gt;RIGHT -->
<g id="edge2" class="edge">
<title>A&#45;&gt;RIGHT</title>
<path fill="none" stroke="#00ff00" stroke-width=".3251" stroke-dasharray="1,5" d="M659.1344,-109.8393C655.5386,-105.7017 650.8332,-100.9062 645.8597,-97.5135 607.6642,-71.4579 557.7163,-52.8094 523.4363,-41.9574"/>
<polygon fill="#00ff00" stroke="#00ff00" stroke-width=".3251" points="524.3566,-38.5786 513.7691,-38.972 522.2911,-45.2669 524.3566,-38.5786"/>
</g>
<!-- B -->
<g id="node2" class="node">
<title>B</title>
<polygon fill="#d3d3d3" stroke="#000000" points="197.8626,-126.8731 175.8567,-126.8731 175.8567,-109.8731 197.8626,-109.8731 197.8626,-126.8731"/>
<text text-anchor="middle" x="186.8597" y="-115.6731" font-family="Times,serif" font-size="9.00" fill="#000000">B</text>
</g>
<!-- B&#45;&gt;LEFT -->
<g id="edge3" class="edge">
<title>B&#45;&gt;LEFT</title>
<path fill="none" stroke="#ff0000" stroke-width=".1345" d="M194.0336,-109.5449C197.5988,-105.5316 202.1471,-100.9285 206.8597,-97.5135 239.5789,-73.8031 282.0359,-54.8455 311.3738,-43.2786"/>
<polygon fill="#ff0000" stroke="#ff0000" stroke-width=".1345" points="312.7197,-46.5108 320.7872,-39.643 310.1977,-39.9809 312.7197,-46.5108"/>
</g>
<!-- B&#45;&gt;RIGHT -->
<g id="edge4" class="edge">
<title>B&#45;&gt;RIGHT</title>
<path fill="none" stroke="#ff0000" stroke-width=".1812" stroke-dasharray="1,5" d="M192.9847,-109.8538C196.5514,-105.5095 201.414,-100.5215 206.8597,-97.5135 276.3672,-59.1197 304.8802,-80.9954 381.8597,-61.5135 402.8342,-56.2052 425.9375,-49.3263 444.8448,-43.4203"/>
<polygon fill="#ff0000" stroke="#ff0000" stroke-width=".1812" points="446.1115,-46.6909 454.5958,-40.3451 444.0061,-40.015 446.1115,-46.6909"/>
</g>
<!-- C -->
<g id="node3" class="node">
<title>C</title>
<polygon fill="#d3d3d3" stroke="#000000" points="237.8626,-126.8731 215.8567,-126.8731 215.8567,-109.8731 237.8626,-109.8731 237.8626,-126.8731"/>
<text text-anchor="middle" x="226.8597" y="-115.6731" font-family="Times,serif" font-size="9.00" fill="#000000">C</text>
</g>
<!-- C&#45;&gt;LEFT -->
<g id="edge5" class="edge">
<title>C&#45;&gt;LEFT</title>
<path fill="none" stroke="#00ff00" stroke-width=".5848" stroke-dasharray="1,5" d="M234.2675,-109.8442C237.884,-105.8964 242.4078,-101.2621 246.8597,-97.5135 268.0363,-79.6819 294.0602,-62.2876 314.111,-49.7271"/>
<polygon fill="#00ff00" stroke="#00ff00" stroke-width=".5848" points="316.2015,-52.5495 322.8644,-44.3119 312.5188,-46.5965 316.2015,-52.5495"/>
</g>
<!-- C&#45;&gt;RIGHT -->
<g id="edge6" class="edge">
<title>C&#45;&gt;RIGHT</title>
<path fill="none" stroke="#ff0000" stroke-width=".2147" d="M233.4069,-109.5592C236.9573,-105.3501 241.6758,-100.5753 246.8597,-97.5135 300.3263,-65.9332 322.1256,-78.4792 381.8597,-61.5135 402.6723,-55.6022 425.7617,-48.6713 444.7016,-42.8868"/>
<polygon fill="#ff0000" stroke="#ff0000" stroke-width=".2147" points="445.9386,-46.1685 454.474,-39.8917 443.8873,-39.4757 445.9386,-46.1685"/>
</g>
<!-- D -->
<g id="node4" class="node">
<title>D</title>
<polygon fill="#d3d3d3" stroke="#000000" points="120.3648,-126.8731 97.3545,-126.8731 97.3545,-109.8731 120.3648,-109.8731 120.3648,-126.8731"/>
<text text-anchor="middle" x="108.8597" y="-115.6731" font-family="Times,serif" font-size="9.00" fill="#000000">D</text>
</g>
<!-- D&#45;&gt;LEFT -->
<g id="edge7" class="edge">
<title>D&#45;&gt;LEFT</title>
<path fill="none" stroke="#ff0000" stroke-width=".1844" stroke-dasharray="1,5" d="M117.4904,-109.7213C122.0423,-105.5535 127.9075,-100.7668 133.8597,-97.5135 191.5373,-65.9883 266.3229,-46.8597 309.9115,-37.5883"/>
<polygon fill="#ff0000" stroke="#ff0000" stroke-width=".1844" points="310.6858,-41.0023 319.7684,-35.5473 309.2664,-34.1477 310.6858,-41.0023"/>
</g>
<!-- E -->
<g id="node5" class="node">
<title>E</title>
<polygon fill="#d3d3d3" stroke="#000000" points="277.8631,-126.8731 255.8562,-126.8731 255.8562,-109.8731 277.8631,-109.8731 277.8631,-126.8731"/>
<text text-anchor="middle" x="266.8597" y="-115.6731" font-family="Times,serif" font-size="9.00" fill="#000000">E</text>
</g>
<!-- E&#45;&gt;LEFT -->
<g id="edge8" class="edge">
<title>E&#45;&gt;LEFT</title>
<path fill="none" stroke="#00ff00" stroke-width=".5447" stroke-dasharray="1,5" d="M274.7233,-109.6518C285.4181,-97.7906 305.0423,-76.0259 320.9741,-58.3565"/>
<polygon fill="#00ff00" stroke="#00ff00" stroke-width=".5447" points="323.8918,-60.3473 327.9889,-50.5767 318.693,-55.6597 323.8918,-60.3473"/>
</g>
<!-- E&#45;&gt;RIGHT -->
<g id="edge9" class="edge">
<title>E&#45;&gt;RIGHT</title>
<path fill="none" stroke="#ff0000" stroke-width=".1052" d="M273.0822,-109.6885C276.4558,-105.5123 280.9382,-100.728 285.8597,-97.5135 299.4765,-88.6193 391.1845,-59.4254 444.8893,-42.7381"/>
<polygon fill="#ff0000" stroke="#ff0000" stroke-width=".1052" points="445.9321,-46.0792 454.4475,-39.7755 443.8596,-39.393 445.9321,-46.0792"/>
</g>
<!-- F -->
<g id="node6" class="node">
<title>F</title>
<polygon fill="#d3d3d3" stroke="#000000" points="316.365,-126.8731 295.3543,-126.8731 295.3543,-109.8731 316.365,-109.8731 316.365,-126.8731"/>
<text text-anchor="middle" x="305.8597" y="-115.6731" font-family="Times,serif" font-size="9.00" fill="#000000">F</text>
</g>
<!-- F&#45;&gt;LEFT -->
<g id="edge10" class="edge">
<title>F&#45;&gt;LEFT</title>
<path fill="none" stroke="#00ff00" stroke-width=".6019" stroke-dasharray="1,5" d="M309.8412,-109.6518C314.6647,-99.0864 323.0756,-80.6632 330.5569,-64.276"/>
<polygon fill="#00ff00" stroke="#00ff00" stroke-width=".6019" points="333.8511,-65.4879 334.8203,-54.9375 327.4833,-62.5807 333.8511,-65.4879"/>
</g>
<!-- F&#45;&gt;RIGHT -->
<g id="edge11" class="edge">
<title>F&#45;&gt;RIGHT</title>
<path fill="none" stroke="#00ff00" stroke-width=".3989" stroke-dasharray="1,5" d="M312.5978,-109.858C316.1968,-105.7251 320.9012,-100.9283 325.8597,-97.5135 362.7545,-72.1042 410.849,-53.5053 444.2394,-42.4871"/>
<polygon fill="#00ff00" stroke="#00ff00" stroke-width=".3989" points="445.6551,-45.7083 454.1012,-39.3119 443.5097,-39.0451 445.6551,-45.7083"/>
</g>
<!-- G -->
<g id="node7" class="node">
<title>G</title>
<polygon fill="#d3d3d3" stroke="#000000" points="357.3648,-126.8731 334.3545,-126.8731 334.3545,-109.8731 357.3648,-109.8731 357.3648,-126.8731"/>
<text text-anchor="middle" x="345.8597" y="-115.6731" font-family="Times,serif" font-size="9.00" fill="#000000">G</text>
</g>
<!-- G&#45;&gt;LEFT -->
<g id="edge12" class="edge">
<title>G&#45;&gt;LEFT</title>
<path fill="none" stroke="#00ff00" stroke-width=".1879" stroke-dasharray="1,5" d="M345.8597,-109.6518C345.8597,-99.875 345.8597,-83.3696 345.8597,-67.9752"/>
<polygon fill="#00ff00" stroke="#00ff00" stroke-width=".1879" points="349.3597,-67.5914 345.8597,-57.5915 342.3597,-67.5915 349.3597,-67.5914"/>
</g>
<!-- G&#45;&gt;RIGHT -->
<g id="edge13" class="edge">
<title>G&#45;&gt;RIGHT</title>
<path fill="none" stroke="#00ff00" stroke-width=".7426" d="M353.5751,-109.7188C357.3586,-105.7435 362.1152,-101.1223 366.8597,-97.5135 391.8368,-78.515 422.7756,-61.0917 446.5637,-48.8122"/>
<polygon fill="#00ff00" stroke="#00ff00" stroke-width=".7426" points="448.3012,-51.8552 455.6282,-44.2023 445.128,-45.6157 448.3012,-51.8552"/>
</g>
<!-- H -->
<g id="node8" class="node">
<title>H</title>
<polygon fill="#d3d3d3" stroke="#000000" points="754.3648,-192.2328 731.3545,-192.2328 731.3545,-175.2328 754.3648,-175.2328 754.3648,-192.2328"/>
<text text-anchor="middle" x="742.8597" y="-181.0328" font-family="Times,serif" font-size="9.00" fill="#000000">H</text>
</g>
<!-- H&#45;&gt;LEFT -->
<g id="edge14" class="edge">
<title>H&#45;&gt;LEFT</title>
<path fill="none" stroke="#00ff00" stroke-width=".3976" d="M731.2706,-183.2803C651.5389,-180.1132 186.7892,-160.7614 166.8597,-139.2328 119.2937,-87.8503 244.7476,-52.361 309.7059,-37.9505"/>
<polygon fill="#00ff00" stroke="#00ff00" stroke-width=".3976" points="310.54,-41.3512 319.5761,-35.8195 309.0626,-34.5088 310.54,-41.3512"/>
</g>
<!-- H&#45;&gt;RIGHT -->
<g id="edge15" class="edge">
<title>H&#45;&gt;RIGHT</title>
<path fill="none" stroke="#00ff00" stroke-width=".4065" d="M743.0607,-175.0386C742.9678,-157.7762 740.2272,-118.9944 718.8597,-97.5135 691.6305,-70.1398 584.2665,-47.9363 524.5251,-37.3949"/>
<polygon fill="#00ff00" stroke="#00ff00" stroke-width=".4065" points="524.7578,-33.8831 514.3069,-35.6236 523.5621,-40.7802 524.7578,-33.8831"/>
</g>
<!-- 196 -->
<g id="node19" class="node">
<title>196</title>
<ellipse fill="#ffffff" stroke="#000000" cx="791.8597" cy="-118.3731" rx="20.7202" ry="20.7202"/>
<text text-anchor="middle" x="791.8597" y="-115.6731" font-family="Times,serif" font-size="9.00" fill="#000000">196</text>
</g>
<!-- H&#45;&gt;196 -->
<g id="edge32" class="edge">
<title>H&#45;&gt;196</title>
<path fill="none" stroke="#ff0000" stroke-width=".2384" d="M749.2655,-175.1881C755.3018,-167.1365 764.6489,-154.6687 773.0508,-143.4617"/>
<polygon fill="#ff0000" stroke="#ff0000" stroke-width=".2384" points="776.0229,-145.332 779.221,-135.2314 770.4221,-141.1331 776.0229,-145.332"/>
</g>
<!-- I -->
<g id="node9" class="node">
<title>I</title>
<polygon fill="#d3d3d3" stroke="#000000" points="394.3567,-126.8731 375.3626,-126.8731 375.3626,-109.8731 394.3567,-109.8731 394.3567,-126.8731"/>
<text text-anchor="middle" x="384.8597" y="-115.6731" font-family="Times,serif" font-size="9.00" fill="#000000">I</text>
</g>
<!-- I&#45;&gt;LEFT -->
<g id="edge16" class="edge">
<title>I&#45;&gt;LEFT</title>
<path fill="none" stroke="#00ff00" stroke-width=".6731" stroke-dasharray="1,5" d="M380.9776,-109.6518C376.3069,-99.1587 368.1863,-80.9152 360.9298,-64.613"/>
<polygon fill="#00ff00" stroke="#00ff00" stroke-width=".6731" points="364.0539,-63.0246 356.7898,-55.3121 357.6589,-65.8712 364.0539,-63.0246"/>
</g>
<!-- I&#45;&gt;RIGHT -->
<g id="edge17" class="edge">
<title>I&#45;&gt;RIGHT</title>
<path fill="none" stroke="#00ff00" stroke-width=".2187" d="M392.3702,-109.5996C395.7649,-105.7748 399.897,-101.3079 403.8597,-97.5135 418.8522,-83.1575 436.4779,-68.2586 451.3638,-56.1879"/>
<polygon fill="#00ff00" stroke="#00ff00" stroke-width=".2187" points="453.7164,-58.7874 459.3177,-49.7943 449.3308,-53.3315 453.7164,-58.7874"/>
</g>
<!-- J -->
<g id="node10" class="node">
<title>J</title>
<polygon fill="#d3d3d3" stroke="#000000" points="79.3683,-192.2328 60.351,-192.2328 60.351,-175.2328 79.3683,-175.2328 79.3683,-192.2328"/>
<text text-anchor="middle" x="69.8597" y="-181.0328" font-family="Times,serif" font-size="9.00" fill="#000000">J</text>
</g>
<!-- J&#45;&gt;LEFT -->
<g id="edge18" class="edge">
<title>J&#45;&gt;LEFT</title>
<path fill="none" stroke="#00ff00" stroke-width=".4974" stroke-dasharray="1,5" d="M69.0496,-175.046C67.9527,-157.7971 68.1219,-119.0381 88.8597,-97.5135 119.2329,-65.9876 245.9956,-44.4958 309.4068,-35.5019"/>
<polygon fill="#00ff00" stroke="#00ff00" stroke-width=".4974" points="309.9573,-38.9591 319.3806,-34.1165 308.9941,-32.0257 309.9573,-38.9591"/>
</g>
<!-- J&#45;&gt;RIGHT -->
<g id="edge19" class="edge">
<title>J&#45;&gt;RIGHT</title>
<path fill="none" stroke="#00ff00" stroke-width=".601" d="M79.6617,-183.4015C156.84,-180.7471 664.2685,-162.44 685.8597,-139.2328 738.063,-83.1221 597.49,-50.0544 524.5782,-37.1068"/>
<polygon fill="#00ff00" stroke="#00ff00" stroke-width=".601" points="524.7919,-33.592 514.3426,-35.3421 523.6026,-40.4903 524.7919,-33.592"/>
</g>
<!-- 383 -->
<g id="node20" class="node">
<title>383</title>
<ellipse fill="#ffffff" stroke="#000000" cx="20.8597" cy="-118.3731" rx="20.7202" ry="20.7202"/>
<text text-anchor="middle" x="20.8597" y="-115.6731" font-family="Times,serif" font-size="9.00" fill="#000000">383</text>
</g>
<!-- J&#45;&gt;383 -->
<g id="edge34" class="edge">
<title>J&#45;&gt;383</title>
<path fill="none" stroke="#00ff00" stroke-width=".2529" d="M63.4538,-175.1881C57.4175,-167.1365 48.0704,-154.6687 39.6685,-143.4617"/>
<polygon fill="#00ff00" stroke="#00ff00" stroke-width=".2529" points="42.2972,-141.1331 33.4983,-135.2314 36.6964,-145.332 42.2972,-141.1331"/>
</g>
<!-- K -->
<g id="node11" class="node">
<title>K</title>
<polygon fill="#d3d3d3" stroke="#000000" points="435.3648,-126.8731 412.3545,-126.8731 412.3545,-109.8731 435.3648,-109.8731 435.3648,-126.8731"/>
<text text-anchor="middle" x="423.8597" y="-115.6731" font-family="Times,serif" font-size="9.00" fill="#000000">K</text>
</g>
<!-- K&#45;&gt;LEFT -->
<g id="edge20" class="edge">
<title>K&#45;&gt;LEFT</title>
<path fill="none" stroke="#00ff00" stroke-width=".5737" d="M416.0955,-109.6518C405.5361,-97.7906 386.1603,-76.0259 370.4302,-58.3565"/>
<polygon fill="#00ff00" stroke="#00ff00" stroke-width=".5737" points="372.7677,-55.7185 363.5042,-50.5767 367.5394,-60.373 372.7677,-55.7185"/>
</g>
<!-- K&#45;&gt;RIGHT -->
<g id="edge21" class="edge">
<title>K&#45;&gt;RIGHT</title>
<path fill="none" stroke="#00ff00" stroke-width=".2511" d="M429.832,-109.6518C437.0006,-99.1838 449.4514,-81.0022 460.5949,-64.7297"/>
<polygon fill="#00ff00" stroke="#00ff00" stroke-width=".2511" points="463.5057,-66.6735 466.2681,-56.4451 457.7301,-62.7184 463.5057,-66.6735"/>
</g>
<!-- L -->
<g id="node12" class="node">
<title>L</title>
<polygon fill="#d3d3d3" stroke="#000000" points="474.8631,-126.8731 452.8562,-126.8731 452.8562,-109.8731 474.8631,-109.8731 474.8631,-126.8731"/>
<text text-anchor="middle" x="463.8597" y="-115.6731" font-family="Times,serif" font-size="9.00" fill="#000000">L</text>
</g>
<!-- L&#45;&gt;LEFT -->
<g id="edge22" class="edge">
<title>L&#45;&gt;LEFT</title>
<path fill="none" stroke="#00ff00" stroke-width=".6147" stroke-dasharray="1,5" d="M456.4438,-109.8536C452.8256,-105.9079 448.3026,-101.2725 443.8597,-97.5135 423.0079,-79.8713 397.4461,-62.5845 377.6575,-50.0236"/>
<polygon fill="#00ff00" stroke="#00ff00" stroke-width=".6147" points="379.3409,-46.948 369.0093,-44.6007 375.6221,-52.8785 379.3409,-46.948"/>
</g>
<!-- L&#45;&gt;RIGHT -->
<g id="edge23" class="edge">
<title>L&#45;&gt;RIGHT</title>
<path fill="none" stroke="#00ff00" stroke-width=".1025" stroke-dasharray="1,5" d="M465.8504,-109.6518C467.9377,-100.508 471.3684,-85.4788 474.6786,-70.9774"/>
<polygon fill="#00ff00" stroke="#00ff00" stroke-width=".1025" points="478.1197,-71.6292 476.933,-61.1011 471.2953,-70.0714 478.1197,-71.6292"/>
</g>
<!-- M -->
<g id="node13" class="node">
<title>M</title>
<polygon fill="#d3d3d3" stroke="#000000" points="516.8621,-126.8731 492.8572,-126.8731 492.8572,-109.8731 516.8621,-109.8731 516.8621,-126.8731"/>
<text text-anchor="middle" x="504.8597" y="-115.6731" font-family="Times,serif" font-size="9.00" fill="#000000">M</text>
</g>
<!-- M&#45;&gt;LEFT -->
<g id="edge24" class="edge">
<title>M&#45;&gt;LEFT</title>
<path fill="none" stroke="#00ff00" stroke-width=".4668" d="M497.2517,-109.5723C493.4917,-105.565 488.7239,-100.959 483.8597,-97.5135 451.1768,-74.3628 409.2313,-55.3616 380.2072,-43.6313"/>
<polygon fill="#00ff00" stroke="#00ff00" stroke-width=".4668" points="381.4776,-40.37 370.8916,-39.9365 378.8967,-46.8769 381.4776,-40.37"/>
</g>
<!-- M&#45;&gt;RIGHT -->
<g id="edge25" class="edge">
<title>M&#45;&gt;RIGHT</title>
<path fill="none" stroke="#00ff00" stroke-width=".3699" stroke-dasharray="1,5" d="M502.7693,-109.6518C500.5609,-100.4377 496.92,-85.2472 493.4196,-70.6428"/>
<polygon fill="#00ff00" stroke="#00ff00" stroke-width=".3699" points="496.7725,-69.6151 491.038,-60.7063 489.9653,-71.2467 496.7725,-69.6151"/>
</g>
<!-- N -->
<g id="node14" class="node">
<title>N</title>
<polygon fill="#d3d3d3" stroke="#000000" points="557.3648,-126.8731 534.3545,-126.8731 534.3545,-109.8731 557.3648,-109.8731 557.3648,-126.8731"/>
<text text-anchor="middle" x="545.8597" y="-115.6731" font-family="Times,serif" font-size="9.00" fill="#000000">N</text>
</g>
<!-- N&#45;&gt;LEFT -->
<g id="edge26" class="edge">
<title>N&#45;&gt;LEFT</title>
<path fill="none" stroke="#00ff00" stroke-width=".6102" d="M539.185,-109.7637C535.6021,-105.6067 530.893,-100.8168 525.8597,-97.5135 501.4437,-81.4893 426.105,-56.1207 381.0042,-41.7104"/>
<polygon fill="#00ff00" stroke="#00ff00" stroke-width=".6102" points="381.9155,-38.3277 371.3252,-38.6377 379.7974,-44.9995 381.9155,-38.3277"/>
</g>
<!-- N&#45;&gt;RIGHT -->
<g id="edge27" class="edge">
<title>N&#45;&gt;RIGHT</title>
<path fill="none" stroke="#ff0000" stroke-width=".4738" d="M539.6882,-109.6518C532.2285,-99.11 519.2334,-80.7457 507.6569,-64.3862"/>
<polygon fill="#ff0000" stroke="#ff0000" stroke-width=".4738" points="510.4026,-62.2072 501.7692,-56.0659 504.6886,-66.2506 510.4026,-62.2072"/>
</g>
<!-- O -->
<g id="node15" class="node">
<title>O</title>
<polygon fill="#d3d3d3" stroke="#000000" points="597.3648,-126.8731 574.3545,-126.8731 574.3545,-109.8731 597.3648,-109.8731 597.3648,-126.8731"/>
<text text-anchor="middle" x="585.8597" y="-115.6731" font-family="Times,serif" font-size="9.00" fill="#000000">O</text>
</g>
<!-- O&#45;&gt;LEFT -->
<g id="edge28" class="edge">
<title>O&#45;&gt;LEFT</title>
<path fill="none" stroke="#00ff00" stroke-width=".4786" d="M579.2779,-109.6167C575.7187,-105.4223 571.0027,-100.6433 565.8597,-97.5135 517.5657,-68.1239 497.9425,-77.9784 443.8597,-61.5135 422.8923,-55.1302 399.4682,-47.7865 380.7798,-41.8761"/>
<polygon fill="#00ff00" stroke="#00ff00" stroke-width=".4786" points="381.7943,-38.5261 371.2041,-38.8422 379.6799,-45.1992 381.7943,-38.5261"/>
</g>
<!-- O&#45;&gt;RIGHT -->
<g id="edge29" class="edge">
<title>O&#45;&gt;RIGHT</title>
<path fill="none" stroke="#00ff00" stroke-width=".2164" stroke-dasharray="1,5" d="M577.9157,-109.6135C574.3353,-105.7913 569.9908,-101.3225 565.8597,-97.5135 550.2592,-83.1292 532.0284,-68.1242 516.7234,-55.9918"/>
<polygon fill="#00ff00" stroke="#00ff00" stroke-width=".2164" points="518.581,-53 508.557,-49.5693 514.2537,-58.5023 518.581,-53"/>
</g>
<!-- P -->
<g id="node16" class="node">
<title>P</title>
<polygon fill="#d3d3d3" stroke="#000000" points="636.365,-126.8731 615.3543,-126.8731 615.3543,-109.8731 636.365,-109.8731 636.365,-126.8731"/>
<text text-anchor="middle" x="625.8597" y="-115.6731" font-family="Times,serif" font-size="9.00" fill="#000000">P</text>
</g>
<!-- P&#45;&gt;LEFT -->
<g id="edge30" class="edge">
<title>P&#45;&gt;LEFT</title>
<path fill="none" stroke="#ff0000" stroke-width=".153" stroke-dasharray="1,5" d="M619.3658,-109.4666C615.829,-105.2339 611.1065,-100.4659 605.8597,-97.5135 541.5813,-61.3432 515.1106,-80.5738 443.8597,-61.5135 422.6866,-55.8495 399.2544,-48.5344 380.613,-42.4593"/>
<polygon fill="#ff0000" stroke="#ff0000" stroke-width=".153" points="381.6602,-39.1194 371.0673,-39.3208 379.4738,-45.7692 381.6602,-39.1194"/>
</g>
<!-- P&#45;&gt;RIGHT -->
<g id="edge31" class="edge">
<title>P&#45;&gt;RIGHT</title>
<path fill="none" stroke="#ff0000" stroke-width=".1792" stroke-dasharray="1,5" d="M618.6031,-109.6557C615.0198,-105.6667 610.4802,-101.052 605.8597,-97.5135 579.684,-77.4673 546.7203,-59.8125 521.6582,-47.7017"/>
<polygon fill="#ff0000" stroke="#ff0000" stroke-width=".1792" points="523.0049,-44.4667 512.4704,-43.3382 520.0019,-50.7898 523.0049,-44.4667"/>
</g>
<!-- 196&#45;&gt;RIGHT -->
<g id="edge33" class="edge">
<title>196&#45;&gt;RIGHT</title>
<path fill="none" stroke="#00ff00" stroke-width=".1782" d="M774.2273,-106.4783C768.8261,-103.2203 762.7512,-99.9259 756.8597,-97.5135 677.7471,-65.1191 579.0483,-45.7969 524.6305,-36.8274"/>
<polygon fill="#00ff00" stroke="#00ff00" stroke-width=".1782" points="525.1077,-33.3592 514.6778,-35.2215 523.9926,-40.2698 525.1077,-33.3592"/>
</g>
<!-- 383&#45;&gt;LEFT -->
<g id="edge35" class="edge">
<title>383&#45;&gt;LEFT</title>
<path fill="none" stroke="#00ff00" stroke-width=".7661" d="M38.1125,-106.645C43.6018,-103.3147 49.8206,-99.9386 55.8597,-97.5135 143.2372,-62.4252 253.186,-43.4624 309.2811,-35.449"/>
<polygon fill="#00ff00" stroke="#00ff00" stroke-width=".7661" points="310.0139,-38.8808 319.4354,-34.0347 309.0482,-31.9478 310.0139,-38.8808"/>
</g>
</g>
</svg>
