<?xml version="1.0" encoding="UTF-8" standalone="no"?>
<!DOCTYPE svg PUBLIC "-//W3C//DTD SVG 1.1//EN"
 "http://www.w3.org/Graphics/SVG/1.1/DTD/svg11.dtd">
<!-- Generated by graphviz version 2.40.1 (20161225.0304)
 -->
<!-- Title: %3 Pages: 1 -->
<svg width="583pt" height="200pt"
 viewBox="0.00 0.00 582.86 200.23" xmlns="http://www.w3.org/2000/svg" xmlns:xlink="http://www.w3.org/1999/xlink">
<g id="graph0" class="graph" transform="scale(1 1) rotate(0) translate(4 196.2328)">
<title>%3</title>
<polygon fill="#ffffff" stroke="transparent" points="-4,4 -4,-196.2328 578.8611,-196.2328 578.8611,4 -4,4"/>
<!-- A -->
<g id="node1" class="node">
<title>A</title>
<polygon fill="#d3d3d3" stroke="#000000" points="81.3648,-192.2328 58.3545,-192.2328 58.3545,-175.2328 81.3648,-175.2328 81.3648,-192.2328"/>
<text text-anchor="middle" x="69.8597" y="-181.0328" font-family="Times,serif" font-size="9.00" fill="#000000">A</text>
</g>
<!-- B -->
<g id="node2" class="node">
<title>B</title>
<polygon fill="#d3d3d3" stroke="#000000" points="574.8626,-126.8731 552.8567,-126.8731 552.8567,-109.8731 574.8626,-109.8731 574.8626,-126.8731"/>
<text text-anchor="middle" x="563.8597" y="-115.6731" font-family="Times,serif" font-size="9.00" fill="#000000">B</text>
</g>
<!-- LEFT -->
<g id="node17" class="node">
<title>LEFT</title>
<ellipse fill="#add8e6" stroke="#000000" cx="431.8597" cy="-30.7567" rx="26.5303" ry="26.5303"/>
<text text-anchor="middle" x="431.8597" y="-28.0567" font-family="Times,serif" font-size="9.00" fill="#000000">LEFT</text>
</g>
<!-- B&#45;&gt;LEFT -->
<g id="edge1" class="edge">
<title>B&#45;&gt;LEFT</title>
<path fill="none" stroke="#ff0000" stroke-width=".1345" d="M556.544,-109.7315C552.9477,-105.7591 548.4142,-101.1365 543.8597,-97.5135 519.1033,-77.8207 488.0004,-59.7351 464.857,-47.3702"/>
<polygon fill="#ff0000" stroke="#ff0000" stroke-width=".1345" points="466.2614,-44.1543 455.7818,-42.596 463.0023,-50.3493 466.2614,-44.1543"/>
</g>
<!-- C -->
<g id="node3" class="node">
<title>C</title>
<polygon fill="#d3d3d3" stroke="#000000" points="196.8626,-126.8731 174.8567,-126.8731 174.8567,-109.8731 196.8626,-109.8731 196.8626,-126.8731"/>
<text text-anchor="middle" x="185.8597" y="-115.6731" font-family="Times,serif" font-size="9.00" fill="#000000">C</text>
</g>
<!-- RIGHT -->
<g id="node18" class="node">
<title>RIGHT</title>
<ellipse fill="#add8e6" stroke="#000000" cx="185.8597" cy="-30.7567" rx="30.5154" ry="30.5154"/>
<text text-anchor="middle" x="185.8597" y="-28.0567" font-family="Times,serif" font-size="9.00" fill="#000000">RIGHT</text>
</g>
<!-- C&#45;&gt;RIGHT -->
<g id="edge2" class="edge">
<title>C&#45;&gt;RIGHT</title>
<path fill="none" stroke="#ff0000" stroke-width=".2147" d="M185.8597,-109.6518C185.8597,-100.7352 185.8597,-86.2222 185.8597,-72.0594"/>
<polygon fill="#ff0000" stroke="#ff0000" stroke-width=".2147" points="189.3597,-71.8937 185.8597,-61.8937 182.3597,-71.8937 189.3597,-71.8937"/>
</g>
<!-- D -->
<g id="node4" class="node">
<title>D</title>
<polygon fill="#d3d3d3" stroke="#000000" points="398.3648,-192.2328 375.3545,-192.2328 375.3545,-175.2328 398.3648,-175.2328 398.3648,-192.2328"/>
<text text-anchor="middle" x="386.8597" y="-181.0328" font-family="Times,serif" font-size="9.00" fill="#000000">D</text>
</g>
<!-- E -->
<g id="node5" class="node">
<title>E</title>
<polygon fill="#d3d3d3" stroke="#000000" points="236.8631,-126.8731 214.8562,-126.8731 214.8562,-109.8731 236.8631,-109.8731 236.8631,-126.8731"/>
<text text-anchor="middle" x="225.8597" y="-115.6731" font-family="Times,serif" font-size="9.00" fill="#000000">E</text>
</g>
<!-- E&#45;&gt;RIGHT -->
<g id="edge3" class="edge">
<title>E&#45;&gt;RIGHT</title>
<path fill="none" stroke="#ff0000" stroke-width=".1052" d="M221.8781,-109.6518C217.4269,-99.902 209.921,-83.4609 202.9096,-68.1031"/>
<polygon fill="#ff0000" stroke="#ff0000" stroke-width=".1052" points="205.9766,-66.3934 198.6396,-58.7501 199.6088,-69.3006 205.9766,-66.3934"/>
</g>
<!-- F -->
<g id="node6" class="node">
<title>F</title>
<polygon fill="#d3d3d3" stroke="#000000" points="437.365,-192.2328 416.3543,-192.2328 416.3543,-175.2328 437.365,-175.2328 437.365,-192.2328"/>
<text text-anchor="middle" x="426.8597" y="-181.0328" font-family="Times,serif" font-size="9.00" fill="#000000">F</text>
</g>
<!-- G -->
<g id="node7" class="node">
<title>G</title>
<polygon fill="#d3d3d3" stroke="#000000" points="82.3648,-126.8731 59.3545,-126.8731 59.3545,-109.8731 82.3648,-109.8731 82.3648,-126.8731"/>
<text text-anchor="middle" x="70.8597" y="-115.6731" font-family="Times,serif" font-size="9.00" fill="#000000">G</text>
</g>
<!-- G&#45;&gt;RIGHT -->
<g id="edge4" class="edge">
<title>G&#45;&gt;RIGHT</title>
<path fill="none" stroke="#00ff00" stroke-width=".7426" d="M80.9688,-109.7145C85.4776,-105.911 90.8846,-101.4289 95.8597,-97.5135 114.2153,-83.0672 135.151,-67.4868 152.2086,-55.0141"/>
<polygon fill="#00ff00" stroke="#00ff00" stroke-width=".7426" points="154.7197,-57.515 160.7409,-48.7975 150.5976,-51.8574 154.7197,-57.515"/>
</g>
<!-- H -->
<g id="node8" class="node">
<title>H</title>
<polygon fill="#d3d3d3" stroke="#000000" points="121.3648,-192.2328 98.3545,-192.2328 98.3545,-175.2328 121.3648,-175.2328 121.3648,-192.2328"/>
<text text-anchor="middle" x="109.8597" y="-181.0328" font-family="Times,serif" font-size="9.00" fill="#000000">H</text>
</g>
<!-- H&#45;&gt;LEFT -->
<g id="edge5" class="edge">
<title>H&#45;&gt;LEFT</title>
<path fill="none" stroke="#00ff00" stroke-width=".3976" d="M121.3913,-182.9493C165.5005,-179.768 323.0911,-166.6565 363.8597,-139.2328 378.1095,-129.6473 399.9336,-92.1078 414.9954,-63.8552"/>
<polygon fill="#00ff00" stroke="#00ff00" stroke-width=".3976" points="418.2623,-65.1629 419.8234,-54.6837 412.0681,-61.9022 418.2623,-65.1629"/>
</g>
<!-- H&#45;&gt;RIGHT -->
<g id="edge6" class="edge">
<title>H&#45;&gt;RIGHT</title>
<path fill="none" stroke="#00ff00" stroke-width=".4065" d="M110.3697,-175.201C111.6157,-159.1851 115.7468,-123.86 128.8597,-97.5135 135.6898,-83.7902 145.9524,-70.5451 155.8956,-59.521"/>
<polygon fill="#00ff00" stroke="#00ff00" stroke-width=".4065" points="158.7425,-61.6016 163.0258,-51.9112 153.6343,-56.8154 158.7425,-61.6016"/>
</g>
<!-- 196 -->
<g id="node19" class="node">
<title>196</title>
<ellipse fill="#ffffff" stroke="#000000" cx="20.8597" cy="-118.3731" rx="20.7202" ry="20.7202"/>
<text text-anchor="middle" x="20.8597" y="-115.6731" font-family="Times,serif" font-size="9.00" fill="#000000">196</text>
</g>
<!-- H&#45;&gt;196 -->
<g id="edge15" class="edge">
<title>H&#45;&gt;196</title>
<path fill="none" stroke="#ff0000" stroke-width=".2384" d="M98.5877,-175.4549C85.523,-165.8604 63.5804,-149.7463 46.3344,-137.0812"/>
<polygon fill="#ff0000" stroke="#ff0000" stroke-width=".2384" points="47.9477,-133.9236 37.8159,-130.8254 43.8043,-139.5656 47.9477,-133.9236"/>
</g>
<!-- I -->
<g id="node9" class="node">
<title>I</title>
<polygon fill="#d3d3d3" stroke="#000000" points="156.3567,-126.8731 137.3626,-126.8731 137.3626,-109.8731 156.3567,-109.8731 156.3567,-126.8731"/>
<text text-anchor="middle" x="146.8597" y="-115.6731" font-family="Times,serif" font-size="9.00" fill="#000000">I</text>
</g>
<!-- I&#45;&gt;RIGHT -->
<g id="edge7" class="edge">
<title>I&#45;&gt;RIGHT</title>
<path fill="none" stroke="#00ff00" stroke-width=".2187" d="M150.7417,-109.6518C155.0496,-99.9737 162.2924,-83.7023 169.0851,-68.442"/>
<polygon fill="#00ff00" stroke="#00ff00" stroke-width=".2187" points="172.357,-69.6981 173.2261,-59.139 165.9619,-66.8515 172.357,-69.6981"/>
</g>
<!-- J -->
<g id="node10" class="node">
<title>J</title>
<polygon fill="#d3d3d3" stroke="#000000" points="357.3683,-192.2328 338.351,-192.2328 338.351,-175.2328 357.3683,-175.2328 357.3683,-192.2328"/>
<text text-anchor="middle" x="347.8597" y="-181.0328" font-family="Times,serif" font-size="9.00" fill="#000000">J</text>
</g>
<!-- J&#45;&gt;RIGHT -->
<g id="edge8" class="edge">
<title>J&#45;&gt;RIGHT</title>
<path fill="none" stroke="#00ff00" stroke-width=".601" d="M338.2535,-178.0225C325.2833,-170.1023 301.7375,-154.9709 283.8597,-139.2328 281.8949,-137.5032 241.7442,-92.9316 213.4526,-61.468"/>
<polygon fill="#00ff00" stroke="#00ff00" stroke-width=".601" points="215.8342,-58.8819 206.5458,-53.7852 210.6285,-63.5618 215.8342,-58.8819"/>
</g>
<!-- 383 -->
<g id="node20" class="node">
<title>383</title>
<ellipse fill="#ffffff" stroke="#000000" cx="431.8597" cy="-118.3731" rx="20.7202" ry="20.7202"/>
<text text-anchor="middle" x="431.8597" y="-115.6731" font-family="Times,serif" font-size="9.00" fill="#000000">383</text>
</g>
<!-- J&#45;&gt;383 -->
<g id="edge17" class="edge">
<title>J&#45;&gt;383</title>
<path fill="none" stroke="#00ff00" stroke-width=".2529" d="M357.4955,-176.2352C369.4588,-166.9267 390.3111,-150.7017 406.8959,-137.7972"/>
<polygon fill="#00ff00" stroke="#00ff00" stroke-width=".2529" points="409.3671,-140.3091 415.1101,-131.4058 405.0684,-134.7845 409.3671,-140.3091"/>
</g>
<!-- K -->
<g id="node11" class="node">
<title>K</title>
<polygon fill="#d3d3d3" stroke="#000000" points="315.3648,-126.8731 292.3545,-126.8731 292.3545,-109.8731 315.3648,-109.8731 315.3648,-126.8731"/>
<text text-anchor="middle" x="303.8597" y="-115.6731" font-family="Times,serif" font-size="9.00" fill="#000000">K</text>
</g>
<!-- K&#45;&gt;LEFT -->
<g id="edge9" class="edge">
<title>K&#45;&gt;LEFT</title>
<path fill="none" stroke="#00ff00" stroke-width=".5737" d="M311.2017,-109.7644C314.8037,-105.7991 319.3344,-101.1731 323.8597,-97.5135 347.4049,-78.472 376.7803,-60.6432 398.9486,-48.2088"/>
<polygon fill="#00ff00" stroke="#00ff00" stroke-width=".5737" points="400.9112,-51.1232 407.97,-43.2223 397.5248,-44.9968 400.9112,-51.1232"/>
</g>
<!-- K&#45;&gt;RIGHT -->
<g id="edge10" class="edge">
<title>K&#45;&gt;RIGHT</title>
<path fill="none" stroke="#00ff00" stroke-width=".2511" d="M293.7794,-109.6775C289.2759,-105.8672 283.8651,-101.39 278.8597,-97.5135 259.6843,-82.6629 237.6579,-66.8014 219.8557,-54.2673"/>
<polygon fill="#00ff00" stroke="#00ff00" stroke-width=".2511" points="221.6843,-51.2748 211.4868,-48.4004 217.6661,-57.0067 221.6843,-51.2748"/>
</g>
<!-- L -->
<g id="node12" class="node">
<title>L</title>
<polygon fill="#d3d3d3" stroke="#000000" points="476.8631,-192.2328 454.8562,-192.2328 454.8562,-175.2328 476.8631,-175.2328 476.8631,-192.2328"/>
<text text-anchor="middle" x="465.8597" y="-181.0328" font-family="Times,serif" font-size="9.00" fill="#000000">L</text>
</g>
<!-- M -->
<g id="node13" class="node">
<title>M</title>
<polygon fill="#d3d3d3" stroke="#000000" points="494.8621,-126.8731 470.8572,-126.8731 470.8572,-109.8731 494.8621,-109.8731 494.8621,-126.8731"/>
<text text-anchor="middle" x="482.8597" y="-115.6731" font-family="Times,serif" font-size="9.00" fill="#000000">M</text>
</g>
<!-- M&#45;&gt;LEFT -->
<g id="edge11" class="edge">
<title>M&#45;&gt;LEFT</title>
<path fill="none" stroke="#00ff00" stroke-width=".4668" d="M477.7831,-109.6518C471.4481,-98.7685 460.26,-79.5476 450.5131,-62.8027"/>
<polygon fill="#00ff00" stroke="#00ff00" stroke-width=".4668" points="453.342,-60.7052 445.2864,-53.8234 447.2922,-64.2267 453.342,-60.7052"/>
</g>
<!-- N -->
<g id="node14" class="node">
<title>N</title>
<polygon fill="#d3d3d3" stroke="#000000" points="355.3648,-126.8731 332.3545,-126.8731 332.3545,-109.8731 355.3648,-109.8731 355.3648,-126.8731"/>
<text text-anchor="middle" x="343.8597" y="-115.6731" font-family="Times,serif" font-size="9.00" fill="#000000">N</text>
</g>
<!-- N&#45;&gt;LEFT -->
<g id="edge12" class="edge">
<title>N&#45;&gt;LEFT</title>
<path fill="none" stroke="#00ff00" stroke-width=".6102" d="M352.6191,-109.6518C364.8679,-97.4565 387.6316,-74.7919 405.6285,-56.8735"/>
<polygon fill="#00ff00" stroke="#00ff00" stroke-width=".6102" points="408.388,-59.065 413.0051,-49.5291 403.4491,-54.1045 408.388,-59.065"/>
</g>
<!-- N&#45;&gt;RIGHT -->
<g id="edge13" class="edge">
<title>N&#45;&gt;RIGHT</title>
<path fill="none" stroke="#ff0000" stroke-width=".4738" d="M336.6814,-109.5509C333.1152,-105.5388 328.5674,-100.9351 323.8597,-97.5135 292.9122,-75.0204 253.2076,-56.7391 224.3385,-45.0319"/>
<polygon fill="#ff0000" stroke="#ff0000" stroke-width=".4738" points="225.5775,-41.758 214.9919,-41.317 222.992,-48.2631 225.5775,-41.758"/>
</g>
<!-- O -->
<g id="node15" class="node">
<title>O</title>
<polygon fill="#d3d3d3" stroke="#000000" points="535.3648,-126.8731 512.3545,-126.8731 512.3545,-109.8731 535.3648,-109.8731 535.3648,-126.8731"/>
<text text-anchor="middle" x="523.8597" y="-115.6731" font-family="Times,serif" font-size="9.00" fill="#000000">O</text>
</g>
<!-- O&#45;&gt;LEFT -->
<g id="edge14" class="edge">
<title>O&#45;&gt;LEFT</title>
<path fill="none" stroke="#00ff00" stroke-width=".4786" d="M515.7974,-109.7378C512.195,-105.9386 507.8661,-101.4534 503.8597,-97.5135 489.4326,-83.3258 472.9045,-67.9425 459.3257,-55.5226"/>
<polygon fill="#00ff00" stroke="#00ff00" stroke-width=".4786" points="461.459,-52.7314 451.7097,-48.5839 456.7447,-57.9059 461.459,-52.7314"/>
</g>
<!-- P -->
<g id="node16" class="node">
<title>P</title>
<polygon fill="#d3d3d3" stroke="#000000" points="515.365,-192.2328 494.3543,-192.2328 494.3543,-175.2328 515.365,-175.2328 515.365,-192.2328"/>
<text text-anchor="middle" x="504.8597" y="-181.0328" font-family="Times,serif" font-size="9.00" fill="#000000">P</text>
</g>
<!-- 196&#45;&gt;RIGHT -->
<g id="edge16" class="edge">
<title>196&#45;&gt;RIGHT</title>
<path fill="none" stroke="#00ff00" stroke-width=".1782" d="M37.7053,-106.0105C41.9213,-103.0986 46.4897,-100.0939 50.8597,-97.5135 82.781,-78.6638 120.7535,-60.2167 148.2829,-47.5081"/>
<polygon fill="#00ff00" stroke="#00ff00" stroke-width=".1782" points="149.9229,-50.6067 157.5578,-43.261 147.0085,-44.2422 149.9229,-50.6067"/>
</g>
<!-- 383&#45;&gt;LEFT -->
<g id="edge18" class="edge">
<title>383&#45;&gt;LEFT</title>
<path fill="none" stroke="#00ff00" stroke-width=".7661" d="M431.8597,-97.1636C431.8597,-88.2928 431.8597,-77.7196 431.8597,-67.6469"/>
<polygon fill="#00ff00" stroke="#00ff00" stroke-width=".7661" points="435.3597,-67.4237 431.8597,-57.4237 428.3597,-67.4238 435.3597,-67.4237"/>
</g>
</g>
</svg>
