<?xml version="1.0" encoding="UTF-8" standalone="no"?>
<!DOCTYPE svg PUBLIC "-//W3C//DTD SVG 1.1//EN"
 "http://www.w3.org/Graphics/SVG/1.1/DTD/svg11.dtd">
<!-- Generated by graphviz version 2.40.1 (20161225.0304)
 -->
<!-- Title: %3 Pages: 1 -->
<svg width="626pt" height="123pt"
 viewBox="0.00 0.00 626.25 122.51" xmlns="http://www.w3.org/2000/svg" xmlns:xlink="http://www.w3.org/1999/xlink">
<g id="graph0" class="graph" transform="scale(1 1) rotate(0) translate(4 118.5135)">
<title>%3</title>
<polygon fill="#ffffff" stroke="transparent" points="-4,4 -4,-118.5135 622.2512,-118.5135 622.2512,4 -4,4"/>
<!-- A -->
<g id="node1" class="node">
<title>A</title>
<polygon fill="#d3d3d3" stroke="#000000" points="458.5066,-114.5135 435.4963,-114.5135 435.4963,-97.5135 458.5066,-97.5135 458.5066,-114.5135"/>
<text text-anchor="middle" x="447.0015" y="-103.3135" font-family="Times,serif" font-size="9.00" fill="#000000">A</text>
</g>
<!-- LEFT -->
<g id="node17" class="node">
<title>LEFT</title>
<ellipse fill="#add8e6" stroke="#000000" cx="323.0015" cy="-30.7567" rx="26.5303" ry="26.5303"/>
<text text-anchor="middle" x="323.0015" y="-28.0567" font-family="Times,serif" font-size="9.00" fill="#000000">LEFT</text>
</g>
<!-- A&#45;&gt;LEFT -->
<g id="edge1" class="edge">
<title>A&#45;&gt;LEFT</title>
<path fill="none" stroke="#00ff00" stroke-width=".233" d="M435.5581,-99.0684C417.2435,-87.9531 380.7176,-65.7852 354.23,-49.7096"/>
<polygon fill="#00ff00" stroke="#00ff00" stroke-width=".233" points="356.0375,-46.7125 345.6728,-44.5162 352.4057,-52.6966 356.0375,-46.7125"/>
</g>
<!-- RIGHT -->
<g id="node18" class="node">
<title>RIGHT</title>
<ellipse fill="#add8e6" stroke="#000000" cx="246.0015" cy="-30.7567" rx="30.5154" ry="30.5154"/>
<text text-anchor="middle" x="246.0015" y="-28.0567" font-family="Times,serif" font-size="9.00" fill="#000000">RIGHT</text>
</g>
<!-- A&#45;&gt;RIGHT -->
<g id="edge2" class="edge">
<title>A&#45;&gt;RIGHT</title>
<path fill="none" stroke="#ff0000" stroke-width=".1971" stroke-dasharray="1,5" d="M435.6934,-100.8587C432.885,-99.6757 429.86,-98.4823 427.0015,-97.5135 366.1549,-76.8906 344.9175,-89.3223 287.0015,-61.5135 284.0335,-60.0884 281.067,-58.4327 278.1636,-56.643"/>
<polygon fill="#ff0000" stroke="#ff0000" stroke-width=".1971" points="279.9582,-53.6323 269.7039,-50.9677 276.0584,-59.4454 279.9582,-53.6323"/>
</g>
<!-- B -->
<g id="node2" class="node">
<title>B</title>
<polygon fill="#d3d3d3" stroke="#000000" points="498.0044,-114.5135 475.9985,-114.5135 475.9985,-97.5135 498.0044,-97.5135 498.0044,-114.5135"/>
<text text-anchor="middle" x="487.0015" y="-103.3135" font-family="Times,serif" font-size="9.00" fill="#000000">B</text>
</g>
<!-- B&#45;&gt;LEFT -->
<g id="edge3" class="edge">
<title>B&#45;&gt;LEFT</title>
<path fill="none" stroke="#ff0000" stroke-width=".3242" d="M475.9863,-100.9588C451.9231,-89.9166 393.8379,-63.2623 356.5647,-46.1583"/>
<polygon fill="#ff0000" stroke="#ff0000" stroke-width=".3242" points="357.6586,-42.8094 347.11,-41.8197 354.7391,-49.1715 357.6586,-42.8094"/>
</g>
<!-- B&#45;&gt;RIGHT -->
<g id="edge4" class="edge">
<title>B&#45;&gt;RIGHT</title>
<path fill="none" stroke="#ff0000" stroke-width=".237" d="M475.7292,-100.7481C472.9198,-99.5685 469.8852,-98.4043 467.0015,-97.5135 389.0522,-73.4322 361.4785,-94.8176 287.0015,-61.5135 283.9959,-60.1695 281.0027,-58.5715 278.081,-56.821"/>
<polygon fill="#ff0000" stroke="#ff0000" stroke-width=".237" points="279.8633,-53.8037 269.5899,-51.2136 276.0058,-59.6449 279.8633,-53.8037"/>
</g>
<!-- C -->
<g id="node3" class="node">
<title>C</title>
<polygon fill="#d3d3d3" stroke="#000000" points="22.0044,-114.5135 -.0015,-114.5135 -.0015,-97.5135 22.0044,-97.5135 22.0044,-114.5135"/>
<text text-anchor="middle" x="11.0015" y="-103.3135" font-family="Times,serif" font-size="9.00" fill="#000000">C</text>
</g>
<!-- C&#45;&gt;LEFT -->
<g id="edge5" class="edge">
<title>C&#45;&gt;LEFT</title>
<path fill="none" stroke="#00ff00" stroke-width=".3744" stroke-dasharray="1,5" d="M22.2393,-100.6308C25.0498,-99.4547 28.0934,-98.3216 31.0015,-97.5135 141.2795,-66.8672 181.3469,-107.8585 286.0015,-61.5135 289.4098,-60.0041 292.7542,-58.0864 295.9533,-55.9485"/>
<polygon fill="#00ff00" stroke="#00ff00" stroke-width=".3744" points="298.1189,-58.6995 304.0266,-49.9046 293.9238,-53.0958 298.1189,-58.6995"/>
</g>
<!-- C&#45;&gt;RIGHT -->
<g id="edge6" class="edge">
<title>C&#45;&gt;RIGHT</title>
<path fill="none" stroke="#ff0000" stroke-width=".3713" d="M22.3447,-100.9583C25.152,-99.7723 28.1677,-98.5526 31.0015,-97.5135 91.301,-75.4023 162.7755,-54.1713 206.2331,-41.8011"/>
<polygon fill="#ff0000" stroke="#ff0000" stroke-width=".3713" points="207.456,-45.0925 216.1245,-39.001 205.5493,-38.3572 207.456,-45.0925"/>
</g>
<!-- D -->
<g id="node4" class="node">
<title>D</title>
<polygon fill="#d3d3d3" stroke="#000000" points="62.5066,-114.5135 39.4963,-114.5135 39.4963,-97.5135 62.5066,-97.5135 62.5066,-114.5135"/>
<text text-anchor="middle" x="51.0015" y="-103.3135" font-family="Times,serif" font-size="9.00" fill="#000000">D</text>
</g>
<!-- D&#45;&gt;LEFT -->
<g id="edge29" class="edge">
<title>D&#45;&gt;LEFT</title>
<path fill="none" stroke="#ff0000" stroke-width=".1966" stroke-dasharray="1,5" d="M62.2543,-100.6836C65.0644,-99.5059 68.104,-98.3588 71.0015,-97.5135 164.0093,-70.3768 197.9238,-101.8767 286.0015,-61.5135 289.3902,-59.9605 292.7218,-58.0144 295.9132,-55.8594"/>
<polygon fill="#ff0000" stroke="#ff0000" stroke-width=".1966" points="298.0893,-58.6021 303.9765,-49.7935 293.8812,-53.0082 298.0893,-58.6021"/>
</g>
<!-- D&#45;&gt;RIGHT -->
<g id="edge7" class="edge">
<title>D&#45;&gt;RIGHT</title>
<path fill="none" stroke="#ff0000" stroke-width=".444" d="M62.3933,-101.0849C65.1992,-99.895 68.2021,-98.6418 71.0015,-97.5135 117.7289,-78.6791 171.9953,-58.1906 207.5601,-44.9489"/>
<polygon fill="#ff0000" stroke="#ff0000" stroke-width=".444" points="208.919,-48.1778 217.0735,-41.4136 206.4806,-41.6162 208.919,-48.1778"/>
</g>
<!-- E -->
<g id="node5" class="node">
<title>E</title>
<polygon fill="#d3d3d3" stroke="#000000" points="102.0049,-114.5135 79.998,-114.5135 79.998,-97.5135 102.0049,-97.5135 102.0049,-114.5135"/>
<text text-anchor="middle" x="91.0015" y="-103.3135" font-family="Times,serif" font-size="9.00" fill="#000000">E</text>
</g>
<!-- E&#45;&gt;LEFT -->
<g id="edge8" class="edge">
<title>E&#45;&gt;LEFT</title>
<path fill="none" stroke="#00ff00" stroke-width=".3495" stroke-dasharray="1,5" d="M102.0944,-100.5634C104.6503,-99.4452 107.387,-98.3544 110.0015,-97.5135 186.0079,-73.0648 214.0263,-96.072 286.0015,-61.5135 289.3618,-59.9 292.6749,-57.9145 295.8551,-55.7356"/>
<polygon fill="#00ff00" stroke="#00ff00" stroke-width=".3495" points="298.0457,-58.4671 303.9042,-49.6393 293.8193,-52.8869 298.0457,-58.4671"/>
</g>
<!-- E&#45;&gt;RIGHT -->
<g id="edge9" class="edge">
<title>E&#45;&gt;RIGHT</title>
<path fill="none" stroke="#ff0000" stroke-width=".4261" d="M102.1487,-100.6012C124.1655,-89.9114 174.1102,-65.6619 208.9312,-48.7553"/>
<polygon fill="#ff0000" stroke="#ff0000" stroke-width=".4261" points="210.8487,-51.7152 218.3157,-44.1989 207.7913,-45.4181 210.8487,-51.7152"/>
</g>
<!-- F -->
<g id="node6" class="node">
<title>F</title>
<polygon fill="#d3d3d3" stroke="#000000" points="140.5068,-114.5135 119.4961,-114.5135 119.4961,-97.5135 140.5068,-97.5135 140.5068,-114.5135"/>
<text text-anchor="middle" x="130.0015" y="-103.3135" font-family="Times,serif" font-size="9.00" fill="#000000">F</text>
</g>
<!-- F&#45;&gt;LEFT -->
<g id="edge10" class="edge">
<title>F&#45;&gt;LEFT</title>
<path fill="none" stroke="#ff0000" stroke-width=".4298" stroke-dasharray="1,5" d="M140.8948,-101.0504C143.8198,-99.8099 147.0036,-98.5414 150.0015,-97.5135 209.1474,-77.2333 230.4301,-90.1726 286.0015,-61.5135 289.3144,-59.8049 292.5967,-57.7574 295.7583,-55.5411"/>
<polygon fill="#ff0000" stroke="#ff0000" stroke-width=".4298" points="297.9711,-58.255 303.7835,-49.3968 293.7157,-52.6969 297.9711,-58.255"/>
</g>
<!-- F&#45;&gt;RIGHT -->
<g id="edge11" class="edge">
<title>F&#45;&gt;RIGHT</title>
<path fill="none" stroke="#ff0000" stroke-width=".6889" d="M140.7065,-99.0684C156.5916,-88.7627 187.1216,-68.9559 211.2339,-53.3127"/>
<polygon fill="#ff0000" stroke="#ff0000" stroke-width=".6889" points="213.3037,-56.142 219.788,-47.7631 209.4939,-50.2696 213.3037,-56.142"/>
</g>
<!-- G -->
<g id="node7" class="node">
<title>G</title>
<polygon fill="#d3d3d3" stroke="#000000" points="538.5066,-114.5135 515.4963,-114.5135 515.4963,-97.5135 538.5066,-97.5135 538.5066,-114.5135"/>
<text text-anchor="middle" x="527.0015" y="-103.3135" font-family="Times,serif" font-size="9.00" fill="#000000">G</text>
</g>
<!-- G&#45;&gt;LEFT -->
<g id="edge12" class="edge">
<title>G&#45;&gt;LEFT</title>
<path fill="none" stroke="#00ff00" stroke-width=".6117" stroke-dasharray="1,5" d="M515.6226,-101.0523C512.8163,-99.8634 509.81,-98.6188 507.0015,-97.5135 455.5532,-77.2647 395.1776,-55.7891 358.0042,-42.8253"/>
<polygon fill="#00ff00" stroke="#00ff00" stroke-width=".6117" points="358.7562,-39.3813 348.1614,-39.4027 356.4571,-45.993 358.7562,-39.3813"/>
</g>
<!-- H -->
<g id="node8" class="node">
<title>H</title>
<polygon fill="#d3d3d3" stroke="#000000" points="181.5066,-114.5135 158.4963,-114.5135 158.4963,-97.5135 181.5066,-97.5135 181.5066,-114.5135"/>
<text text-anchor="middle" x="170.0015" y="-103.3135" font-family="Times,serif" font-size="9.00" fill="#000000">H</text>
</g>
<!-- H&#45;&gt;LEFT -->
<g id="edge13" class="edge">
<title>H&#45;&gt;LEFT</title>
<path fill="none" stroke="#00ff00" stroke-width=".5081" d="M181.5364,-101.2906C184.6069,-100.0482 187.9253,-98.7187 191.0015,-97.5135 233.042,-81.042 246.9954,-84.2564 286.0015,-61.5135 289.2217,-59.6359 292.4435,-57.4783 295.5685,-55.1954"/>
<polygon fill="#00ff00" stroke="#00ff00" stroke-width=".5081" points="297.8189,-57.8789 303.547,-48.966 293.511,-52.3614 297.8189,-57.8789"/>
</g>
<!-- H&#45;&gt;RIGHT -->
<g id="edge14" class="edge">
<title>H&#45;&gt;RIGHT</title>
<path fill="none" stroke="#00ff00" stroke-width=".4937" stroke-dasharray="1,5" d="M178.7196,-97.3806C187.9968,-88.1942 203.1819,-73.1575 216.7804,-59.692"/>
<polygon fill="#00ff00" stroke="#00ff00" stroke-width=".4937" points="219.4812,-61.9433 224.1243,-52.42 214.5558,-56.9692 219.4812,-61.9433"/>
</g>
<!-- I -->
<g id="node9" class="node">
<title>I</title>
<polygon fill="#d3d3d3" stroke="#000000" points="218.4985,-114.5135 199.5044,-114.5135 199.5044,-97.5135 218.4985,-97.5135 218.4985,-114.5135"/>
<text text-anchor="middle" x="209.0015" y="-103.3135" font-family="Times,serif" font-size="9.00" fill="#000000">I</text>
</g>
<!-- I&#45;&gt;LEFT -->
<g id="edge15" class="edge">
<title>I&#45;&gt;LEFT</title>
<path fill="none" stroke="#ff0000" stroke-width=".3584" stroke-dasharray="1,5" d="M218.805,-101.0364C233.756,-93.2954 262.9491,-77.5831 286.0015,-61.5135 289.0594,-59.3818 292.1755,-57.0587 295.2367,-54.6757"/>
<polygon fill="#ff0000" stroke="#ff0000" stroke-width=".3584" points="297.5389,-57.3156 303.1333,-48.3183 293.1491,-51.8631 297.5389,-57.3156"/>
</g>
<!-- I&#45;&gt;RIGHT -->
<g id="edge16" class="edge">
<title>I&#45;&gt;RIGHT</title>
<path fill="none" stroke="#ff0000" stroke-width=".1582" stroke-dasharray="1,5" d="M213.2458,-97.3806C216.8642,-90.0208 222.3288,-78.9061 227.7632,-67.8526"/>
<polygon fill="#ff0000" stroke="#ff0000" stroke-width=".1582" points="231.0087,-69.1842 232.2799,-58.6659 224.7268,-66.0957 231.0087,-69.1842"/>
</g>
<!-- J -->
<g id="node10" class="node">
<title>J</title>
<polygon fill="#d3d3d3" stroke="#000000" points="255.5101,-114.5135 236.4928,-114.5135 236.4928,-97.5135 255.5101,-97.5135 255.5101,-114.5135"/>
<text text-anchor="middle" x="246.0015" y="-103.3135" font-family="Times,serif" font-size="9.00" fill="#000000">J</text>
</g>
<!-- J&#45;&gt;LEFT -->
<g id="edge17" class="edge">
<title>J&#45;&gt;LEFT</title>
<path fill="none" stroke="#00ff00" stroke-width=".3467" stroke-dasharray="1,5" d="M254.8343,-97.3806C264.9933,-87.4516 282.145,-70.6882 296.7016,-56.4612"/>
<polygon fill="#00ff00" stroke="#00ff00" stroke-width=".3467" points="299.3212,-58.7949 304.0264,-49.3022 294.4284,-53.7888 299.3212,-58.7949"/>
</g>
<!-- J&#45;&gt;RIGHT -->
<g id="edge18" class="edge">
<title>J&#45;&gt;RIGHT</title>
<path fill="none" stroke="#00ff00" stroke-width=".1386" d="M246.0015,-97.3806C246.0015,-90.9046 246.0015,-81.5213 246.0015,-71.8306"/>
<polygon fill="#00ff00" stroke="#00ff00" stroke-width=".1386" points="249.5016,-71.7296 246.0015,-61.7297 242.5016,-71.7297 249.5016,-71.7296"/>
</g>
<!-- K -->
<g id="node11" class="node">
<title>K</title>
<polygon fill="#d3d3d3" stroke="#000000" points="296.5066,-114.5135 273.4963,-114.5135 273.4963,-97.5135 296.5066,-97.5135 296.5066,-114.5135"/>
<text text-anchor="middle" x="285.0015" y="-103.3135" font-family="Times,serif" font-size="9.00" fill="#000000">K</text>
</g>
<!-- K&#45;&gt;LEFT -->
<g id="edge19" class="edge">
<title>K&#45;&gt;LEFT</title>
<path fill="none" stroke="#ff0000" stroke-width=".161" stroke-dasharray="1,5" d="M289.3605,-97.3806C293.5239,-89.1352 300.0671,-76.1769 306.2804,-63.8718"/>
<polygon fill="#ff0000" stroke="#ff0000" stroke-width=".161" points="309.5394,-65.1825 310.9226,-54.6783 303.2908,-62.0273 309.5394,-65.1825"/>
</g>
<!-- K&#45;&gt;RIGHT -->
<g id="edge20" class="edge">
<title>K&#45;&gt;RIGHT</title>
<path fill="none" stroke="#00ff00" stroke-width=".2009" d="M280.5277,-97.3806C276.644,-89.8863 270.7425,-78.4985 264.9115,-67.2466"/>
<polygon fill="#00ff00" stroke="#00ff00" stroke-width=".2009" points="267.9988,-65.5971 260.2901,-58.3289 261.7837,-68.8179 267.9988,-65.5971"/>
</g>
<!-- L -->
<g id="node12" class="node">
<title>L</title>
<polygon fill="#d3d3d3" stroke="#000000" points="578.0049,-114.5135 555.998,-114.5135 555.998,-97.5135 578.0049,-97.5135 578.0049,-114.5135"/>
<text text-anchor="middle" x="567.0015" y="-103.3135" font-family="Times,serif" font-size="9.00" fill="#000000">L</text>
</g>
<!-- L&#45;&gt;LEFT -->
<g id="edge21" class="edge">
<title>L&#45;&gt;LEFT</title>
<path fill="none" stroke="#00ff00" stroke-width=".4017" stroke-dasharray="1,5" d="M556.0861,-101.1129C553.1613,-99.8719 549.9831,-98.5875 547.0015,-97.5135 481.4768,-73.9098 403.1283,-51.9496 358.6031,-40.0386"/>
<polygon fill="#00ff00" stroke="#00ff00" stroke-width=".4017" points="359.3995,-36.6289 348.836,-37.4421 357.6011,-43.3939 359.3995,-36.6289"/>
</g>
<!-- M -->
<g id="node13" class="node">
<title>M</title>
<polygon fill="#d3d3d3" stroke="#000000" points="338.0039,-114.5135 313.999,-114.5135 313.999,-97.5135 338.0039,-97.5135 338.0039,-114.5135"/>
<text text-anchor="middle" x="326.0015" y="-103.3135" font-family="Times,serif" font-size="9.00" fill="#000000">M</text>
</g>
<!-- M&#45;&gt;LEFT -->
<g id="edge22" class="edge">
<title>M&#45;&gt;LEFT</title>
<path fill="none" stroke="#00ff00" stroke-width=".1194" d="M325.6573,-97.3806C325.3604,-89.9315 324.9101,-78.6359 324.4642,-67.4504"/>
<polygon fill="#00ff00" stroke="#00ff00" stroke-width=".1194" points="327.9561,-67.1751 324.0605,-57.3225 320.9617,-67.454 327.9561,-67.1751"/>
</g>
<!-- M&#45;&gt;RIGHT -->
<g id="edge23" class="edge">
<title>M&#45;&gt;RIGHT</title>
<path fill="none" stroke="#00ff00" stroke-width=".3557" d="M316.8244,-97.3806C306.8987,-88.0433 290.5482,-72.6622 276.0569,-59.0301"/>
<polygon fill="#00ff00" stroke="#00ff00" stroke-width=".3557" points="278.3741,-56.4047 268.6922,-52.1021 273.5778,-61.5033 278.3741,-56.4047"/>
</g>
<!-- N -->
<g id="node14" class="node">
<title>N</title>
<polygon fill="#d3d3d3" stroke="#000000" points="618.5066,-114.5135 595.4963,-114.5135 595.4963,-97.5135 618.5066,-97.5135 618.5066,-114.5135"/>
<text text-anchor="middle" x="607.0015" y="-103.3135" font-family="Times,serif" font-size="9.00" fill="#000000">N</text>
</g>
<!-- N&#45;&gt;LEFT -->
<g id="edge24" class="edge">
<title>N&#45;&gt;LEFT</title>
<path fill="none" stroke="#00ff00" stroke-width=".3608" d="M595.6962,-100.8505C592.8877,-99.6678 589.8619,-98.4766 587.0015,-97.5135 507.1501,-70.6279 410.5289,-48.822 359.1886,-38.0536"/>
<polygon fill="#00ff00" stroke="#00ff00" stroke-width=".3608" points="359.7455,-34.5946 349.2426,-35.9871 358.3215,-41.4482 359.7455,-34.5946"/>
</g>
<!-- O -->
<g id="node15" class="node">
<title>O</title>
<polygon fill="#d3d3d3" stroke="#000000" points="378.5066,-114.5135 355.4963,-114.5135 355.4963,-97.5135 378.5066,-97.5135 378.5066,-114.5135"/>
<text text-anchor="middle" x="367.0015" y="-103.3135" font-family="Times,serif" font-size="9.00" fill="#000000">O</text>
</g>
<!-- O&#45;&gt;LEFT -->
<g id="edge25" class="edge">
<title>O&#45;&gt;LEFT</title>
<path fill="none" stroke="#ff0000" stroke-width=".1877" d="M361.9541,-97.3806C356.9771,-88.868 349.0631,-75.332 341.6645,-62.6776"/>
<polygon fill="#ff0000" stroke="#ff0000" stroke-width=".1877" points="344.4865,-60.5698 336.4177,-53.7035 338.4435,-64.1029 344.4865,-60.5698"/>
</g>
<!-- O&#45;&gt;RIGHT -->
<g id="edge26" class="edge">
<title>O&#45;&gt;RIGHT</title>
<path fill="none" stroke="#00ff00" stroke-width=".3544" d="M355.5898,-100.2905C339.809,-92.2373 310.599,-76.8264 287.0015,-61.5135 284.2396,-59.7213 281.4197,-57.8046 278.6161,-55.837"/>
<polygon fill="#00ff00" stroke="#00ff00" stroke-width=".3544" points="280.4857,-52.8699 270.329,-49.8543 276.3883,-58.5455 280.4857,-52.8699"/>
</g>
<!-- P -->
<g id="node16" class="node">
<title>P</title>
<polygon fill="#d3d3d3" stroke="#000000" points="417.5068,-114.5135 396.4961,-114.5135 396.4961,-97.5135 417.5068,-97.5135 417.5068,-114.5135"/>
<text text-anchor="middle" x="407.0015" y="-103.3135" font-family="Times,serif" font-size="9.00" fill="#000000">P</text>
</g>
<!-- P&#45;&gt;LEFT -->
<g id="edge27" class="edge">
<title>P&#45;&gt;LEFT</title>
<path fill="none" stroke="#ff0000" stroke-width=".2827" stroke-dasharray="1,5" d="M397.3656,-97.3806C386.0332,-87.2277 366.7248,-69.929 350.6228,-55.5031"/>
<polygon fill="#ff0000" stroke="#ff0000" stroke-width=".2827" points="352.8084,-52.762 343.0248,-48.6959 348.1374,-57.9756 352.8084,-52.762"/>
</g>
<!-- P&#45;&gt;RIGHT -->
<g id="edge28" class="edge">
<title>P&#45;&gt;RIGHT</title>
<path fill="none" stroke="#ff0000" stroke-width=".1954" d="M396.46,-101.4021C393.4216,-100.1087 390.0924,-98.7255 387.0015,-97.5135 343.0251,-80.2685 328.5777,-83.935 287.0015,-61.5135 284.1036,-59.9507 281.187,-58.1972 278.3175,-56.3407"/>
<polygon fill="#ff0000" stroke="#ff0000" stroke-width=".1954" points="280.1365,-53.3436 269.9166,-50.5502 276.1639,-59.1072 280.1365,-53.3436"/>
</g>
</g>
</svg>
