<?xml version="1.0" encoding="UTF-8" standalone="no"?>
<!DOCTYPE svg PUBLIC "-//W3C//DTD SVG 1.1//EN"
 "http://www.w3.org/Graphics/SVG/1.1/DTD/svg11.dtd">
<!-- Generated by graphviz version 2.40.1 (20161225.0304)
 -->
<!-- Title: %3 Pages: 1 -->
<svg width="626pt" height="123pt"
 viewBox="0.00 0.00 626.00 122.51" xmlns="http://www.w3.org/2000/svg" xmlns:xlink="http://www.w3.org/1999/xlink">
<g id="graph0" class="graph" transform="scale(1 1) rotate(0) translate(4 118.5135)">
<title>%3</title>
<polygon fill="#ffffff" stroke="transparent" points="-4,4 -4,-118.5135 621.9985,-118.5135 621.9985,4 -4,4"/>
<!-- A -->
<g id="node1" class="node">
<title>A</title>
<polygon fill="#d3d3d3" stroke="#000000" points="22.7549,-114.5135 -.2554,-114.5135 -.2554,-97.5135 22.7549,-97.5135 22.7549,-114.5135"/>
<text text-anchor="middle" x="11.2498" y="-103.3135" font-family="Times,serif" font-size="9.00" fill="#000000">A</text>
</g>
<!-- LEFT -->
<g id="node17" class="node">
<title>LEFT</title>
<ellipse fill="#add8e6" stroke="#000000" cx="111.2498" cy="-30.7567" rx="26.5303" ry="26.5303"/>
<text text-anchor="middle" x="111.2498" y="-28.0567" font-family="Times,serif" font-size="9.00" fill="#000000">LEFT</text>
</g>
<!-- A&#45;&gt;LEFT -->
<g id="edge1" class="edge">
<title>A&#45;&gt;LEFT</title>
<path fill="none" stroke="#00ff00" stroke-width=".233" d="M22.721,-97.3806C36.9959,-86.6378 61.9018,-67.8944 81.6676,-53.0193"/>
<polygon fill="#00ff00" stroke="#00ff00" stroke-width=".233" points="83.8925,-55.7253 89.7781,-46.9156 79.6833,-50.1322 83.8925,-55.7253"/>
</g>
<!-- B -->
<g id="node2" class="node">
<title>B</title>
<polygon fill="#d3d3d3" stroke="#000000" points="142.2527,-114.5135 120.2468,-114.5135 120.2468,-97.5135 142.2527,-97.5135 142.2527,-114.5135"/>
<text text-anchor="middle" x="131.2498" y="-103.3135" font-family="Times,serif" font-size="9.00" fill="#000000">B</text>
</g>
<!-- B&#45;&gt;LEFT -->
<g id="edge2" class="edge">
<title>B&#45;&gt;LEFT</title>
<path fill="none" stroke="#ff0000" stroke-width=".3242" d="M128.9555,-97.3806C126.9239,-89.7361 123.8157,-78.0405 120.7674,-66.5702"/>
<polygon fill="#ff0000" stroke="#ff0000" stroke-width=".3242" points="124.0837,-65.4214 118.1326,-56.6558 117.3185,-67.2193 124.0837,-65.4214"/>
</g>
<!-- RIGHT -->
<g id="node18" class="node">
<title>RIGHT</title>
<ellipse fill="#add8e6" stroke="#000000" cx="311.2498" cy="-30.7567" rx="30.5154" ry="30.5154"/>
<text text-anchor="middle" x="311.2498" y="-28.0567" font-family="Times,serif" font-size="9.00" fill="#000000">RIGHT</text>
</g>
<!-- B&#45;&gt;RIGHT -->
<g id="edge3" class="edge">
<title>B&#45;&gt;RIGHT</title>
<path fill="none" stroke="#ff0000" stroke-width=".237" d="M142.6668,-101.1459C145.4719,-99.9542 148.4681,-98.6848 151.2498,-97.5135 192.8545,-79.9933 240.629,-60.0881 273.0629,-46.6064"/>
<polygon fill="#ff0000" stroke="#ff0000" stroke-width=".237" points="274.7208,-49.7077 282.6123,-42.6384 272.0347,-43.2435 274.7208,-49.7077"/>
</g>
<!-- C -->
<g id="node3" class="node">
<title>C</title>
<polygon fill="#d3d3d3" stroke="#000000" points="382.2527,-114.5135 360.2468,-114.5135 360.2468,-97.5135 382.2527,-97.5135 382.2527,-114.5135"/>
<text text-anchor="middle" x="371.2498" y="-103.3135" font-family="Times,serif" font-size="9.00" fill="#000000">C</text>
</g>
<!-- C&#45;&gt;RIGHT -->
<g id="edge4" class="edge">
<title>C&#45;&gt;RIGHT</title>
<path fill="none" stroke="#ff0000" stroke-width=".3713" d="M364.367,-97.3806C357.6504,-88.9561 347.0112,-75.6115 337.0127,-63.0707"/>
<polygon fill="#ff0000" stroke="#ff0000" stroke-width=".3713" points="339.5532,-60.6426 330.5825,-55.0054 334.0798,-65.0064 339.5532,-60.6426"/>
</g>
<!-- D -->
<g id="node4" class="node">
<title>D</title>
<polygon fill="#d3d3d3" stroke="#000000" points="422.7549,-114.5135 399.7446,-114.5135 399.7446,-97.5135 422.7549,-97.5135 422.7549,-114.5135"/>
<text text-anchor="middle" x="411.2498" y="-103.3135" font-family="Times,serif" font-size="9.00" fill="#000000">D</text>
</g>
<!-- D&#45;&gt;RIGHT -->
<g id="edge5" class="edge">
<title>D&#45;&gt;RIGHT</title>
<path fill="none" stroke="#ff0000" stroke-width=".444" d="M399.7785,-97.3806C386.2824,-87.2238 363.2835,-69.9157 344.1101,-55.4864"/>
<polygon fill="#ff0000" stroke="#ff0000" stroke-width=".444" points="345.9874,-52.5188 335.8927,-49.3022 341.7782,-58.1119 345.9874,-52.5188"/>
</g>
<!-- E -->
<g id="node5" class="node">
<title>E</title>
<polygon fill="#d3d3d3" stroke="#000000" points="462.2532,-114.5135 440.2463,-114.5135 440.2463,-97.5135 462.2532,-97.5135 462.2532,-114.5135"/>
<text text-anchor="middle" x="451.2498" y="-103.3135" font-family="Times,serif" font-size="9.00" fill="#000000">E</text>
</g>
<!-- E&#45;&gt;RIGHT -->
<g id="edge6" class="edge">
<title>E&#45;&gt;RIGHT</title>
<path fill="none" stroke="#ff0000" stroke-width=".4261" d="M440.2642,-100.1082C420.5776,-89.5257 378.4726,-66.8922 347.6988,-50.3499"/>
<polygon fill="#ff0000" stroke="#ff0000" stroke-width=".4261" points="349.0148,-47.0836 338.5495,-45.4317 345.7004,-53.2493 349.0148,-47.0836"/>
</g>
<!-- F -->
<g id="node6" class="node">
<title>F</title>
<polygon fill="#d3d3d3" stroke="#000000" points="500.7551,-114.5135 479.7444,-114.5135 479.7444,-97.5135 500.7551,-97.5135 500.7551,-114.5135"/>
<text text-anchor="middle" x="490.2498" y="-103.3135" font-family="Times,serif" font-size="9.00" fill="#000000">F</text>
</g>
<!-- F&#45;&gt;RIGHT -->
<g id="edge7" class="edge">
<title>F&#45;&gt;RIGHT</title>
<path fill="none" stroke="#ff0000" stroke-width=".6889" d="M479.4193,-101.1112C476.754,-99.9206 473.9034,-98.6604 471.2498,-97.5135 429.8115,-79.6032 382.0084,-59.765 349.5223,-46.4056"/>
<polygon fill="#ff0000" stroke="#ff0000" stroke-width=".6889" points="350.5361,-43.0384 339.9561,-42.477 347.8768,-49.5136 350.5361,-43.0384"/>
</g>
<!-- G -->
<g id="node7" class="node">
<title>G</title>
<polygon fill="#d3d3d3" stroke="#000000" points="541.7549,-114.5135 518.7446,-114.5135 518.7446,-97.5135 541.7549,-97.5135 541.7549,-114.5135"/>
<text text-anchor="middle" x="530.2498" y="-103.3135" font-family="Times,serif" font-size="9.00" fill="#000000">G</text>
</g>
<!-- H -->
<g id="node8" class="node">
<title>H</title>
<polygon fill="#d3d3d3" stroke="#000000" points="62.7549,-114.5135 39.7446,-114.5135 39.7446,-97.5135 62.7549,-97.5135 62.7549,-114.5135"/>
<text text-anchor="middle" x="51.2498" y="-103.3135" font-family="Times,serif" font-size="9.00" fill="#000000">H</text>
</g>
<!-- H&#45;&gt;LEFT -->
<g id="edge8" class="edge">
<title>H&#45;&gt;LEFT</title>
<path fill="none" stroke="#00ff00" stroke-width=".5081" d="M58.1325,-97.3806C65.4229,-88.2364 77.3347,-73.2956 88.0324,-59.8778"/>
<polygon fill="#00ff00" stroke="#00ff00" stroke-width=".5081" points="90.9868,-61.7866 94.4841,-51.7856 85.5134,-57.4228 90.9868,-61.7866"/>
</g>
<!-- I -->
<g id="node9" class="node">
<title>I</title>
<polygon fill="#d3d3d3" stroke="#000000" points="578.7468,-114.5135 559.7527,-114.5135 559.7527,-97.5135 578.7468,-97.5135 578.7468,-114.5135"/>
<text text-anchor="middle" x="569.2498" y="-103.3135" font-family="Times,serif" font-size="9.00" fill="#000000">I</text>
</g>
<!-- J -->
<g id="node10" class="node">
<title>J</title>
<polygon fill="#d3d3d3" stroke="#000000" points="261.7584,-114.5135 242.7411,-114.5135 242.7411,-97.5135 261.7584,-97.5135 261.7584,-114.5135"/>
<text text-anchor="middle" x="252.2498" y="-103.3135" font-family="Times,serif" font-size="9.00" fill="#000000">J</text>
</g>
<!-- J&#45;&gt;RIGHT -->
<g id="edge9" class="edge">
<title>J&#45;&gt;RIGHT</title>
<path fill="none" stroke="#00ff00" stroke-width=".1386" d="M259.0178,-97.3806C265.6225,-88.9561 276.0844,-75.6115 285.9162,-63.0707"/>
<polygon fill="#00ff00" stroke="#00ff00" stroke-width=".1386" points="288.8238,-65.0346 292.2392,-55.0054 283.315,-60.7158 288.8238,-65.0346"/>
</g>
<!-- K -->
<g id="node11" class="node">
<title>K</title>
<polygon fill="#d3d3d3" stroke="#000000" points="302.7549,-114.5135 279.7446,-114.5135 279.7446,-97.5135 302.7549,-97.5135 302.7549,-114.5135"/>
<text text-anchor="middle" x="291.2498" y="-103.3135" font-family="Times,serif" font-size="9.00" fill="#000000">K</text>
</g>
<!-- K&#45;&gt;RIGHT -->
<g id="edge10" class="edge">
<title>K&#45;&gt;RIGHT</title>
<path fill="none" stroke="#00ff00" stroke-width=".2009" d="M293.544,-97.3806C295.3479,-90.5927 298.0007,-80.6108 300.7067,-70.4287"/>
<polygon fill="#00ff00" stroke="#00ff00" stroke-width=".2009" points="304.1054,-71.2664 303.2914,-60.7029 297.3403,-69.4685 304.1054,-71.2664"/>
</g>
<!-- L -->
<g id="node12" class="node">
<title>L</title>
<polygon fill="#d3d3d3" stroke="#000000" points="618.2532,-114.5135 596.2463,-114.5135 596.2463,-97.5135 618.2532,-97.5135 618.2532,-114.5135"/>
<text text-anchor="middle" x="607.2498" y="-103.3135" font-family="Times,serif" font-size="9.00" fill="#000000">L</text>
</g>
<!-- M -->
<g id="node13" class="node">
<title>M</title>
<polygon fill="#d3d3d3" stroke="#000000" points="184.2522,-114.5135 160.2473,-114.5135 160.2473,-97.5135 184.2522,-97.5135 184.2522,-114.5135"/>
<text text-anchor="middle" x="172.2498" y="-103.3135" font-family="Times,serif" font-size="9.00" fill="#000000">M</text>
</g>
<!-- M&#45;&gt;LEFT -->
<g id="edge11" class="edge">
<title>M&#45;&gt;LEFT</title>
<path fill="none" stroke="#00ff00" stroke-width=".1194" d="M165.2523,-97.3806C157.7886,-88.1724 145.5604,-73.0864 134.6261,-59.5965"/>
<polygon fill="#00ff00" stroke="#00ff00" stroke-width=".1194" points="137.0552,-57.035 128.0393,-51.4703 131.6172,-61.4428 137.0552,-57.035"/>
</g>
<!-- M&#45;&gt;RIGHT -->
<g id="edge12" class="edge">
<title>M&#45;&gt;RIGHT</title>
<path fill="none" stroke="#00ff00" stroke-width=".3557" d="M184.5851,-99.3349C204.6964,-88.4464 245.2981,-66.464 275.134,-50.3103"/>
<polygon fill="#00ff00" stroke="#00ff00" stroke-width=".3557" points="276.8857,-53.342 284.0132,-45.503 273.5529,-47.1863 276.8857,-53.342"/>
</g>
<!-- N -->
<g id="node14" class="node">
<title>N</title>
<polygon fill="#d3d3d3" stroke="#000000" points="102.7549,-114.5135 79.7446,-114.5135 79.7446,-97.5135 102.7549,-97.5135 102.7549,-114.5135"/>
<text text-anchor="middle" x="91.2498" y="-103.3135" font-family="Times,serif" font-size="9.00" fill="#000000">N</text>
</g>
<!-- N&#45;&gt;LEFT -->
<g id="edge13" class="edge">
<title>N&#45;&gt;LEFT</title>
<path fill="none" stroke="#00ff00" stroke-width=".3608" d="M93.544,-97.3806C95.5756,-89.7361 98.6838,-78.0405 101.7321,-66.5702"/>
<polygon fill="#00ff00" stroke="#00ff00" stroke-width=".3608" points="105.181,-67.2193 104.3669,-56.6558 98.4158,-65.4214 105.181,-67.2193"/>
</g>
<!-- O -->
<g id="node15" class="node">
<title>O</title>
<polygon fill="#d3d3d3" stroke="#000000" points="224.7549,-114.5135 201.7446,-114.5135 201.7446,-97.5135 224.7549,-97.5135 224.7549,-114.5135"/>
<text text-anchor="middle" x="213.2498" y="-103.3135" font-family="Times,serif" font-size="9.00" fill="#000000">O</text>
</g>
<!-- O&#45;&gt;LEFT -->
<g id="edge14" class="edge">
<title>O&#45;&gt;LEFT</title>
<path fill="none" stroke="#ff0000" stroke-width=".1877" d="M201.9442,-97.6721C187.3561,-86.9088 161.428,-67.7788 141.0204,-52.7218"/>
<polygon fill="#ff0000" stroke="#ff0000" stroke-width=".1877" points="143.0686,-49.8835 132.9437,-46.7628 138.9126,-55.5163 143.0686,-49.8835"/>
</g>
<!-- O&#45;&gt;RIGHT -->
<g id="edge15" class="edge">
<title>O&#45;&gt;RIGHT</title>
<path fill="none" stroke="#00ff00" stroke-width=".3544" d="M224.4916,-97.3806C237.6302,-87.2911 259.9585,-70.1446 278.6728,-55.7734"/>
<polygon fill="#00ff00" stroke="#00ff00" stroke-width=".3544" points="280.9025,-58.4742 286.702,-49.6076 276.639,-52.9223 280.9025,-58.4742"/>
</g>
<!-- P -->
<g id="node16" class="node">
<title>P</title>
<polygon fill="#d3d3d3" stroke="#000000" points="341.7551,-114.5135 320.7444,-114.5135 320.7444,-97.5135 341.7551,-97.5135 341.7551,-114.5135"/>
<text text-anchor="middle" x="331.2498" y="-103.3135" font-family="Times,serif" font-size="9.00" fill="#000000">P</text>
</g>
<!-- P&#45;&gt;RIGHT -->
<g id="edge16" class="edge">
<title>P&#45;&gt;RIGHT</title>
<path fill="none" stroke="#ff0000" stroke-width=".1954" d="M328.9555,-97.3806C327.1516,-90.5927 324.4988,-80.6108 321.7929,-70.4287"/>
<polygon fill="#ff0000" stroke="#ff0000" stroke-width=".1954" points="325.1592,-69.4685 319.2082,-60.7029 318.3941,-71.2664 325.1592,-69.4685"/>
</g>
</g>
</svg>
