<?xml version="1.0" encoding="UTF-8" standalone="no"?>
<!DOCTYPE svg PUBLIC "-//W3C//DTD SVG 1.1//EN"
 "http://www.w3.org/Graphics/SVG/1.1/DTD/svg11.dtd">
<!-- Generated by graphviz version 2.40.1 (20161225.0304)
 -->
<!-- Title: %3 Pages: 1 -->
<svg width="626pt" height="123pt"
 viewBox="0.00 0.00 626.25 122.51" xmlns="http://www.w3.org/2000/svg" xmlns:xlink="http://www.w3.org/1999/xlink">
<g id="graph0" class="graph" transform="scale(1 1) rotate(0) translate(4 118.5135)">
<title>%3</title>
<polygon fill="#ffffff" stroke="transparent" points="-4,4 -4,-118.5135 622.251,-118.5135 622.251,4 -4,4"/>
<!-- A -->
<g id="node1" class="node">
<title>A</title>
<polygon fill="#d3d3d3" stroke="#000000" points="64.5064,-114.5135 41.496,-114.5135 41.496,-97.5135 64.5064,-97.5135 64.5064,-114.5135"/>
<text text-anchor="middle" x="53.0012" y="-103.3135" font-family="Times,serif" font-size="9.00" fill="#000000">A</text>
</g>
<!-- LEFT -->
<g id="node17" class="node">
<title>LEFT</title>
<ellipse fill="#add8e6" stroke="#000000" cx="213.0012" cy="-30.7567" rx="26.5303" ry="26.5303"/>
<text text-anchor="middle" x="213.0012" y="-28.0567" font-family="Times,serif" font-size="9.00" fill="#000000">LEFT</text>
</g>
<!-- A&#45;&gt;LEFT -->
<g id="edge1" class="edge">
<title>A&#45;&gt;LEFT</title>
<path fill="none" stroke="#ff0000" stroke-width=".2083" d="M64.2521,-100.7215C87.8895,-89.6036 143.5036,-63.4453 179.6294,-46.4533"/>
<polygon fill="#ff0000" stroke="#ff0000" stroke-width=".2083" points="181.2513,-49.5583 188.8106,-42.1349 178.2719,-43.224 181.2513,-49.5583"/>
</g>
<!-- RIGHT -->
<g id="node18" class="node">
<title>RIGHT</title>
<ellipse fill="#add8e6" stroke="#000000" cx="312.0012" cy="-30.7567" rx="30.5154" ry="30.5154"/>
<text text-anchor="middle" x="312.0012" y="-28.0567" font-family="Times,serif" font-size="9.00" fill="#000000">RIGHT</text>
</g>
<!-- A&#45;&gt;RIGHT -->
<g id="edge2" class="edge">
<title>A&#45;&gt;RIGHT</title>
<path fill="none" stroke="#00ff00" stroke-width=".1557" d="M64.2762,-100.7571C67.0856,-99.5772 70.1194,-98.4106 73.0012,-97.5135 149.234,-73.7801 173.4149,-87.2318 249.0012,-61.5135 257.9708,-58.4615 267.3107,-54.4218 275.9663,-50.2772"/>
<polygon fill="#00ff00" stroke="#00ff00" stroke-width=".1557" points="277.6342,-53.3569 285.0401,-45.7804 274.5258,-47.0848 277.6342,-53.3569"/>
</g>
<!-- B -->
<g id="node2" class="node">
<title>B</title>
<polygon fill="#d3d3d3" stroke="#000000" points="104.0042,-114.5135 81.9983,-114.5135 81.9983,-97.5135 104.0042,-97.5135 104.0042,-114.5135"/>
<text text-anchor="middle" x="93.0012" y="-103.3135" font-family="Times,serif" font-size="9.00" fill="#000000">B</text>
</g>
<!-- B&#45;&gt;LEFT -->
<g id="edge3" class="edge">
<title>B&#45;&gt;LEFT</title>
<path fill="none" stroke="#00ff00" stroke-width=".1806" d="M104.0754,-99.0684C121.5145,-88.1316 156.0159,-66.4944 181.5376,-50.4888"/>
<polygon fill="#00ff00" stroke="#00ff00" stroke-width=".1806" points="183.5354,-53.3673 190.1477,-45.0891 179.8163,-47.437 183.5354,-53.3673"/>
</g>
<!-- B&#45;&gt;RIGHT -->
<g id="edge4" class="edge">
<title>B&#45;&gt;RIGHT</title>
<path fill="none" stroke="#ff0000" stroke-width=".5771" d="M104.3142,-100.873C107.1224,-99.6896 110.1462,-98.4924 113.0012,-97.5135 172.1472,-77.2333 190.4057,-83.333 249.0012,-61.5135 257.8802,-58.2071 267.1846,-54.0677 275.8346,-49.9075"/>
<polygon fill="#ff0000" stroke="#ff0000" stroke-width=".5771" points="277.497,-52.9902 284.913,-45.4236 274.397,-46.714 277.497,-52.9902"/>
</g>
<!-- C -->
<g id="node3" class="node">
<title>C</title>
<polygon fill="#d3d3d3" stroke="#000000" points="144.0042,-114.5135 121.9983,-114.5135 121.9983,-97.5135 144.0042,-97.5135 144.0042,-114.5135"/>
<text text-anchor="middle" x="133.0012" y="-103.3135" font-family="Times,serif" font-size="9.00" fill="#000000">C</text>
</g>
<!-- C&#45;&gt;LEFT -->
<g id="edge5" class="edge">
<title>C&#45;&gt;LEFT</title>
<path fill="none" stroke="#00ff00" stroke-width=".51" d="M142.1782,-97.3806C152.8029,-87.3858 170.7893,-70.4659 185.9768,-56.1789"/>
<polygon fill="#00ff00" stroke="#00ff00" stroke-width=".51" points="188.7244,-58.3995 193.6099,-48.9983 183.9281,-53.3009 188.7244,-58.3995"/>
</g>
<!-- C&#45;&gt;RIGHT -->
<g id="edge6" class="edge">
<title>C&#45;&gt;RIGHT</title>
<path fill="none" stroke="#ff0000" stroke-width=".2828" d="M144.3886,-101.0736C147.1946,-99.8841 150.1986,-98.6339 153.0012,-97.5135 195.3132,-80.5978 207.1459,-79.5296 249.0012,-61.5135 257.6218,-57.8028 266.7649,-53.5371 275.3338,-49.3873"/>
<polygon fill="#ff0000" stroke="#ff0000" stroke-width=".2828" points="276.9184,-52.5085 284.3545,-44.9616 273.8352,-46.2241 276.9184,-52.5085"/>
</g>
<!-- D -->
<g id="node4" class="node">
<title>D</title>
<polygon fill="#d3d3d3" stroke="#000000" points="184.5064,-114.5135 161.496,-114.5135 161.496,-97.5135 184.5064,-97.5135 184.5064,-114.5135"/>
<text text-anchor="middle" x="173.0012" y="-103.3135" font-family="Times,serif" font-size="9.00" fill="#000000">D</text>
</g>
<!-- D&#45;&gt;LEFT -->
<g id="edge7" class="edge">
<title>D&#45;&gt;LEFT</title>
<path fill="none" stroke="#ff0000" stroke-width=".1065" d="M177.5897,-97.3806C182.0482,-88.9923 189.0994,-75.7261 195.74,-63.2324"/>
<polygon fill="#ff0000" stroke="#ff0000" stroke-width=".1065" points="198.857,-64.8252 200.4599,-54.3523 192.6759,-61.5398 198.857,-64.8252"/>
</g>
<!-- D&#45;&gt;RIGHT -->
<g id="edge8" class="edge">
<title>D&#45;&gt;RIGHT</title>
<path fill="none" stroke="#ff0000" stroke-width=".4783" d="M184.3762,-99.8549C204.1195,-89.1656 245.52,-66.7507 275.8343,-50.3381"/>
<polygon fill="#ff0000" stroke="#ff0000" stroke-width=".4783" points="277.7225,-53.2958 284.85,-45.4568 274.3897,-47.1401 277.7225,-53.2958"/>
</g>
<!-- E -->
<g id="node5" class="node">
<title>E</title>
<polygon fill="#d3d3d3" stroke="#000000" points="224.0047,-114.5135 201.9978,-114.5135 201.9978,-97.5135 224.0047,-97.5135 224.0047,-114.5135"/>
<text text-anchor="middle" x="213.0012" y="-103.3135" font-family="Times,serif" font-size="9.00" fill="#000000">E</text>
</g>
<!-- E&#45;&gt;LEFT -->
<g id="edge9" class="edge">
<title>E&#45;&gt;LEFT</title>
<path fill="none" stroke="#ff0000" stroke-width=".218" d="M213.0012,-97.3806C213.0012,-89.9315 213.0012,-78.6359 213.0012,-67.4504"/>
<polygon fill="#ff0000" stroke="#ff0000" stroke-width=".218" points="216.5013,-67.3225 213.0012,-57.3225 209.5013,-67.3226 216.5013,-67.3225"/>
</g>
<!-- E&#45;&gt;RIGHT -->
<g id="edge10" class="edge">
<title>E&#45;&gt;RIGHT</title>
<path fill="none" stroke="#ff0000" stroke-width=".5127" d="M223.9742,-97.6721C237.2181,-87.6045 260.0914,-70.2169 279.2024,-55.6893"/>
<polygon fill="#ff0000" stroke="#ff0000" stroke-width=".5127" points="281.5533,-58.2988 287.3961,-49.4607 277.317,-52.7261 281.5533,-58.2988"/>
</g>
<!-- F -->
<g id="node6" class="node">
<title>F</title>
<polygon fill="#d3d3d3" stroke="#000000" points="262.5066,-114.5135 241.4958,-114.5135 241.4958,-97.5135 262.5066,-97.5135 262.5066,-114.5135"/>
<text text-anchor="middle" x="252.0012" y="-103.3135" font-family="Times,serif" font-size="9.00" fill="#000000">F</text>
</g>
<!-- F&#45;&gt;LEFT -->
<g id="edge11" class="edge">
<title>F&#45;&gt;LEFT</title>
<path fill="none" stroke="#ff0000" stroke-width=".4368" d="M247.5274,-97.3806C243.1804,-88.9923 236.3055,-75.7261 229.8309,-63.2324"/>
<polygon fill="#ff0000" stroke="#ff0000" stroke-width=".4368" points="232.9377,-61.6205 225.229,-54.3523 226.7227,-64.8413 232.9377,-61.6205"/>
</g>
<!-- F&#45;&gt;RIGHT -->
<g id="edge12" class="edge">
<title>F&#45;&gt;RIGHT</title>
<path fill="none" stroke="#ff0000" stroke-width=".2713" d="M258.884,-97.3806C265.6006,-88.9561 276.2398,-75.6115 286.2383,-63.0707"/>
<polygon fill="#ff0000" stroke="#ff0000" stroke-width=".2713" points="289.1712,-65.0064 292.6685,-55.0054 283.6978,-60.6426 289.1712,-65.0064"/>
</g>
<!-- G -->
<g id="node7" class="node">
<title>G</title>
<polygon fill="#d3d3d3" stroke="#000000" points="303.5064,-114.5135 280.496,-114.5135 280.496,-97.5135 303.5064,-97.5135 303.5064,-114.5135"/>
<text text-anchor="middle" x="292.0012" y="-103.3135" font-family="Times,serif" font-size="9.00" fill="#000000">G</text>
</g>
<!-- G&#45;&gt;LEFT -->
<g id="edge13" class="edge">
<title>G&#45;&gt;LEFT</title>
<path fill="none" stroke="#00ff00" stroke-width=".2345" d="M282.9389,-97.3806C272.516,-87.4516 254.9189,-70.6882 239.9842,-56.4612"/>
<polygon fill="#00ff00" stroke="#00ff00" stroke-width=".2345" points="242.1238,-53.6655 232.4691,-49.3022 237.2956,-58.7339 242.1238,-53.6655"/>
</g>
<!-- G&#45;&gt;RIGHT -->
<g id="edge14" class="edge">
<title>G&#45;&gt;RIGHT</title>
<path fill="none" stroke="#00ff00" stroke-width=".2426" stroke-dasharray="1,5" d="M294.2955,-97.3806C296.0994,-90.5927 298.7522,-80.6108 301.4581,-70.4287"/>
<polygon fill="#00ff00" stroke="#00ff00" stroke-width=".2426" points="304.8569,-71.2664 304.0428,-60.7029 298.0917,-69.4685 304.8569,-71.2664"/>
</g>
<!-- H -->
<g id="node8" class="node">
<title>H</title>
<polygon fill="#d3d3d3" stroke="#000000" points="343.5064,-114.5135 320.496,-114.5135 320.496,-97.5135 343.5064,-97.5135 343.5064,-114.5135"/>
<text text-anchor="middle" x="332.0012" y="-103.3135" font-family="Times,serif" font-size="9.00" fill="#000000">H</text>
</g>
<!-- H&#45;&gt;LEFT -->
<g id="edge15" class="edge">
<title>H&#45;&gt;LEFT</title>
<path fill="none" stroke="#00ff00" stroke-width=".1316" stroke-dasharray="1,5" d="M320.591,-98.7975C303.1063,-87.74 269.0732,-66.2172 243.9462,-50.3266"/>
<polygon fill="#00ff00" stroke="#00ff00" stroke-width=".1316" points="245.7941,-47.3541 235.4716,-44.9672 242.0526,-53.2703 245.7941,-47.3541"/>
</g>
<!-- H&#45;&gt;RIGHT -->
<g id="edge16" class="edge">
<title>H&#45;&gt;RIGHT</title>
<path fill="none" stroke="#00ff00" stroke-width=".553" d="M329.707,-97.3806C327.9031,-90.5927 325.2503,-80.6108 322.5443,-70.4287"/>
<polygon fill="#00ff00" stroke="#00ff00" stroke-width=".553" points="325.9107,-69.4685 319.9596,-60.7029 319.1455,-71.2664 325.9107,-69.4685"/>
</g>
<!-- I -->
<g id="node9" class="node">
<title>I</title>
<polygon fill="#d3d3d3" stroke="#000000" points="380.4983,-114.5135 361.5042,-114.5135 361.5042,-97.5135 380.4983,-97.5135 380.4983,-114.5135"/>
<text text-anchor="middle" x="371.0012" y="-103.3135" font-family="Times,serif" font-size="9.00" fill="#000000">I</text>
</g>
<!-- I&#45;&gt;LEFT -->
<g id="edge17" class="edge">
<title>I&#45;&gt;LEFT</title>
<path fill="none" stroke="#00ff00" stroke-width=".4779" d="M361.2967,-101.6696C337.2162,-90.8885 276.3461,-63.6203 272.0012,-61.5135 263.2996,-57.2941 253.9795,-52.5451 245.376,-48.0642"/>
<polygon fill="#00ff00" stroke="#00ff00" stroke-width=".4779" points="246.8658,-44.8933 236.3847,-43.3448 243.6125,-51.0914 246.8658,-44.8933"/>
</g>
<!-- I&#45;&gt;RIGHT -->
<g id="edge18" class="edge">
<title>I&#45;&gt;RIGHT</title>
<path fill="none" stroke="#ff0000" stroke-width=".5147" d="M364.2332,-97.3806C357.6285,-88.9561 347.1666,-75.6115 337.3348,-63.0707"/>
<polygon fill="#ff0000" stroke="#ff0000" stroke-width=".5147" points="339.936,-60.7158 331.0118,-55.0054 334.4271,-65.0346 339.936,-60.7158"/>
</g>
<!-- J -->
<g id="node10" class="node">
<title>J</title>
<polygon fill="#d3d3d3" stroke="#000000" points="417.5099,-114.5135 398.4926,-114.5135 398.4926,-97.5135 417.5099,-97.5135 417.5099,-114.5135"/>
<text text-anchor="middle" x="408.0012" y="-103.3135" font-family="Times,serif" font-size="9.00" fill="#000000">J</text>
</g>
<!-- J&#45;&gt;LEFT -->
<g id="edge19" class="edge">
<title>J&#45;&gt;LEFT</title>
<path fill="none" stroke="#00ff00" stroke-width=".2482" d="M398.4305,-101.4581C395.4422,-100.1101 392.1132,-98.6833 389.0012,-97.5135 338.0749,-78.369 322.3316,-82.1738 272.0012,-61.5135 263.055,-57.8411 253.6503,-53.2813 245.0437,-48.8073"/>
<polygon fill="#00ff00" stroke="#00ff00" stroke-width=".2482" points="246.5489,-45.6436 236.0773,-44.0323 243.2585,-51.8221 246.5489,-45.6436"/>
</g>
<!-- J&#45;&gt;RIGHT -->
<g id="edge20" class="edge">
<title>J&#45;&gt;RIGHT</title>
<path fill="none" stroke="#ff0000" stroke-width=".1828" d="M398.4454,-98.5224C385.9691,-88.7419 363.4924,-71.1219 344.5856,-56.3004"/>
<polygon fill="#ff0000" stroke="#ff0000" stroke-width=".1828" points="346.5,-53.3539 336.4706,-49.9389 342.1813,-58.8629 346.5,-53.3539"/>
</g>
<!-- K -->
<g id="node11" class="node">
<title>K</title>
<polygon fill="#d3d3d3" stroke="#000000" points="538.5064,-114.5135 515.496,-114.5135 515.496,-97.5135 538.5064,-97.5135 538.5064,-114.5135"/>
<text text-anchor="middle" x="527.0012" y="-103.3135" font-family="Times,serif" font-size="9.00" fill="#000000">K</text>
</g>
<!-- K&#45;&gt;RIGHT -->
<g id="edge21" class="edge">
<title>K&#45;&gt;RIGHT</title>
<path fill="none" stroke="#00ff00" stroke-width=".1593" d="M515.6364,-101.016C512.8298,-99.8282 509.8197,-98.5932 507.0012,-97.5135 453.5557,-77.0384 390.7744,-56.0894 351.186,-43.2513"/>
<polygon fill="#00ff00" stroke="#00ff00" stroke-width=".1593" points="352.2324,-39.9113 341.6406,-40.1673 350.0803,-46.5723 352.2324,-39.9113"/>
</g>
<!-- L -->
<g id="node12" class="node">
<title>L</title>
<polygon fill="#d3d3d3" stroke="#000000" points="578.0047,-114.5135 555.9978,-114.5135 555.9978,-97.5135 578.0047,-97.5135 578.0047,-114.5135"/>
<text text-anchor="middle" x="567.0012" y="-103.3135" font-family="Times,serif" font-size="9.00" fill="#000000">L</text>
</g>
<!-- L&#45;&gt;RIGHT -->
<g id="edge22" class="edge">
<title>L&#45;&gt;RIGHT</title>
<path fill="none" stroke="#ff0000" stroke-width=".2173" d="M556.0952,-101.0869C553.1703,-99.8461 549.9897,-98.5683 547.0012,-97.5135 479.5598,-73.7081 399.0028,-52.2992 351.8704,-40.4584"/>
<polygon fill="#ff0000" stroke="#ff0000" stroke-width=".2173" points="352.6034,-37.0341 342.0535,-38.0093 350.9089,-43.8259 352.6034,-37.0341"/>
</g>
<!-- M -->
<g id="node13" class="node">
<title>M</title>
<polygon fill="#d3d3d3" stroke="#000000" points="24.0037,-114.5135 -.0012,-114.5135 -.0012,-97.5135 24.0037,-97.5135 24.0037,-114.5135"/>
<text text-anchor="middle" x="12.0012" y="-103.3135" font-family="Times,serif" font-size="9.00" fill="#000000">M</text>
</g>
<!-- M&#45;&gt;LEFT -->
<g id="edge23" class="edge">
<title>M&#45;&gt;LEFT</title>
<path fill="none" stroke="#ff0000" stroke-width=".1758" d="M24.414,-100.9188C27.2311,-99.7822 30.2142,-98.5941 33.0012,-97.5135 83.2786,-78.0199 141.9003,-56.5025 178.2379,-43.3052"/>
<polygon fill="#ff0000" stroke="#ff0000" stroke-width=".1758" points="179.6628,-46.5116 187.8706,-39.8122 177.2765,-39.9309 179.6628,-46.5116"/>
</g>
<!-- M&#45;&gt;RIGHT -->
<g id="edge24" class="edge">
<title>M&#45;&gt;RIGHT</title>
<path fill="none" stroke="#00ff00" stroke-width=".2232" d="M24.2806,-100.5195C27.1046,-99.4036 30.1242,-98.3248 33.0012,-97.5135 126.6717,-71.0969 156.3059,-91.1712 249.0012,-61.5135 258.0252,-58.6262 267.3864,-54.651 276.0453,-50.5165"/>
<polygon fill="#00ff00" stroke="#00ff00" stroke-width=".2232" points="277.7169,-53.5942 285.1163,-46.0114 274.6032,-47.3248 277.7169,-53.5942"/>
</g>
<!-- N -->
<g id="node14" class="node">
<title>N</title>
<polygon fill="#d3d3d3" stroke="#000000" points="618.5064,-114.5135 595.496,-114.5135 595.496,-97.5135 618.5064,-97.5135 618.5064,-114.5135"/>
<text text-anchor="middle" x="607.0012" y="-103.3135" font-family="Times,serif" font-size="9.00" fill="#000000">N</text>
</g>
<!-- N&#45;&gt;RIGHT -->
<g id="edge25" class="edge">
<title>N&#45;&gt;RIGHT</title>
<path fill="none" stroke="#00ff00" stroke-width=".4687" d="M595.7024,-100.8312C592.8937,-99.649 589.8662,-98.4629 587.0012,-97.5135 505.2922,-70.4352 406.6142,-49.1524 352.4681,-38.4159"/>
<polygon fill="#00ff00" stroke="#00ff00" stroke-width=".4687" points="353.0574,-34.9648 342.5705,-36.4727 351.7088,-41.8337 353.0574,-34.9648"/>
</g>
<!-- O -->
<g id="node15" class="node">
<title>O</title>
<polygon fill="#d3d3d3" stroke="#000000" points="458.5064,-114.5135 435.496,-114.5135 435.496,-97.5135 458.5064,-97.5135 458.5064,-114.5135"/>
<text text-anchor="middle" x="447.0012" y="-103.3135" font-family="Times,serif" font-size="9.00" fill="#000000">O</text>
</g>
<!-- O&#45;&gt;RIGHT -->
<g id="edge26" class="edge">
<title>O&#45;&gt;RIGHT</title>
<path fill="none" stroke="#00ff00" stroke-width=".3762" d="M435.4912,-99.5971C416.3316,-88.9164 377.1278,-67.062 348.0057,-50.8277"/>
<polygon fill="#00ff00" stroke="#00ff00" stroke-width=".3762" points="349.3816,-47.5877 338.9429,-45.7756 345.9732,-53.7018 349.3816,-47.5877"/>
</g>
<!-- P -->
<g id="node16" class="node">
<title>P</title>
<polygon fill="#d3d3d3" stroke="#000000" points="497.5066,-114.5135 476.4958,-114.5135 476.4958,-97.5135 497.5066,-97.5135 497.5066,-114.5135"/>
<text text-anchor="middle" x="487.0012" y="-103.3135" font-family="Times,serif" font-size="9.00" fill="#000000">P</text>
</g>
<!-- P&#45;&gt;RIGHT -->
<g id="edge27" class="edge">
<title>P&#45;&gt;RIGHT</title>
<path fill="none" stroke="#ff0000" stroke-width=".4686" d="M476.3176,-101.4191C451.7225,-90.8423 390.1162,-64.3492 349.7212,-46.9778"/>
<polygon fill="#ff0000" stroke="#ff0000" stroke-width=".4686" points="351.0143,-43.724 340.445,-42.9886 348.2488,-50.1546 351.0143,-43.724"/>
</g>
</g>
</svg>
