<?xml version="1.0" encoding="UTF-8" standalone="no"?>
<!DOCTYPE svg PUBLIC "-//W3C//DTD SVG 1.1//EN"
 "http://www.w3.org/Graphics/SVG/1.1/DTD/svg11.dtd">
<!-- Generated by graphviz version 2.40.1 (20161225.0304)
 -->
<!-- Title: %3 Pages: 1 -->
<svg width="625pt" height="123pt"
 viewBox="0.00 0.00 624.75 122.51" xmlns="http://www.w3.org/2000/svg" xmlns:xlink="http://www.w3.org/1999/xlink">
<g id="graph0" class="graph" transform="scale(1 1) rotate(0) translate(4 118.5135)">
<title>%3</title>
<polygon fill="#ffffff" stroke="transparent" points="-4,4 -4,-118.5135 620.7524,-118.5135 620.7524,4 -4,4"/>
<!-- A -->
<g id="node1" class="node">
<title>A</title>
<polygon fill="#d3d3d3" stroke="#000000" points="62.7549,-114.5135 39.7446,-114.5135 39.7446,-97.5135 62.7549,-97.5135 62.7549,-114.5135"/>
<text text-anchor="middle" x="51.2498" y="-103.3135" font-family="Times,serif" font-size="9.00" fill="#000000">A</text>
</g>
<!-- LEFT -->
<g id="node17" class="node">
<title>LEFT</title>
<ellipse fill="#add8e6" stroke="#000000" cx="191.2498" cy="-30.7567" rx="26.5303" ry="26.5303"/>
<text text-anchor="middle" x="191.2498" y="-28.0567" font-family="Times,serif" font-size="9.00" fill="#000000">LEFT</text>
</g>
<!-- A&#45;&gt;LEFT -->
<g id="edge1" class="edge">
<title>A&#45;&gt;LEFT</title>
<path fill="none" stroke="#ff0000" stroke-width=".2083" d="M62.7065,-99.8549C83.4204,-88.7202 127.803,-64.8624 158.5786,-48.319"/>
<polygon fill="#ff0000" stroke="#ff0000" stroke-width=".2083" points="160.5007,-51.2595 167.6516,-43.4419 157.1863,-45.0939 160.5007,-51.2595"/>
</g>
<!-- RIGHT -->
<g id="node18" class="node">
<title>RIGHT</title>
<ellipse fill="#add8e6" stroke="#000000" cx="325.2498" cy="-30.7567" rx="30.5154" ry="30.5154"/>
<text text-anchor="middle" x="325.2498" y="-28.0567" font-family="Times,serif" font-size="9.00" fill="#000000">RIGHT</text>
</g>
<!-- A&#45;&gt;RIGHT -->
<g id="edge2" class="edge">
<title>A&#45;&gt;RIGHT</title>
<path fill="none" stroke="#00ff00" stroke-width=".1557" d="M62.541,-100.8081C65.3499,-99.6267 68.3794,-98.4466 71.2498,-97.5135 138.9188,-75.5133 158.5865,-80.1809 227.2498,-61.5135 246.8502,-56.1847 268.4101,-49.5088 286.3054,-43.7396"/>
<polygon fill="#00ff00" stroke="#00ff00" stroke-width=".1557" points="287.4063,-47.0621 295.8344,-40.6421 285.2422,-40.405 287.4063,-47.0621"/>
</g>
<!-- B -->
<g id="node2" class="node">
<title>B</title>
<polygon fill="#d3d3d3" stroke="#000000" points="102.2527,-114.5135 80.2468,-114.5135 80.2468,-97.5135 102.2527,-97.5135 102.2527,-114.5135"/>
<text text-anchor="middle" x="91.2498" y="-103.3135" font-family="Times,serif" font-size="9.00" fill="#000000">B</text>
</g>
<!-- B&#45;&gt;LEFT -->
<g id="edge3" class="edge">
<title>B&#45;&gt;LEFT</title>
<path fill="none" stroke="#00ff00" stroke-width=".1806" d="M102.3336,-97.6721C116.5721,-86.9567 141.8296,-67.9487 161.7958,-52.9228"/>
<polygon fill="#00ff00" stroke="#00ff00" stroke-width=".1806" points="164.0956,-55.5725 169.9811,-46.7628 159.8864,-49.9794 164.0956,-55.5725"/>
</g>
<!-- B&#45;&gt;RIGHT -->
<g id="edge4" class="edge">
<title>B&#45;&gt;RIGHT</title>
<path fill="none" stroke="#ff0000" stroke-width=".5771" d="M102.5928,-100.958C105.4002,-99.772 108.416,-98.5524 111.2498,-97.5135 161.9324,-78.9327 175.7198,-77.5956 227.2498,-61.5135 246.6393,-55.4621 268.176,-48.7067 286.1104,-43.0717"/>
<polygon fill="#ff0000" stroke="#ff0000" stroke-width=".5771" points="287.1765,-46.4056 295.6669,-40.0681 285.0775,-39.7276 287.1765,-46.4056"/>
</g>
<!-- C -->
<g id="node3" class="node">
<title>C</title>
<polygon fill="#d3d3d3" stroke="#000000" points="142.2527,-114.5135 120.2468,-114.5135 120.2468,-97.5135 142.2527,-97.5135 142.2527,-114.5135"/>
<text text-anchor="middle" x="131.2498" y="-103.3135" font-family="Times,serif" font-size="9.00" fill="#000000">C</text>
</g>
<!-- C&#45;&gt;LEFT -->
<g id="edge5" class="edge">
<title>C&#45;&gt;LEFT</title>
<path fill="none" stroke="#00ff00" stroke-width=".51" d="M138.1325,-97.3806C145.4229,-88.2364 157.3347,-73.2956 168.0324,-59.8778"/>
<polygon fill="#00ff00" stroke="#00ff00" stroke-width=".51" points="170.9868,-61.7866 174.4841,-51.7856 165.5134,-57.4228 170.9868,-61.7866"/>
</g>
<!-- C&#45;&gt;RIGHT -->
<g id="edge6" class="edge">
<title>C&#45;&gt;RIGHT</title>
<path fill="none" stroke="#ff0000" stroke-width=".2828" d="M142.6432,-101.0886C145.449,-99.8987 148.4514,-98.6445 151.2498,-97.5135 197.5892,-78.7839 251.3609,-58.3506 286.7222,-45.0895"/>
<polygon fill="#ff0000" stroke="#ff0000" stroke-width=".2828" points="288.0479,-48.3305 296.1862,-41.5468 285.5938,-41.7748 288.0479,-48.3305"/>
</g>
<!-- D -->
<g id="node4" class="node">
<title>D</title>
<polygon fill="#d3d3d3" stroke="#000000" points="182.7549,-114.5135 159.7446,-114.5135 159.7446,-97.5135 182.7549,-97.5135 182.7549,-114.5135"/>
<text text-anchor="middle" x="171.2498" y="-103.3135" font-family="Times,serif" font-size="9.00" fill="#000000">D</text>
</g>
<!-- D&#45;&gt;LEFT -->
<g id="edge7" class="edge">
<title>D&#45;&gt;LEFT</title>
<path fill="none" stroke="#ff0000" stroke-width=".1065" d="M173.544,-97.3806C175.5756,-89.7361 178.6838,-78.0405 181.7321,-66.5702"/>
<polygon fill="#ff0000" stroke="#ff0000" stroke-width=".1065" points="185.181,-67.2193 184.3669,-56.6558 178.4158,-65.4214 185.181,-67.2193"/>
</g>
<!-- D&#45;&gt;RIGHT -->
<g id="edge8" class="edge">
<title>D&#45;&gt;RIGHT</title>
<path fill="none" stroke="#ff0000" stroke-width=".4783" d="M182.8248,-100.357C204.8837,-89.5772 253.7996,-65.673 288.1208,-48.9009"/>
<polygon fill="#ff0000" stroke="#ff0000" stroke-width=".4783" points="289.9318,-51.9115 297.3796,-44.3763 286.8583,-45.6223 289.9318,-51.9115"/>
</g>
<!-- E -->
<g id="node5" class="node">
<title>E</title>
<polygon fill="#d3d3d3" stroke="#000000" points="222.2532,-114.5135 200.2463,-114.5135 200.2463,-97.5135 222.2532,-97.5135 222.2532,-114.5135"/>
<text text-anchor="middle" x="211.2498" y="-103.3135" font-family="Times,serif" font-size="9.00" fill="#000000">E</text>
</g>
<!-- E&#45;&gt;LEFT -->
<g id="edge9" class="edge">
<title>E&#45;&gt;LEFT</title>
<path fill="none" stroke="#ff0000" stroke-width=".218" d="M208.9555,-97.3806C206.9239,-89.7361 203.8157,-78.0405 200.7674,-66.5702"/>
<polygon fill="#ff0000" stroke="#ff0000" stroke-width=".218" points="204.0837,-65.4214 198.1326,-56.6558 197.3185,-67.2193 204.0837,-65.4214"/>
</g>
<!-- E&#45;&gt;RIGHT -->
<g id="edge10" class="edge">
<title>E&#45;&gt;RIGHT</title>
<path fill="none" stroke="#ff0000" stroke-width=".5127" d="M222.1806,-98.7975C237.796,-88.489 267.1896,-69.085 290.6035,-53.6283"/>
<polygon fill="#ff0000" stroke="#ff0000" stroke-width=".5127" points="292.8259,-56.3551 299.2432,-47.9249 288.9694,-50.5132 292.8259,-56.3551"/>
</g>
<!-- F -->
<g id="node6" class="node">
<title>F</title>
<polygon fill="#d3d3d3" stroke="#000000" points="260.7551,-114.5135 239.7444,-114.5135 239.7444,-97.5135 260.7551,-97.5135 260.7551,-114.5135"/>
<text text-anchor="middle" x="250.2498" y="-103.3135" font-family="Times,serif" font-size="9.00" fill="#000000">F</text>
</g>
<!-- F&#45;&gt;LEFT -->
<g id="edge11" class="edge">
<title>F&#45;&gt;LEFT</title>
<path fill="none" stroke="#ff0000" stroke-width=".4368" d="M243.4817,-97.3806C236.3128,-88.2364 224.5995,-73.2956 214.0802,-59.8778"/>
<polygon fill="#ff0000" stroke="#ff0000" stroke-width=".4368" points="216.6603,-57.496 207.736,-51.7856 211.1514,-61.8148 216.6603,-57.496"/>
</g>
<!-- F&#45;&gt;RIGHT -->
<g id="edge12" class="edge">
<title>F&#45;&gt;RIGHT</title>
<path fill="none" stroke="#ff0000" stroke-width=".2713" d="M258.8532,-97.3806C267.9433,-88.2593 282.7814,-73.3705 296.1274,-59.9788"/>
<polygon fill="#ff0000" stroke="#ff0000" stroke-width=".2713" points="298.7625,-62.2929 303.3424,-52.7391 293.8043,-57.3516 298.7625,-62.2929"/>
</g>
<!-- G -->
<g id="node7" class="node">
<title>G</title>
<polygon fill="#d3d3d3" stroke="#000000" points="22.7549,-114.5135 -.2554,-114.5135 -.2554,-97.5135 22.7549,-97.5135 22.7549,-114.5135"/>
<text text-anchor="middle" x="11.2498" y="-103.3135" font-family="Times,serif" font-size="9.00" fill="#000000">G</text>
</g>
<!-- G&#45;&gt;LEFT -->
<g id="edge13" class="edge">
<title>G&#45;&gt;LEFT</title>
<path fill="none" stroke="#00ff00" stroke-width=".2345" d="M22.6668,-101.1459C25.4719,-99.9542 28.4681,-98.6848 31.2498,-97.5135 74.6142,-79.2523 124.6813,-58.4 157.0944,-44.9308"/>
<polygon fill="#00ff00" stroke="#00ff00" stroke-width=".2345" points="158.6677,-48.0673 166.5599,-40.9988 155.9823,-41.6029 158.6677,-48.0673"/>
</g>
<!-- H -->
<g id="node8" class="node">
<title>H</title>
<polygon fill="#d3d3d3" stroke="#000000" points="417.7549,-114.5135 394.7446,-114.5135 394.7446,-97.5135 417.7549,-97.5135 417.7549,-114.5135"/>
<text text-anchor="middle" x="406.2498" y="-103.3135" font-family="Times,serif" font-size="9.00" fill="#000000">H</text>
</g>
<!-- H&#45;&gt;RIGHT -->
<g id="edge14" class="edge">
<title>H&#45;&gt;RIGHT</title>
<path fill="none" stroke="#00ff00" stroke-width=".553" d="M396.958,-97.3806C386.8375,-87.9776 370.1198,-72.4453 355.3712,-58.7424"/>
<polygon fill="#00ff00" stroke="#00ff00" stroke-width=".553" points="357.5918,-56.0281 347.8834,-51.7856 352.8272,-61.1563 357.5918,-56.0281"/>
</g>
<!-- I -->
<g id="node9" class="node">
<title>I</title>
<polygon fill="#d3d3d3" stroke="#000000" points="297.7468,-114.5135 278.7527,-114.5135 278.7527,-97.5135 297.7468,-97.5135 297.7468,-114.5135"/>
<text text-anchor="middle" x="288.2498" y="-103.3135" font-family="Times,serif" font-size="9.00" fill="#000000">I</text>
</g>
<!-- I&#45;&gt;LEFT -->
<g id="edge15" class="edge">
<title>I&#45;&gt;LEFT</title>
<path fill="none" stroke="#00ff00" stroke-width=".4779" d="M278.5944,-98.5224C265.1768,-88.1125 240.3124,-68.8216 220.5339,-53.4766"/>
<polygon fill="#00ff00" stroke="#00ff00" stroke-width=".4779" points="222.4634,-50.5437 212.417,-47.1791 218.1724,-56.0744 222.4634,-50.5437"/>
</g>
<!-- I&#45;&gt;RIGHT -->
<g id="edge16" class="edge">
<title>I&#45;&gt;RIGHT</title>
<path fill="none" stroke="#ff0000" stroke-width=".5147" d="M292.4941,-97.3806C296.1125,-90.0208 301.5771,-78.9061 307.0115,-67.8526"/>
<polygon fill="#ff0000" stroke="#ff0000" stroke-width=".5147" points="310.257,-69.1842 311.5282,-58.6659 303.9751,-66.0957 310.257,-69.1842"/>
</g>
<!-- J -->
<g id="node10" class="node">
<title>J</title>
<polygon fill="#d3d3d3" stroke="#000000" points="334.7584,-114.5135 315.7411,-114.5135 315.7411,-97.5135 334.7584,-97.5135 334.7584,-114.5135"/>
<text text-anchor="middle" x="325.2498" y="-103.3135" font-family="Times,serif" font-size="9.00" fill="#000000">J</text>
</g>
<!-- J&#45;&gt;LEFT -->
<g id="edge17" class="edge">
<title>J&#45;&gt;LEFT</title>
<path fill="none" stroke="#00ff00" stroke-width=".2482" d="M315.6128,-100.6012C296.5785,-89.9112 253.3988,-65.6607 223.2954,-48.7541"/>
<polygon fill="#00ff00" stroke="#00ff00" stroke-width=".2482" points="224.8469,-45.6113 214.4139,-43.7661 221.4191,-51.7146 224.8469,-45.6113"/>
</g>
<!-- J&#45;&gt;RIGHT -->
<g id="edge18" class="edge">
<title>J&#45;&gt;RIGHT</title>
<path fill="none" stroke="#ff0000" stroke-width=".1828" d="M325.2498,-97.3806C325.2498,-90.9046 325.2498,-81.5213 325.2498,-71.8306"/>
<polygon fill="#ff0000" stroke="#ff0000" stroke-width=".1828" points="328.7499,-71.7296 325.2498,-61.7297 321.7499,-71.7297 328.7499,-71.7296"/>
</g>
<!-- K -->
<g id="node11" class="node">
<title>K</title>
<polygon fill="#d3d3d3" stroke="#000000" points="457.7549,-114.5135 434.7446,-114.5135 434.7446,-97.5135 457.7549,-97.5135 457.7549,-114.5135"/>
<text text-anchor="middle" x="446.2498" y="-103.3135" font-family="Times,serif" font-size="9.00" fill="#000000">K</text>
</g>
<!-- K&#45;&gt;RIGHT -->
<g id="edge19" class="edge">
<title>K&#45;&gt;RIGHT</title>
<path fill="none" stroke="#00ff00" stroke-width=".1593" d="M434.6478,-98.7975C417.61,-88.2008 385.1187,-67.9926 359.9538,-52.3411"/>
<polygon fill="#00ff00" stroke="#00ff00" stroke-width=".1593" points="361.7356,-49.3276 351.3955,-47.0183 358.0386,-55.2718 361.7356,-49.3276"/>
</g>
<!-- L -->
<g id="node12" class="node">
<title>L</title>
<polygon fill="#d3d3d3" stroke="#000000" points="497.2532,-114.5135 475.2463,-114.5135 475.2463,-97.5135 497.2532,-97.5135 497.2532,-114.5135"/>
<text text-anchor="middle" x="486.2498" y="-103.3135" font-family="Times,serif" font-size="9.00" fill="#000000">L</text>
</g>
<!-- L&#45;&gt;RIGHT -->
<g id="edge20" class="edge">
<title>L&#45;&gt;RIGHT</title>
<path fill="none" stroke="#ff0000" stroke-width=".2173" d="M475.4361,-100.9588C452.7191,-90.3401 399.1156,-65.2841 362.4967,-48.1672"/>
<polygon fill="#ff0000" stroke="#ff0000" stroke-width=".2173" points="363.6621,-44.8485 353.1208,-43.7846 360.6978,-51.1899 363.6621,-44.8485"/>
</g>
<!-- M -->
<g id="node13" class="node">
<title>M</title>
<polygon fill="#d3d3d3" stroke="#000000" points="377.2522,-114.5135 353.2473,-114.5135 353.2473,-97.5135 377.2522,-97.5135 377.2522,-114.5135"/>
<text text-anchor="middle" x="365.2498" y="-103.3135" font-family="Times,serif" font-size="9.00" fill="#000000">M</text>
</g>
<!-- M&#45;&gt;LEFT -->
<g id="edge21" class="edge">
<title>M&#45;&gt;LEFT</title>
<path fill="none" stroke="#ff0000" stroke-width=".1758" d="M353.0144,-100.7215C326.7715,-89.3712 264.2851,-62.3453 225.1065,-45.4001"/>
<polygon fill="#ff0000" stroke="#ff0000" stroke-width=".1758" points="226.252,-42.0823 215.6843,-41.3249 223.4732,-48.5071 226.252,-42.0823"/>
</g>
<!-- M&#45;&gt;RIGHT -->
<g id="edge22" class="edge">
<title>M&#45;&gt;RIGHT</title>
<path fill="none" stroke="#00ff00" stroke-width=".2232" d="M360.6612,-97.3806C356.6456,-89.8254 350.5266,-78.3131 344.4988,-66.9722"/>
<polygon fill="#00ff00" stroke="#00ff00" stroke-width=".2232" points="347.51,-65.1801 339.726,-57.9926 341.3289,-68.4655 347.51,-65.1801"/>
</g>
<!-- N -->
<g id="node14" class="node">
<title>N</title>
<polygon fill="#d3d3d3" stroke="#000000" points="537.7549,-114.5135 514.7446,-114.5135 514.7446,-97.5135 537.7549,-97.5135 537.7549,-114.5135"/>
<text text-anchor="middle" x="526.2498" y="-103.3135" font-family="Times,serif" font-size="9.00" fill="#000000">N</text>
</g>
<!-- N&#45;&gt;RIGHT -->
<g id="edge23" class="edge">
<title>N&#45;&gt;RIGHT</title>
<path fill="none" stroke="#00ff00" stroke-width=".4687" d="M514.8667,-101.0628C512.0606,-99.8737 509.0554,-98.6263 506.2498,-97.5135 457.7294,-78.2683 401.2046,-57.7144 364.4034,-44.5777"/>
<polygon fill="#00ff00" stroke="#00ff00" stroke-width=".4687" points="365.1644,-41.1334 354.5697,-41.0764 362.8164,-47.7279 365.1644,-41.1334"/>
</g>
<!-- O -->
<g id="node15" class="node">
<title>O</title>
<polygon fill="#d3d3d3" stroke="#000000" points="577.7549,-114.5135 554.7446,-114.5135 554.7446,-97.5135 577.7549,-97.5135 577.7549,-114.5135"/>
<text text-anchor="middle" x="566.2498" y="-103.3135" font-family="Times,serif" font-size="9.00" fill="#000000">O</text>
</g>
<!-- O&#45;&gt;RIGHT -->
<g id="edge24" class="edge">
<title>O&#45;&gt;RIGHT</title>
<path fill="none" stroke="#00ff00" stroke-width=".3762" d="M554.9122,-100.9428C552.1047,-99.7573 549.0875,-98.5416 546.2498,-97.5135 483.8464,-74.9032 409.7002,-53.6107 365.1162,-41.3924"/>
<polygon fill="#00ff00" stroke="#00ff00" stroke-width=".3762" points="365.8236,-37.9576 355.2552,-38.706 363.9836,-44.7115 365.8236,-37.9576"/>
</g>
<!-- P -->
<g id="node16" class="node">
<title>P</title>
<polygon fill="#d3d3d3" stroke="#000000" points="616.7551,-114.5135 595.7444,-114.5135 595.7444,-97.5135 616.7551,-97.5135 616.7551,-114.5135"/>
<text text-anchor="middle" x="606.2498" y="-103.3135" font-family="Times,serif" font-size="9.00" fill="#000000">P</text>
</g>
<!-- P&#45;&gt;RIGHT -->
<g id="edge25" class="edge">
<title>P&#45;&gt;RIGHT</title>
<path fill="none" stroke="#ff0000" stroke-width=".4686" d="M595.3622,-101.0334C592.4371,-99.793 589.2518,-98.5288 586.2498,-97.5135 509.5671,-71.5782 417.2729,-50.1982 365.5268,-39.0685"/>
<polygon fill="#ff0000" stroke="#ff0000" stroke-width=".4686" points="365.9375,-35.5775 355.4276,-36.9161 364.4783,-42.4238 365.9375,-35.5775"/>
</g>
</g>
</svg>
