<?xml version="1.0" encoding="UTF-8" standalone="no"?>
<!DOCTYPE svg PUBLIC "-//W3C//DTD SVG 1.1//EN"
 "http://www.w3.org/Graphics/SVG/1.1/DTD/svg11.dtd">
<!-- Generated by graphviz version 2.40.1 (20161225.0304)
 -->
<!-- Title: %3 Pages: 1 -->
<svg width="659pt" height="225pt"
 viewBox="0.00 0.00 658.72 224.95" xmlns="http://www.w3.org/2000/svg" xmlns:xlink="http://www.w3.org/1999/xlink">
<g id="graph0" class="graph" transform="scale(1 1) rotate(0) translate(4 220.9521)">
<title>%3</title>
<polygon fill="#ffffff" stroke="transparent" points="-4,4 -4,-220.9521 654.7193,-220.9521 654.7193,4 -4,4"/>
<!-- A -->
<g id="node1" class="node">
<title>A</title>
<polygon fill="#d3d3d3" stroke="#000000" points="354.3648,-204.5924 331.3545,-204.5924 331.3545,-187.5924 354.3648,-187.5924 354.3648,-204.5924"/>
<text text-anchor="middle" x="342.8597" y="-193.3924" font-family="Times,serif" font-size="9.00" fill="#000000">A</text>
</g>
<!-- B -->
<g id="node2" class="node">
<title>B</title>
<polygon fill="#d3d3d3" stroke="#000000" points="395.8626,-126.8731 373.8567,-126.8731 373.8567,-109.8731 395.8626,-109.8731 395.8626,-126.8731"/>
<text text-anchor="middle" x="384.8597" y="-115.6731" font-family="Times,serif" font-size="9.00" fill="#000000">B</text>
</g>
<!-- LEFT -->
<g id="node17" class="node">
<title>LEFT</title>
<ellipse fill="#add8e6" stroke="#000000" cx="228.8597" cy="-30.7567" rx="26.5303" ry="26.5303"/>
<text text-anchor="middle" x="228.8597" y="-28.0567" font-family="Times,serif" font-size="9.00" fill="#000000">LEFT</text>
</g>
<!-- B&#45;&gt;LEFT -->
<g id="edge1" class="edge">
<title>B&#45;&gt;LEFT</title>
<path fill="none" stroke="#ff0000" stroke-width=".5285" d="M377.6725,-109.563C374.1044,-105.5536 369.5575,-100.9486 364.8597,-97.5135 333.1424,-74.3213 292.131,-55.4642 263.4728,-43.7803"/>
<polygon fill="#ff0000" stroke="#ff0000" stroke-width=".5285" points="264.4717,-40.4104 253.8868,-39.9513 261.8751,-46.9111 264.4717,-40.4104"/>
</g>
<!-- RIGHT -->
<g id="node18" class="node">
<title>RIGHT</title>
<ellipse fill="#add8e6" stroke="#000000" cx="443.8597" cy="-30.7567" rx="30.5154" ry="30.5154"/>
<text text-anchor="middle" x="443.8597" y="-28.0567" font-family="Times,serif" font-size="9.00" fill="#000000">RIGHT</text>
</g>
<!-- B&#45;&gt;RIGHT -->
<g id="edge2" class="edge">
<title>B&#45;&gt;RIGHT</title>
<path fill="none" stroke="#00ff00" stroke-width=".4753" d="M390.7325,-109.6518C397.7169,-99.2798 409.8006,-81.3352 420.6807,-65.178"/>
<polygon fill="#00ff00" stroke="#00ff00" stroke-width=".4753" points="423.8789,-66.6948 426.5613,-56.4451 418.0726,-62.7849 423.8789,-66.6948"/>
</g>
<!-- C -->
<g id="node3" class="node">
<title>C</title>
<polygon fill="#d3d3d3" stroke="#000000" points="435.8626,-204.5924 413.8567,-204.5924 413.8567,-187.5924 435.8626,-187.5924 435.8626,-204.5924"/>
<text text-anchor="middle" x="424.8597" y="-193.3924" font-family="Times,serif" font-size="9.00" fill="#000000">C</text>
</g>
<!-- D -->
<g id="node4" class="node">
<title>D</title>
<polygon fill="#d3d3d3" stroke="#000000" points="436.3648,-126.8731 413.3545,-126.8731 413.3545,-109.8731 436.3648,-109.8731 436.3648,-126.8731"/>
<text text-anchor="middle" x="424.8597" y="-115.6731" font-family="Times,serif" font-size="9.00" fill="#000000">D</text>
</g>
<!-- D&#45;&gt;LEFT -->
<g id="edge3" class="edge">
<title>D&#45;&gt;LEFT</title>
<path fill="none" stroke="#ff0000" stroke-width=".262" d="M418.1746,-109.7794C414.5891,-105.6264 409.8807,-100.8354 404.8597,-97.5135 360.6399,-68.2578 301.777,-49.2709 264.5935,-39.2878"/>
<polygon fill="#ff0000" stroke="#ff0000" stroke-width=".262" points="265.2707,-35.8474 254.711,-36.7098 263.5037,-42.6207 265.2707,-35.8474"/>
</g>
<!-- D&#45;&gt;RIGHT -->
<g id="edge4" class="edge">
<title>D&#45;&gt;RIGHT</title>
<path fill="none" stroke="#ff0000" stroke-width=".6822" d="M426.7509,-109.6518C428.7338,-100.508 431.9929,-85.4788 435.1376,-70.9774"/>
<polygon fill="#ff0000" stroke="#ff0000" stroke-width=".6822" points="438.5805,-71.6157 437.2793,-61.1011 431.7395,-70.1321 438.5805,-71.6157"/>
</g>
<!-- E -->
<g id="node5" class="node">
<title>E</title>
<polygon fill="#d3d3d3" stroke="#000000" points="81.8631,-126.8731 59.8562,-126.8731 59.8562,-109.8731 81.8631,-109.8731 81.8631,-126.8731"/>
<text text-anchor="middle" x="70.8597" y="-115.6731" font-family="Times,serif" font-size="9.00" fill="#000000">E</text>
</g>
<!-- E&#45;&gt;LEFT -->
<g id="edge5" class="edge">
<title>E&#45;&gt;LEFT</title>
<path fill="none" stroke="#ff0000" stroke-width=".6211" d="M77.602,-109.525C80.973,-105.5074 85.3015,-100.9064 89.8597,-97.5135 122.273,-73.3865 164.7848,-54.5036 194.2192,-43.0681"/>
<polygon fill="#ff0000" stroke="#ff0000" stroke-width=".6211" points="195.5616,-46.3022 203.6665,-39.4786 193.0753,-39.7586 195.5616,-46.3022"/>
</g>
<!-- F -->
<g id="node6" class="node">
<title>F</title>
<polygon fill="#d3d3d3" stroke="#000000" points="120.365,-126.8731 99.3543,-126.8731 99.3543,-109.8731 120.365,-109.8731 120.365,-126.8731"/>
<text text-anchor="middle" x="109.8597" y="-115.6731" font-family="Times,serif" font-size="9.00" fill="#000000">F</text>
</g>
<!-- F&#45;&gt;LEFT -->
<g id="edge6" class="edge">
<title>F&#45;&gt;LEFT</title>
<path fill="none" stroke="#ff0000" stroke-width=".2705" d="M117.2675,-109.8442C120.884,-105.8964 125.4078,-101.2621 129.8597,-97.5135 151.0363,-79.6819 177.0602,-62.2876 197.111,-49.7271"/>
<polygon fill="#ff0000" stroke="#ff0000" stroke-width=".2705" points="199.2015,-52.5495 205.8644,-44.3119 195.5188,-46.5965 199.2015,-52.5495"/>
</g>
<!-- G -->
<g id="node7" class="node">
<title>G</title>
<polygon fill="#d3d3d3" stroke="#000000" points="161.3648,-126.8731 138.3545,-126.8731 138.3545,-109.8731 161.3648,-109.8731 161.3648,-126.8731"/>
<text text-anchor="middle" x="149.8597" y="-115.6731" font-family="Times,serif" font-size="9.00" fill="#000000">G</text>
</g>
<!-- G&#45;&gt;LEFT -->
<g id="edge7" class="edge">
<title>G&#45;&gt;LEFT</title>
<path fill="none" stroke="#ff0000" stroke-width=".2968" d="M157.7233,-109.6518C168.4181,-97.7906 188.0423,-76.0259 203.9741,-58.3565"/>
<polygon fill="#ff0000" stroke="#ff0000" stroke-width=".2968" points="206.8918,-60.3473 210.9889,-50.5767 201.693,-55.6597 206.8918,-60.3473"/>
</g>
<!-- H -->
<g id="node8" class="node">
<title>H</title>
<polygon fill="#d3d3d3" stroke="#000000" points="201.3648,-126.8731 178.3545,-126.8731 178.3545,-109.8731 201.3648,-109.8731 201.3648,-126.8731"/>
<text text-anchor="middle" x="189.8597" y="-115.6731" font-family="Times,serif" font-size="9.00" fill="#000000">H</text>
</g>
<!-- H&#45;&gt;LEFT -->
<g id="edge8" class="edge">
<title>H&#45;&gt;LEFT</title>
<path fill="none" stroke="#00ff00" stroke-width=".2436" d="M193.7417,-109.6518C198.4124,-99.1587 206.533,-80.9152 213.7895,-64.613"/>
<polygon fill="#00ff00" stroke="#00ff00" stroke-width=".2436" points="217.0604,-65.8712 217.9295,-55.3121 210.6654,-63.0246 217.0604,-65.8712"/>
</g>
<!-- I -->
<g id="node9" class="node">
<title>I</title>
<polygon fill="#d3d3d3" stroke="#000000" points="238.3567,-126.8731 219.3626,-126.8731 219.3626,-109.8731 238.3567,-109.8731 238.3567,-126.8731"/>
<text text-anchor="middle" x="228.8597" y="-115.6731" font-family="Times,serif" font-size="9.00" fill="#000000">I</text>
</g>
<!-- I&#45;&gt;LEFT -->
<g id="edge9" class="edge">
<title>I&#45;&gt;LEFT</title>
<path fill="none" stroke="#00ff00" stroke-width=".2682" d="M228.8597,-109.6518C228.8597,-99.875 228.8597,-83.3696 228.8597,-67.9752"/>
<polygon fill="#00ff00" stroke="#00ff00" stroke-width=".2682" points="232.3597,-67.5914 228.8597,-57.5915 225.3597,-67.5915 232.3597,-67.5914"/>
</g>
<!-- J -->
<g id="node10" class="node">
<title>J</title>
<polygon fill="#d3d3d3" stroke="#000000" points="473.3683,-126.8731 454.351,-126.8731 454.351,-109.8731 473.3683,-109.8731 473.3683,-126.8731"/>
<text text-anchor="middle" x="463.8597" y="-115.6731" font-family="Times,serif" font-size="9.00" fill="#000000">J</text>
</g>
<!-- J&#45;&gt;RIGHT -->
<g id="edge10" class="edge">
<title>J&#45;&gt;RIGHT</title>
<path fill="none" stroke="#00ff00" stroke-width=".6965" d="M461.8689,-109.6518C459.7816,-100.508 456.3509,-85.4788 453.0407,-70.9774"/>
<polygon fill="#00ff00" stroke="#00ff00" stroke-width=".6965" points="456.424,-70.0714 450.7863,-61.1011 449.5996,-71.6292 456.424,-70.0714"/>
</g>
<!-- K -->
<g id="node11" class="node">
<title>K</title>
<polygon fill="#d3d3d3" stroke="#000000" points="476.3648,-204.5924 453.3545,-204.5924 453.3545,-187.5924 476.3648,-187.5924 476.3648,-204.5924"/>
<text text-anchor="middle" x="464.8597" y="-193.3924" font-family="Times,serif" font-size="9.00" fill="#000000">K</text>
</g>
<!-- L -->
<g id="node12" class="node">
<title>L</title>
<polygon fill="#d3d3d3" stroke="#000000" points="315.8631,-126.8731 293.8562,-126.8731 293.8562,-109.8731 315.8631,-109.8731 315.8631,-126.8731"/>
<text text-anchor="middle" x="304.8597" y="-115.6731" font-family="Times,serif" font-size="9.00" fill="#000000">L</text>
</g>
<!-- L&#45;&gt;LEFT -->
<g id="edge11" class="edge">
<title>L&#45;&gt;LEFT</title>
<path fill="none" stroke="#ff0000" stroke-width=".539" d="M297.2946,-109.6518C287.0711,-97.8656 268.3656,-76.301 253.0917,-58.6925"/>
<polygon fill="#ff0000" stroke="#ff0000" stroke-width=".539" points="255.5547,-56.1906 246.3582,-50.9299 250.2668,-60.7774 255.5547,-56.1906"/>
</g>
<!-- L&#45;&gt;RIGHT -->
<g id="edge12" class="edge">
<title>L&#45;&gt;RIGHT</title>
<path fill="none" stroke="#ff0000" stroke-width=".3084" d="M312.133,-109.6776C315.72,-105.6933 320.2579,-101.0763 324.8597,-97.5135 350.1592,-77.9256 381.8891,-60.4237 406.2209,-48.2595"/>
<polygon fill="#ff0000" stroke="#ff0000" stroke-width=".3084" points="408.0564,-51.2574 415.4871,-43.7052 404.9686,-44.9751 408.0564,-51.2574"/>
</g>
<!-- M -->
<g id="node13" class="node">
<title>M</title>
<polygon fill="#d3d3d3" stroke="#000000" points="395.8621,-204.5924 371.8572,-204.5924 371.8572,-187.5924 395.8621,-187.5924 395.8621,-204.5924"/>
<text text-anchor="middle" x="383.8597" y="-193.3924" font-family="Times,serif" font-size="9.00" fill="#000000">M</text>
</g>
<!-- M&#45;&gt;LEFT -->
<g id="edge13" class="edge">
<title>M&#45;&gt;LEFT</title>
<path fill="none" stroke="#ff0000" stroke-width=".1113" d="M376.2796,-187.2519C372.5257,-183.2359 367.755,-178.6341 362.8597,-175.2328 331.5042,-153.4471 312.4469,-165.6282 284.8597,-139.2328 263.8225,-119.1045 249.2375,-89.3417 240.2377,-66.0808"/>
<polygon fill="#ff0000" stroke="#ff0000" stroke-width=".1113" points="243.4681,-64.7249 236.7201,-56.557 236.9017,-67.1502 243.4681,-64.7249"/>
</g>
<!-- M&#45;&gt;RIGHT -->
<g id="edge14" class="edge">
<title>M&#45;&gt;RIGHT</title>
<path fill="none" stroke="#ff0000" stroke-width=".3978" d="M391.4397,-187.2519C395.1936,-183.2359 399.9643,-178.6341 404.8597,-175.2328 436.2151,-153.4471 462.2819,-171.3938 482.8597,-139.2328 497.971,-115.6151 484.8615,-85.3588 469.8943,-62.8037"/>
<polygon fill="#ff0000" stroke="#ff0000" stroke-width=".3978" points="472.727,-60.7471 464.1219,-54.5662 466.9943,-64.7642 472.727,-60.7471"/>
</g>
<!-- 435 -->
<g id="node20" class="node">
<title>435</title>
<ellipse fill="#ffffff" stroke="#000000" cx="629.8597" cy="-118.3731" rx="20.7202" ry="20.7202"/>
<text text-anchor="middle" x="629.8597" y="-115.6731" font-family="Times,serif" font-size="9.00" fill="#000000">435</text>
</g>
<!-- M&#45;&gt;435 -->
<g id="edge19" class="edge">
<title>M&#45;&gt;435</title>
<path fill="none" stroke="#00ff00" stroke-width=".4584" d="M390.3479,-187.5291C394.1096,-183.172 399.2131,-178.1857 404.8597,-175.2328 483.3436,-134.1887 519.3729,-173.9353 600.8597,-139.2328 602.2505,-138.6404 603.6394,-137.9718 605.0141,-137.2468"/>
<polygon fill="#00ff00" stroke="#00ff00" stroke-width=".4584" points="607.0796,-140.085 613.7509,-131.8543 603.4029,-134.1282 607.0796,-140.085"/>
</g>
<!-- 562 -->
<g id="node21" class="node">
<title>562</title>
<ellipse fill="#ffffff" stroke="#000000" cx="20.8597" cy="-118.3731" rx="20.7202" ry="20.7202"/>
<text text-anchor="middle" x="20.8597" y="-115.6731" font-family="Times,serif" font-size="9.00" fill="#000000">562</text>
</g>
<!-- M&#45;&gt;562 -->
<g id="edge20" class="edge">
<title>M&#45;&gt;562</title>
<path fill="none" stroke="#00ff00" stroke-width=".3" d="M377.4475,-187.3775C373.7081,-182.976 368.6016,-177.9956 362.8597,-175.2328 237.0759,-114.7109 181.4379,-188.5659 50.8597,-139.2328 49.2277,-138.6162 47.6002,-137.8914 45.9951,-137.0887"/>
<polygon fill="#00ff00" stroke="#00ff00" stroke-width=".3" points="47.5559,-133.9451 37.17,-131.8514 43.9834,-139.9649 47.5559,-133.9451"/>
</g>
<!-- N -->
<g id="node14" class="node">
<title>N</title>
<polygon fill="#d3d3d3" stroke="#000000" points="552.3648,-126.8731 529.3545,-126.8731 529.3545,-109.8731 552.3648,-109.8731 552.3648,-126.8731"/>
<text text-anchor="middle" x="540.8597" y="-115.6731" font-family="Times,serif" font-size="9.00" fill="#000000">N</text>
</g>
<!-- N&#45;&gt;RIGHT -->
<g id="edge15" class="edge">
<title>N&#45;&gt;RIGHT</title>
<path fill="none" stroke="#ff0000" stroke-width=".2158" d="M531.2043,-109.6518C518.09,-97.8061 494.0403,-76.083 474.4924,-58.4261"/>
<polygon fill="#ff0000" stroke="#ff0000" stroke-width=".2158" points="476.7489,-55.7479 466.9819,-51.6421 472.0567,-60.9425 476.7489,-55.7479"/>
</g>
<!-- O -->
<g id="node15" class="node">
<title>O</title>
<polygon fill="#d3d3d3" stroke="#000000" points="356.3648,-126.8731 333.3545,-126.8731 333.3545,-109.8731 356.3648,-109.8731 356.3648,-126.8731"/>
<text text-anchor="middle" x="344.8597" y="-115.6731" font-family="Times,serif" font-size="9.00" fill="#000000">O</text>
</g>
<!-- O&#45;&gt;LEFT -->
<g id="edge16" class="edge">
<title>O&#45;&gt;LEFT</title>
<path fill="none" stroke="#00ff00" stroke-width=".2967" d="M337.4275,-109.8728C333.8057,-105.9313 329.2845,-101.2939 324.8597,-97.5135 304.3816,-80.0176 279.3433,-62.7254 259.9725,-50.1255"/>
<polygon fill="#00ff00" stroke="#00ff00" stroke-width=".2967" points="261.8121,-47.1473 251.5079,-44.6826 258.0261,-53.0351 261.8121,-47.1473"/>
</g>
<!-- O&#45;&gt;RIGHT -->
<g id="edge17" class="edge">
<title>O&#45;&gt;RIGHT</title>
<path fill="none" stroke="#ff0000" stroke-width=".2222" d="M352.8368,-109.6492C356.4235,-105.8337 360.7636,-101.3602 364.8597,-97.5135 379.8795,-83.4079 397.3071,-68.535 411.966,-56.4166"/>
<polygon fill="#ff0000" stroke="#ff0000" stroke-width=".2222" points="414.2851,-59.0411 419.7922,-49.99 409.8428,-53.6314 414.2851,-59.0411"/>
</g>
<!-- P -->
<g id="node16" class="node">
<title>P</title>
<polygon fill="#d3d3d3" stroke="#000000" points="591.365,-126.8731 570.3543,-126.8731 570.3543,-109.8731 591.365,-109.8731 591.365,-126.8731"/>
<text text-anchor="middle" x="580.8597" y="-115.6731" font-family="Times,serif" font-size="9.00" fill="#000000">P</text>
</g>
<!-- P&#45;&gt;RIGHT -->
<g id="edge18" class="edge">
<title>P&#45;&gt;RIGHT</title>
<path fill="none" stroke="#00ff00" stroke-width=".1219" d="M573.5747,-109.6925C569.9851,-105.7116 565.4485,-101.093 560.8597,-97.5135 535.9533,-78.0849 504.7584,-60.5742 480.8444,-48.3662"/>
<polygon fill="#00ff00" stroke="#00ff00" stroke-width=".1219" points="482.2449,-45.153 471.7377,-43.7928 479.1034,-51.4085 482.2449,-45.153"/>
</g>
<!-- 306 -->
<g id="node19" class="node">
<title>306</title>
<ellipse fill="#ffffff" stroke="#000000" cx="514.8597" cy="-196.0924" rx="20.7202" ry="20.7202"/>
<text text-anchor="middle" x="514.8597" y="-193.3924" font-family="Times,serif" font-size="9.00" fill="#000000">306</text>
</g>
<!-- 562&#45;&gt;LEFT -->
<g id="edge21" class="edge">
<title>562&#45;&gt;LEFT</title>
<path fill="none" stroke="#00ff00" stroke-width=".2023" d="M37.5294,-105.6949C41.7508,-102.7926 46.3657,-99.8713 50.8597,-97.5135 98.1443,-72.7044 156.7571,-52.5902 193.4936,-41.1456"/>
<polygon fill="#00ff00" stroke="#00ff00" stroke-width=".2023" points="194.7153,-44.4318 203.2475,-38.1508 192.6606,-37.7401 194.7153,-44.4318"/>
</g>
</g>
</svg>
