<?xml version="1.0" encoding="UTF-8" standalone="no"?>
<!DOCTYPE svg PUBLIC "-//W3C//DTD SVG 1.1//EN"
 "http://www.w3.org/Graphics/SVG/1.1/DTD/svg11.dtd">
<!-- Generated by graphviz version 2.40.1 (20161225.0304)
 -->
<!-- Title: %3 Pages: 1 -->
<svg width="740pt" height="200pt"
 viewBox="0.00 0.00 740.11 200.23" xmlns="http://www.w3.org/2000/svg" xmlns:xlink="http://www.w3.org/1999/xlink">
<g id="graph0" class="graph" transform="scale(1 1) rotate(0) translate(4 196.2328)">
<title>%3</title>
<polygon fill="#ffffff" stroke="transparent" points="-4,4 -4,-196.2328 736.1094,-196.2328 736.1094,4 -4,4"/>
<!-- A -->
<g id="node1" class="node">
<title>A</title>
<polygon fill="#d3d3d3" stroke="#000000" points="22.7549,-126.8731 -.2554,-126.8731 -.2554,-109.8731 22.7549,-109.8731 22.7549,-126.8731"/>
<text text-anchor="middle" x="11.2498" y="-115.6731" font-family="Times,serif" font-size="9.00" fill="#000000">A</text>
</g>
<!-- RIGHT -->
<g id="node18" class="node">
<title>RIGHT</title>
<ellipse fill="#add8e6" stroke="#000000" cx="284.2498" cy="-30.7567" rx="30.5154" ry="30.5154"/>
<text text-anchor="middle" x="284.2498" y="-28.0567" font-family="Times,serif" font-size="9.00" fill="#000000">RIGHT</text>
</g>
<!-- A&#45;&gt;RIGHT -->
<g id="edge1" class="edge">
<title>A&#45;&gt;RIGHT</title>
<path fill="none" stroke="#00ff00" stroke-width=".2171" stroke-dasharray="1,5" d="M17.7936,-109.5534C21.3432,-105.3429 26.0619,-100.5685 31.2498,-97.5135 98.9985,-57.6172 190.7821,-41.1536 243.1349,-34.6739"/>
<polygon fill="#00ff00" stroke="#00ff00" stroke-width=".2171" points="243.8492,-38.1142 253.3731,-33.4725 243.0332,-31.1619 243.8492,-38.1142"/>
</g>
<!-- B -->
<g id="node2" class="node">
<title>B</title>
<polygon fill="#d3d3d3" stroke="#000000" points="375.2527,-126.8731 353.2468,-126.8731 353.2468,-109.8731 375.2527,-109.8731 375.2527,-126.8731"/>
<text text-anchor="middle" x="364.2498" y="-115.6731" font-family="Times,serif" font-size="9.00" fill="#000000">B</text>
</g>
<!-- LEFT -->
<g id="node17" class="node">
<title>LEFT</title>
<ellipse fill="#add8e6" stroke="#000000" cx="404.2498" cy="-30.7567" rx="26.5303" ry="26.5303"/>
<text text-anchor="middle" x="404.2498" y="-28.0567" font-family="Times,serif" font-size="9.00" fill="#000000">LEFT</text>
</g>
<!-- B&#45;&gt;LEFT -->
<g id="edge2" class="edge">
<title>B&#45;&gt;LEFT</title>
<path fill="none" stroke="#ff0000" stroke-width=".5285" d="M368.2313,-109.6518C373.0548,-99.0864 381.4657,-80.6632 388.947,-64.276"/>
<polygon fill="#ff0000" stroke="#ff0000" stroke-width=".5285" points="392.2412,-65.4879 393.2104,-54.9375 385.8734,-62.5807 392.2412,-65.4879"/>
</g>
<!-- B&#45;&gt;RIGHT -->
<g id="edge3" class="edge">
<title>B&#45;&gt;RIGHT</title>
<path fill="none" stroke="#00ff00" stroke-width=".4753" d="M356.2866,-109.6518C346.0733,-98.4662 327.8184,-78.4733 312.2414,-61.4133"/>
<polygon fill="#00ff00" stroke="#00ff00" stroke-width=".4753" points="314.6388,-58.8482 305.3113,-53.8234 309.4695,-63.5682 314.6388,-58.8482"/>
</g>
<!-- C -->
<g id="node3" class="node">
<title>C</title>
<polygon fill="#d3d3d3" stroke="#000000" points="649.2527,-192.2328 627.2468,-192.2328 627.2468,-175.2328 649.2527,-175.2328 649.2527,-192.2328"/>
<text text-anchor="middle" x="638.2498" y="-181.0328" font-family="Times,serif" font-size="9.00" fill="#000000">C</text>
</g>
<!-- D -->
<g id="node4" class="node">
<title>D</title>
<polygon fill="#d3d3d3" stroke="#000000" points="415.7549,-126.8731 392.7446,-126.8731 392.7446,-109.8731 415.7549,-109.8731 415.7549,-126.8731"/>
<text text-anchor="middle" x="404.2498" y="-115.6731" font-family="Times,serif" font-size="9.00" fill="#000000">D</text>
</g>
<!-- D&#45;&gt;LEFT -->
<g id="edge4" class="edge">
<title>D&#45;&gt;LEFT</title>
<path fill="none" stroke="#ff0000" stroke-width=".262" d="M404.2498,-109.6518C404.2498,-99.875 404.2498,-83.3696 404.2498,-67.9752"/>
<polygon fill="#ff0000" stroke="#ff0000" stroke-width=".262" points="407.7499,-67.5914 404.2498,-57.5915 400.7499,-67.5915 407.7499,-67.5914"/>
</g>
<!-- D&#45;&gt;RIGHT -->
<g id="edge5" class="edge">
<title>D&#45;&gt;RIGHT</title>
<path fill="none" stroke="#ff0000" stroke-width=".6822" d="M396.8497,-109.8349C393.2349,-105.8851 388.7103,-101.2517 384.2498,-97.5135 363.994,-80.5377 339.3142,-64.0247 319.5409,-51.669"/>
<polygon fill="#ff0000" stroke="#ff0000" stroke-width=".6822" points="321.183,-48.5697 310.8346,-46.2979 317.5076,-54.5272 321.183,-48.5697"/>
</g>
<!-- E -->
<g id="node5" class="node">
<title>E</title>
<polygon fill="#d3d3d3" stroke="#000000" points="455.2532,-126.8731 433.2463,-126.8731 433.2463,-109.8731 455.2532,-109.8731 455.2532,-126.8731"/>
<text text-anchor="middle" x="444.2498" y="-115.6731" font-family="Times,serif" font-size="9.00" fill="#000000">E</text>
</g>
<!-- E&#45;&gt;LEFT -->
<g id="edge6" class="edge">
<title>E&#45;&gt;LEFT</title>
<path fill="none" stroke="#ff0000" stroke-width=".6211" d="M440.2682,-109.6518C435.4447,-99.0864 427.0338,-80.6632 419.5525,-64.276"/>
<polygon fill="#ff0000" stroke="#ff0000" stroke-width=".6211" points="422.6261,-62.5807 415.2891,-54.9375 416.2583,-65.4879 422.6261,-62.5807"/>
</g>
<!-- E&#45;&gt;RIGHT -->
<g id="edge7" class="edge">
<title>E&#45;&gt;RIGHT</title>
<path fill="none" stroke="#ff0000" stroke-width=".2025" stroke-dasharray="1,5" d="M437.0801,-109.539C433.5158,-105.5244 428.9671,-100.9219 424.2498,-97.5135 392.6785,-74.7022 352.0881,-56.3562 322.7503,-44.7123"/>
<polygon fill="#ff0000" stroke="#ff0000" stroke-width=".2025" points="323.8504,-41.3848 313.2617,-41.0237 321.314,-47.9092 323.8504,-41.3848"/>
</g>
<!-- F -->
<g id="node6" class="node">
<title>F</title>
<polygon fill="#d3d3d3" stroke="#000000" points="493.7551,-126.8731 472.7444,-126.8731 472.7444,-109.8731 493.7551,-109.8731 493.7551,-126.8731"/>
<text text-anchor="middle" x="483.2498" y="-115.6731" font-family="Times,serif" font-size="9.00" fill="#000000">F</text>
</g>
<!-- F&#45;&gt;LEFT -->
<g id="edge8" class="edge">
<title>F&#45;&gt;LEFT</title>
<path fill="none" stroke="#ff0000" stroke-width=".2705" d="M475.3861,-109.6518C464.6913,-97.7906 445.0671,-76.0259 429.1354,-58.3565"/>
<polygon fill="#ff0000" stroke="#ff0000" stroke-width=".2705" points="431.4164,-55.6597 422.1206,-50.5767 426.2176,-60.3473 431.4164,-55.6597"/>
</g>
<!-- F&#45;&gt;RIGHT -->
<g id="edge9" class="edge">
<title>F&#45;&gt;RIGHT</title>
<path fill="none" stroke="#ff0000" stroke-width=".3758" stroke-dasharray="1,5" d="M476.9859,-109.7506C473.6019,-105.5903 469.1225,-100.8014 464.2498,-97.5135 462.7046,-96.4708 375.3502,-64.2606 322.9177,-44.97"/>
<polygon fill="#ff0000" stroke="#ff0000" stroke-width=".3758" points="323.841,-41.5804 313.2475,-41.413 321.4244,-48.15 323.841,-41.5804"/>
</g>
<!-- G -->
<g id="node7" class="node">
<title>G</title>
<polygon fill="#d3d3d3" stroke="#000000" points="534.7549,-126.8731 511.7446,-126.8731 511.7446,-109.8731 534.7549,-109.8731 534.7549,-126.8731"/>
<text text-anchor="middle" x="523.2498" y="-115.6731" font-family="Times,serif" font-size="9.00" fill="#000000">G</text>
</g>
<!-- G&#45;&gt;LEFT -->
<g id="edge10" class="edge">
<title>G&#45;&gt;LEFT</title>
<path fill="none" stroke="#ff0000" stroke-width=".2968" d="M515.8419,-109.8442C512.2254,-105.8964 507.7016,-101.2621 503.2498,-97.5135 482.0731,-79.6819 456.0492,-62.2876 435.9984,-49.7271"/>
<polygon fill="#ff0000" stroke="#ff0000" stroke-width=".2968" points="437.5906,-46.5965 427.245,-44.3119 433.9079,-52.5495 437.5906,-46.5965"/>
</g>
<!-- G&#45;&gt;RIGHT -->
<g id="edge11" class="edge">
<title>G&#45;&gt;RIGHT</title>
<path fill="none" stroke="#ff0000" stroke-width=".2063" stroke-dasharray="1,5" d="M516.7025,-109.5592C513.1521,-105.3501 508.4336,-100.5753 503.2498,-97.5135 449.7831,-65.9332 427.4656,-80.2078 368.2498,-61.5135 353.2087,-56.765 336.881,-50.9433 322.6549,-45.6474"/>
<polygon fill="#ff0000" stroke="#ff0000" stroke-width=".2063" points="323.7755,-42.3295 313.1835,-42.0846 321.3109,-48.8813 323.7755,-42.3295"/>
</g>
<!-- H -->
<g id="node8" class="node">
<title>H</title>
<polygon fill="#d3d3d3" stroke="#000000" points="140.7549,-126.8731 117.7446,-126.8731 117.7446,-109.8731 140.7549,-109.8731 140.7549,-126.8731"/>
<text text-anchor="middle" x="129.2498" y="-115.6731" font-family="Times,serif" font-size="9.00" fill="#000000">H</text>
</g>
<!-- H&#45;&gt;LEFT -->
<g id="edge12" class="edge">
<title>H&#45;&gt;LEFT</title>
<path fill="none" stroke="#00ff00" stroke-width=".2436" d="M135.7647,-109.86C139.5342,-105.5177 144.6366,-100.5294 150.2498,-97.5135 219.8156,-60.1365 248.4759,-83.7568 324.2498,-61.5135 339.6784,-56.9844 356.3364,-50.7986 370.4367,-45.1617"/>
<polygon fill="#00ff00" stroke="#00ff00" stroke-width=".2436" points="371.8003,-48.3855 379.7432,-41.374 369.1616,-41.9019 371.8003,-48.3855"/>
</g>
<!-- H&#45;&gt;RIGHT -->
<g id="edge13" class="edge">
<title>H&#45;&gt;RIGHT</title>
<path fill="none" stroke="#ff0000" stroke-width=".4986" stroke-dasharray="1,5" d="M136.8757,-109.5977C140.6397,-105.5959 145.4056,-100.9873 150.2498,-97.5135 180.1964,-76.0383 218.0748,-57.8739 245.9133,-45.9402"/>
<polygon fill="#ff0000" stroke="#ff0000" stroke-width=".4986" points="247.4532,-49.0895 255.3119,-41.9837 244.7373,-42.6378 247.4532,-49.0895"/>
</g>
<!-- I -->
<g id="node9" class="node">
<title>I</title>
<polygon fill="#d3d3d3" stroke="#000000" points="177.7468,-126.8731 158.7527,-126.8731 158.7527,-109.8731 177.7468,-109.8731 177.7468,-126.8731"/>
<text text-anchor="middle" x="168.2498" y="-115.6731" font-family="Times,serif" font-size="9.00" fill="#000000">I</text>
</g>
<!-- I&#45;&gt;LEFT -->
<g id="edge14" class="edge">
<title>I&#45;&gt;LEFT</title>
<path fill="none" stroke="#00ff00" stroke-width=".2682" d="M173.9671,-109.536C177.1178,-105.3211 181.3774,-100.548 186.2498,-97.5135 240.054,-64.004 263.9067,-80.9169 324.2498,-61.5135 339.5575,-56.5912 356.1966,-50.3441 370.3155,-44.7678"/>
<polygon fill="#00ff00" stroke="#00ff00" stroke-width=".2682" points="371.6547,-48.0018 379.6402,-41.0389 369.0555,-41.5022 371.6547,-48.0018"/>
</g>
<!-- I&#45;&gt;RIGHT -->
<g id="edge15" class="edge">
<title>I&#45;&gt;RIGHT</title>
<path fill="none" stroke="#00ff00" stroke-width=".145" stroke-dasharray="1,5" d="M174.7967,-109.795C178.0252,-105.8364 182.1092,-101.2072 186.2498,-97.5135 205.5662,-80.2816 229.5503,-63.872 248.9564,-51.6343"/>
<polygon fill="#00ff00" stroke="#00ff00" stroke-width=".145" points="250.8691,-54.5665 257.5173,-46.3171 247.1758,-48.6201 250.8691,-54.5665"/>
</g>
<!-- J -->
<g id="node10" class="node">
<title>J</title>
<polygon fill="#d3d3d3" stroke="#000000" points="214.7584,-126.8731 195.7411,-126.8731 195.7411,-109.8731 214.7584,-109.8731 214.7584,-126.8731"/>
<text text-anchor="middle" x="205.2498" y="-115.6731" font-family="Times,serif" font-size="9.00" fill="#000000">J</text>
</g>
<!-- J&#45;&gt;LEFT -->
<g id="edge16" class="edge">
<title>J&#45;&gt;LEFT</title>
<path fill="none" stroke="#ff0000" stroke-width=".2651" stroke-dasharray="1,5" d="M211.5003,-109.7308C214.881,-105.5654 219.3613,-100.778 224.2498,-97.5135 263.5325,-71.2804 279.9797,-77.9899 324.2498,-61.5135 339.3195,-55.9048 355.9216,-49.5508 370.0771,-44.0801"/>
<polygon fill="#ff0000" stroke="#ff0000" stroke-width=".2651" points="371.3771,-47.33 379.4374,-40.4538 368.8483,-40.8027 371.3771,-47.33"/>
</g>
<!-- J&#45;&gt;RIGHT -->
<g id="edge17" class="edge">
<title>J&#45;&gt;RIGHT</title>
<path fill="none" stroke="#00ff00" stroke-width=".6965" d="M213.1134,-109.6518C223.199,-98.4662 241.2257,-78.4733 256.608,-61.4133"/>
<polygon fill="#00ff00" stroke="#00ff00" stroke-width=".6965" points="259.3544,-63.594 263.4515,-53.8234 254.1556,-58.9065 259.3544,-63.594"/>
</g>
<!-- K -->
<g id="node11" class="node">
<title>K</title>
<polygon fill="#d3d3d3" stroke="#000000" points="255.7549,-126.8731 232.7446,-126.8731 232.7446,-109.8731 255.7549,-109.8731 255.7549,-126.8731"/>
<text text-anchor="middle" x="244.2498" y="-115.6731" font-family="Times,serif" font-size="9.00" fill="#000000">K</text>
</g>
<!-- K&#45;&gt;LEFT -->
<g id="edge18" class="edge">
<title>K&#45;&gt;LEFT</title>
<path fill="none" stroke="#00ff00" stroke-width=".1282" stroke-dasharray="1,5" d="M251.4194,-109.539C254.9837,-105.5244 259.5324,-100.9219 264.2498,-97.5135 297.1937,-73.7104 339.9581,-54.7694 369.5104,-43.2317"/>
<polygon fill="#00ff00" stroke="#00ff00" stroke-width=".1282" points="370.902,-46.4468 378.9927,-39.6064 368.4021,-39.9084 370.902,-46.4468"/>
</g>
<!-- K&#45;&gt;RIGHT -->
<g id="edge19" class="edge">
<title>K&#45;&gt;RIGHT</title>
<path fill="none" stroke="#00ff00" stroke-width=".151" stroke-dasharray="1,5" d="M248.2313,-109.6518C252.6825,-99.902 260.1884,-83.4609 267.1998,-68.1031"/>
<polygon fill="#00ff00" stroke="#00ff00" stroke-width=".151" points="270.5006,-69.3006 271.4698,-58.7501 264.1328,-66.3934 270.5006,-69.3006"/>
</g>
<!-- L -->
<g id="node12" class="node">
<title>L</title>
<polygon fill="#d3d3d3" stroke="#000000" points="295.2532,-126.8731 273.2463,-126.8731 273.2463,-109.8731 295.2532,-109.8731 295.2532,-126.8731"/>
<text text-anchor="middle" x="284.2498" y="-115.6731" font-family="Times,serif" font-size="9.00" fill="#000000">L</text>
</g>
<!-- L&#45;&gt;LEFT -->
<g id="edge20" class="edge">
<title>L&#45;&gt;LEFT</title>
<path fill="none" stroke="#ff0000" stroke-width=".539" d="M291.6498,-109.8349C295.2646,-105.8851 299.7892,-101.2517 304.2498,-97.5135 325.7116,-79.5268 352.1401,-62.0598 372.4367,-49.5068"/>
<polygon fill="#ff0000" stroke="#ff0000" stroke-width=".539" points="374.299,-52.4706 381.0086,-44.2711 370.6501,-46.4969 374.299,-52.4706"/>
</g>
<!-- L&#45;&gt;RIGHT -->
<g id="edge21" class="edge">
<title>L&#45;&gt;RIGHT</title>
<path fill="none" stroke="#ff0000" stroke-width=".3084" d="M284.2498,-109.6518C284.2498,-100.7352 284.2498,-86.2222 284.2498,-72.0594"/>
<polygon fill="#ff0000" stroke="#ff0000" stroke-width=".3084" points="287.7499,-71.8937 284.2498,-61.8937 280.7499,-71.8937 287.7499,-71.8937"/>
</g>
<!-- M -->
<g id="node13" class="node">
<title>M</title>
<polygon fill="#d3d3d3" stroke="#000000" points="609.2522,-192.2328 585.2473,-192.2328 585.2473,-175.2328 609.2522,-175.2328 609.2522,-192.2328"/>
<text text-anchor="middle" x="597.2498" y="-181.0328" font-family="Times,serif" font-size="9.00" fill="#000000">M</text>
</g>
<!-- M&#45;&gt;LEFT -->
<g id="edge22" class="edge">
<title>M&#45;&gt;LEFT</title>
<path fill="none" stroke="#ff0000" stroke-width=".1113" d="M601.1261,-175.169C608.0375,-158.4737 620.2477,-121.1445 603.2498,-97.5135 583.9491,-70.6811 492.0762,-48.3553 440.1747,-37.6228"/>
<polygon fill="#ff0000" stroke="#ff0000" stroke-width=".1113" points="440.8568,-34.19 430.3607,-35.633 439.4658,-41.0504 440.8568,-34.19"/>
</g>
<!-- M&#45;&gt;RIGHT -->
<g id="edge23" class="edge">
<title>M&#45;&gt;RIGHT</title>
<path fill="none" stroke="#ff0000" stroke-width=".3978" d="M585.1447,-183.5806C513.061,-182.5523 142.375,-175.5161 109.2498,-139.2328 63.9534,-89.618 179.4905,-54.3859 244.12,-39.1601"/>
<polygon fill="#ff0000" stroke="#ff0000" stroke-width=".3978" points="245.0585,-42.5358 254.0231,-36.8891 243.4938,-35.7129 245.0585,-42.5358"/>
</g>
<!-- 435 -->
<g id="node20" class="node">
<title>435</title>
<ellipse fill="#ffffff" stroke="#000000" cx="711.2498" cy="-118.3731" rx="20.7202" ry="20.7202"/>
<text text-anchor="middle" x="711.2498" y="-115.6731" font-family="Times,serif" font-size="9.00" fill="#000000">435</text>
</g>
<!-- M&#45;&gt;435 -->
<g id="edge30" class="edge">
<title>M&#45;&gt;435</title>
<path fill="none" stroke="#00ff00" stroke-width=".4584" d="M609.4659,-177.8405C626.0453,-169.714 656.4477,-154.3496 681.2498,-139.2328 682.7394,-138.3248 684.2551,-137.3713 685.7742,-136.3923"/>
<polygon fill="#00ff00" stroke="#00ff00" stroke-width=".4584" points="687.9898,-139.1211 694.3524,-130.6495 684.0956,-133.3042 687.9898,-139.1211"/>
</g>
<!-- 562 -->
<g id="node21" class="node">
<title>562</title>
<ellipse fill="#ffffff" stroke="#000000" cx="573.2498" cy="-118.3731" rx="20.7202" ry="20.7202"/>
<text text-anchor="middle" x="573.2498" y="-115.6731" font-family="Times,serif" font-size="9.00" fill="#000000">562</text>
</g>
<!-- M&#45;&gt;562 -->
<g id="edge32" class="edge">
<title>M&#45;&gt;562</title>
<path fill="none" stroke="#00ff00" stroke-width=".3" d="M594.1122,-175.1881C591.5392,-168.1811 587.7381,-157.8294 584.0827,-147.8747"/>
<polygon fill="#00ff00" stroke="#00ff00" stroke-width=".3" points="587.2594,-146.3718 580.5269,-138.1911 580.6884,-148.7847 587.2594,-146.3718"/>
</g>
<!-- N -->
<g id="node14" class="node">
<title>N</title>
<polygon fill="#d3d3d3" stroke="#000000" points="672.7549,-126.8731 649.7446,-126.8731 649.7446,-109.8731 672.7549,-109.8731 672.7549,-126.8731"/>
<text text-anchor="middle" x="661.2498" y="-115.6731" font-family="Times,serif" font-size="9.00" fill="#000000">N</text>
</g>
<!-- N&#45;&gt;LEFT -->
<g id="edge24" class="edge">
<title>N&#45;&gt;LEFT</title>
<path fill="none" stroke="#ff0000" stroke-width=".2036" stroke-dasharray="1,5" d="M652.6529,-109.6584C648.1096,-105.4746 642.2419,-100.6925 636.2498,-97.5135 571.8824,-63.365 487.9443,-44.8102 440.7022,-36.4183"/>
<polygon fill="#ff0000" stroke="#ff0000" stroke-width=".2036" points="441.0862,-32.933 430.6374,-34.6863 439.899,-39.8316 441.0862,-32.933"/>
</g>
<!-- N&#45;&gt;RIGHT -->
<g id="edge25" class="edge">
<title>N&#45;&gt;RIGHT</title>
<path fill="none" stroke="#ff0000" stroke-width=".2158" d="M649.8992,-113.5504C638.3522,-108.8216 619.8447,-101.7266 603.2498,-97.5135 500.8359,-71.5126 470.5885,-87.8084 368.2498,-61.5135 352.9731,-57.5883 336.5968,-51.9366 322.3978,-46.5462"/>
<polygon fill="#ff0000" stroke="#ff0000" stroke-width=".2158" points="323.5446,-43.237 312.9558,-42.8806 321.0112,-49.7625 323.5446,-43.237"/>
</g>
<!-- 306 -->
<g id="node19" class="node">
<title>306</title>
<ellipse fill="#ffffff" stroke="#000000" cx="661.2498" cy="-30.7567" rx="20.7202" ry="20.7202"/>
<text text-anchor="middle" x="661.2498" y="-28.0567" font-family="Times,serif" font-size="9.00" fill="#000000">306</text>
</g>
<!-- N&#45;&gt;306 -->
<g id="edge29" class="edge">
<title>N&#45;&gt;306</title>
<path fill="none" stroke="#00ff00" stroke-width=".2965" stroke-dasharray="1,5" d="M661.2498,-109.6518C661.2498,-98.5399 661.2498,-78.7364 661.2498,-61.751"/>
<polygon fill="#00ff00" stroke="#00ff00" stroke-width=".2965" points="664.7499,-61.6421 661.2498,-51.6421 657.7499,-61.6422 664.7499,-61.6421"/>
</g>
<!-- O -->
<g id="node15" class="node">
<title>O</title>
<polygon fill="#d3d3d3" stroke="#000000" points="335.7549,-126.8731 312.7446,-126.8731 312.7446,-109.8731 335.7549,-109.8731 335.7549,-126.8731"/>
<text text-anchor="middle" x="324.2498" y="-115.6731" font-family="Times,serif" font-size="9.00" fill="#000000">O</text>
</g>
<!-- O&#45;&gt;LEFT -->
<g id="edge26" class="edge">
<title>O&#45;&gt;LEFT</title>
<path fill="none" stroke="#00ff00" stroke-width=".2967" d="M332.2129,-109.6518C343.0431,-97.7906 362.9158,-76.0259 379.0492,-58.3565"/>
<polygon fill="#00ff00" stroke="#00ff00" stroke-width=".2967" points="381.9946,-60.3214 386.1527,-50.5767 376.8252,-55.6014 381.9946,-60.3214"/>
</g>
<!-- O&#45;&gt;RIGHT -->
<g id="edge27" class="edge">
<title>O&#45;&gt;RIGHT</title>
<path fill="none" stroke="#ff0000" stroke-width=".2222" d="M320.2682,-109.6518C315.817,-99.902 308.3111,-83.4609 301.2997,-68.1031"/>
<polygon fill="#ff0000" stroke="#ff0000" stroke-width=".2222" points="304.3667,-66.3934 297.0297,-58.7501 297.9989,-69.3006 304.3667,-66.3934"/>
</g>
<!-- P -->
<g id="node16" class="node">
<title>P</title>
<polygon fill="#d3d3d3" stroke="#000000" points="61.7551,-126.8731 40.7444,-126.8731 40.7444,-109.8731 61.7551,-109.8731 61.7551,-126.8731"/>
<text text-anchor="middle" x="51.2498" y="-115.6731" font-family="Times,serif" font-size="9.00" fill="#000000">P</text>
</g>
<!-- P&#45;&gt;RIGHT -->
<g id="edge28" class="edge">
<title>P&#45;&gt;RIGHT</title>
<path fill="none" stroke="#00ff00" stroke-width=".1219" d="M59.8881,-109.7351C64.4419,-105.5709 70.3066,-100.7831 76.2498,-97.5135 130.6994,-67.5579 200.6646,-48.5996 243.9737,-38.8333"/>
<polygon fill="#00ff00" stroke="#00ff00" stroke-width=".1219" points="244.8391,-42.2267 253.8541,-36.6608 243.3358,-35.39 244.8391,-42.2267"/>
</g>
<!-- 435&#45;&gt;LEFT -->
<g id="edge31" class="edge">
<title>435&#45;&gt;LEFT</title>
<path fill="none" stroke="#00ff00" stroke-width=".2779" stroke-dasharray="1,5" d="M694.7724,-105.2991C690.5452,-102.4088 685.8794,-99.5922 681.2498,-97.5135 599.8101,-60.9458 495.5344,-42.7597 441.092,-35.2116"/>
<polygon fill="#00ff00" stroke="#00ff00" stroke-width=".2779" points="441.2664,-31.7036 430.8895,-33.8415 440.3347,-38.6414 441.2664,-31.7036"/>
</g>
<!-- 562&#45;&gt;LEFT -->
<g id="edge33" class="edge">
<title>562&#45;&gt;LEFT</title>
<path fill="none" stroke="#00ff00" stroke-width=".2023" d="M556.4251,-105.9748C552.2084,-103.064 547.6344,-100.0687 543.2498,-97.5135 508.4424,-77.2286 466.5246,-57.7239 437.8842,-45.0918"/>
<polygon fill="#00ff00" stroke="#00ff00" stroke-width=".2023" points="439.2744,-41.8797 428.7098,-41.0801 436.4699,-48.2934 439.2744,-41.8797"/>
</g>
</g>
</svg>
