<?xml version="1.0" encoding="UTF-8" standalone="no"?>
<!DOCTYPE svg PUBLIC "-//W3C//DTD SVG 1.1//EN"
 "http://www.w3.org/Graphics/SVG/1.1/DTD/svg11.dtd">
<!-- Generated by graphviz version 2.40.1 (20161225.0304)
 -->
<!-- Title: %3 Pages: 1 -->
<svg width="627pt" height="123pt"
 viewBox="0.00 0.00 627.25 122.51" xmlns="http://www.w3.org/2000/svg" xmlns:xlink="http://www.w3.org/1999/xlink">
<g id="graph0" class="graph" transform="scale(1 1) rotate(0) translate(4 118.5135)">
<title>%3</title>
<polygon fill="#ffffff" stroke="transparent" points="-4,4 -4,-118.5135 623.251,-118.5135 623.251,4 -4,4"/>
<!-- A -->
<g id="node1" class="node">
<title>A</title>
<polygon fill="#d3d3d3" stroke="#000000" points="102.7549,-114.5135 79.7446,-114.5135 79.7446,-97.5135 102.7549,-97.5135 102.7549,-114.5135"/>
<text text-anchor="middle" x="91.2498" y="-103.3135" font-family="Times,serif" font-size="9.00" fill="#000000">A</text>
</g>
<!-- LEFT -->
<g id="node17" class="node">
<title>LEFT</title>
<ellipse fill="#add8e6" stroke="#000000" cx="253.2498" cy="-30.7567" rx="26.5303" ry="26.5303"/>
<text text-anchor="middle" x="253.2498" y="-28.0567" font-family="Times,serif" font-size="9.00" fill="#000000">LEFT</text>
</g>
<!-- A&#45;&gt;LEFT -->
<g id="edge1" class="edge">
<title>A&#45;&gt;LEFT</title>
<path fill="none" stroke="#00ff00" stroke-width=".1769" d="M102.6413,-100.7215C126.6402,-89.5729 183.1947,-63.3006 219.7635,-46.3127"/>
<polygon fill="#00ff00" stroke="#00ff00" stroke-width=".1769" points="221.4562,-49.3857 229.0508,-41.9983 218.507,-43.0372 221.4562,-49.3857"/>
</g>
<!-- RIGHT -->
<g id="node18" class="node">
<title>RIGHT</title>
<ellipse fill="#add8e6" stroke="#000000" cx="329.2498" cy="-30.7567" rx="30.5154" ry="30.5154"/>
<text text-anchor="middle" x="329.2498" y="-28.0567" font-family="Times,serif" font-size="9.00" fill="#000000">RIGHT</text>
</g>
<!-- A&#45;&gt;RIGHT -->
<g id="edge2" class="edge">
<title>A&#45;&gt;RIGHT</title>
<path fill="none" stroke="#00ff00" stroke-width=".2845" d="M102.5234,-100.7526C105.3328,-99.5728 108.367,-98.4075 111.2498,-97.5135 188.3407,-73.6062 215.8015,-94.9788 289.2498,-61.5135 292.0298,-60.2468 294.7948,-58.7544 297.4972,-57.1213"/>
<polygon fill="#00ff00" stroke="#00ff00" stroke-width=".2845" points="299.4905,-59.9988 305.8573,-51.5303 295.5992,-54.1801 299.4905,-59.9988"/>
</g>
<!-- B -->
<g id="node2" class="node">
<title>B</title>
<polygon fill="#d3d3d3" stroke="#000000" points="142.2527,-114.5135 120.2468,-114.5135 120.2468,-97.5135 142.2527,-97.5135 142.2527,-114.5135"/>
<text text-anchor="middle" x="131.2498" y="-103.3135" font-family="Times,serif" font-size="9.00" fill="#000000">B</text>
</g>
<!-- B&#45;&gt;LEFT -->
<g id="edge3" class="edge">
<title>B&#45;&gt;LEFT</title>
<path fill="none" stroke="#00ff00" stroke-width=".2262" d="M142.5085,-99.0684C160.3438,-88.0665 195.7329,-66.2365 221.7241,-50.2036"/>
<polygon fill="#00ff00" stroke="#00ff00" stroke-width=".2262" points="223.8079,-53.0306 230.4813,-44.8016 220.1328,-47.0729 223.8079,-53.0306"/>
</g>
<!-- B&#45;&gt;RIGHT -->
<g id="edge4" class="edge">
<title>B&#45;&gt;RIGHT</title>
<path fill="none" stroke="#ff0000" stroke-width=".2648" d="M142.5602,-100.8658C145.3685,-99.6826 148.3929,-98.4873 151.2498,-97.5135 211.2457,-77.0621 232.3221,-89.3886 289.2498,-61.5135 291.9935,-60.1699 294.7321,-58.6217 297.4159,-56.9494"/>
<polygon fill="#ff0000" stroke="#ff0000" stroke-width=".2648" points="299.4425,-59.8038 305.7411,-51.2845 295.5046,-54.0165 299.4425,-59.8038"/>
</g>
<!-- C -->
<g id="node3" class="node">
<title>C</title>
<polygon fill="#d3d3d3" stroke="#000000" points="182.2527,-114.5135 160.2468,-114.5135 160.2468,-97.5135 182.2527,-97.5135 182.2527,-114.5135"/>
<text text-anchor="middle" x="171.2498" y="-103.3135" font-family="Times,serif" font-size="9.00" fill="#000000">C</text>
</g>
<!-- C&#45;&gt;LEFT -->
<g id="edge5" class="edge">
<title>C&#45;&gt;LEFT</title>
<path fill="none" stroke="#ff0000" stroke-width=".2245" d="M180.6562,-97.3806C191.7187,-87.2277 210.5675,-69.929 226.286,-55.5031"/>
<polygon fill="#ff0000" stroke="#ff0000" stroke-width=".2245" points="228.7022,-58.0362 233.7031,-48.6959 223.969,-52.879 228.7022,-58.0362"/>
</g>
<!-- C&#45;&gt;RIGHT -->
<g id="edge6" class="edge">
<title>C&#45;&gt;RIGHT</title>
<path fill="none" stroke="#ff0000" stroke-width=".3" d="M182.6318,-101.0602C185.4379,-99.8711 188.4434,-98.6244 191.2498,-97.5135 234.3932,-80.4334 248.6129,-83.9129 289.2498,-61.5135 291.9253,-60.0387 294.6142,-58.3949 297.2631,-56.6556"/>
<polygon fill="#ff0000" stroke="#ff0000" stroke-width=".3" points="299.344,-59.4712 305.5227,-50.8646 295.3254,-53.7396 299.344,-59.4712"/>
</g>
<!-- D -->
<g id="node4" class="node">
<title>D</title>
<polygon fill="#d3d3d3" stroke="#000000" points="222.7549,-114.5135 199.7446,-114.5135 199.7446,-97.5135 222.7549,-97.5135 222.7549,-114.5135"/>
<text text-anchor="middle" x="211.2498" y="-103.3135" font-family="Times,serif" font-size="9.00" fill="#000000">D</text>
</g>
<!-- D&#45;&gt;LEFT -->
<g id="edge7" class="edge">
<title>D&#45;&gt;LEFT</title>
<path fill="none" stroke="#ff0000" stroke-width=".2299" d="M216.0677,-97.3806C220.7838,-88.9301 228.2626,-75.5293 235.2803,-62.9548"/>
<polygon fill="#ff0000" stroke="#ff0000" stroke-width=".2299" points="238.4455,-64.4652 240.2627,-54.0273 232.333,-61.0538 238.4455,-64.4652"/>
</g>
<!-- D&#45;&gt;RIGHT -->
<g id="edge8" class="edge">
<title>D&#45;&gt;RIGHT</title>
<path fill="none" stroke="#ff0000" stroke-width=".3" d="M222.6473,-100.1447C238.1036,-92.0449 266.4033,-76.7106 289.2498,-61.5135 291.7114,-59.876 294.2192,-58.1357 296.7182,-56.3482"/>
<polygon fill="#ff0000" stroke="#ff0000" stroke-width=".3" points="299.128,-58.9201 305.101,-50.1694 294.9747,-53.2853 299.128,-58.9201"/>
</g>
<!-- E -->
<g id="node5" class="node">
<title>E</title>
<polygon fill="#d3d3d3" stroke="#000000" points="262.2532,-114.5135 240.2463,-114.5135 240.2463,-97.5135 262.2532,-97.5135 262.2532,-114.5135"/>
<text text-anchor="middle" x="251.2498" y="-103.3135" font-family="Times,serif" font-size="9.00" fill="#000000">E</text>
</g>
<!-- E&#45;&gt;LEFT -->
<g id="edge9" class="edge">
<title>E&#45;&gt;LEFT</title>
<path fill="none" stroke="#00ff00" stroke-width=".3" d="M251.4792,-97.3806C251.6771,-89.9315 251.9773,-78.6359 252.2746,-67.4504"/>
<polygon fill="#00ff00" stroke="#00ff00" stroke-width=".3" points="255.7768,-67.412 252.5438,-57.3225 248.7792,-67.226 255.7768,-67.412"/>
</g>
<!-- E&#45;&gt;RIGHT -->
<g id="edge10" class="edge">
<title>E&#45;&gt;RIGHT</title>
<path fill="none" stroke="#ff0000" stroke-width=".2595" d="M260.1973,-97.3806C269.7186,-88.1942 285.3034,-73.1575 299.2597,-59.692"/>
<polygon fill="#ff0000" stroke="#ff0000" stroke-width=".2595" points="302.0305,-61.8822 306.7968,-52.42 297.1701,-56.8446 302.0305,-61.8822"/>
</g>
<!-- F -->
<g id="node6" class="node">
<title>F</title>
<polygon fill="#d3d3d3" stroke="#000000" points="576.7551,-114.5135 555.7444,-114.5135 555.7444,-97.5135 576.7551,-97.5135 576.7551,-114.5135"/>
<text text-anchor="middle" x="566.2498" y="-103.3135" font-family="Times,serif" font-size="9.00" fill="#000000">F</text>
</g>
<!-- F&#45;&gt;RIGHT -->
<g id="edge11" class="edge">
<title>F&#45;&gt;RIGHT</title>
<path fill="none" stroke="#00ff00" stroke-width=".2625" d="M555.744,-101.3076C552.7062,-100.0127 549.3684,-98.6524 546.2498,-97.5135 485.1092,-75.1844 412.5523,-53.8847 368.7487,-41.5776"/>
<polygon fill="#00ff00" stroke="#00ff00" stroke-width=".2625" points="369.6279,-38.1893 359.0549,-38.8691 367.7441,-44.9311 369.6279,-38.1893"/>
</g>
<!-- G -->
<g id="node7" class="node">
<title>G</title>
<polygon fill="#d3d3d3" stroke="#000000" points="302.7549,-114.5135 279.7446,-114.5135 279.7446,-97.5135 302.7549,-97.5135 302.7549,-114.5135"/>
<text text-anchor="middle" x="291.2498" y="-103.3135" font-family="Times,serif" font-size="9.00" fill="#000000">G</text>
</g>
<!-- G&#45;&gt;LEFT -->
<g id="edge12" class="edge">
<title>G&#45;&gt;LEFT</title>
<path fill="none" stroke="#00ff00" stroke-width=".1508" d="M286.8907,-97.3806C282.7273,-89.1352 276.1841,-76.1769 269.9708,-63.8718"/>
<polygon fill="#00ff00" stroke="#00ff00" stroke-width=".1508" points="272.9604,-62.0273 265.3287,-54.6783 266.7118,-65.1825 272.9604,-62.0273"/>
</g>
<!-- G&#45;&gt;RIGHT -->
<g id="edge13" class="edge">
<title>G&#45;&gt;RIGHT</title>
<path fill="none" stroke="#00ff00" stroke-width=".2738" d="M295.6088,-97.3806C299.3555,-89.9605 305.0294,-78.7236 310.6558,-67.5809"/>
<polygon fill="#00ff00" stroke="#00ff00" stroke-width=".2738" points="313.9444,-68.8331 315.3275,-58.3289 307.6958,-65.6779 313.9444,-68.8331"/>
</g>
<!-- H -->
<g id="node8" class="node">
<title>H</title>
<polygon fill="#d3d3d3" stroke="#000000" points="342.7549,-114.5135 319.7446,-114.5135 319.7446,-97.5135 342.7549,-97.5135 342.7549,-114.5135"/>
<text text-anchor="middle" x="331.2498" y="-103.3135" font-family="Times,serif" font-size="9.00" fill="#000000">H</text>
</g>
<!-- H&#45;&gt;LEFT -->
<g id="edge14" class="edge">
<title>H&#45;&gt;LEFT</title>
<path fill="none" stroke="#00ff00" stroke-width=".3" d="M322.3022,-97.3806C312.0112,-87.4516 294.6368,-70.6882 279.8912,-56.4612"/>
<polygon fill="#00ff00" stroke="#00ff00" stroke-width=".3" points="282.0979,-53.7268 272.4712,-49.3022 277.2375,-58.7644 282.0979,-53.7268"/>
</g>
<!-- H&#45;&gt;RIGHT -->
<g id="edge15" class="edge">
<title>H&#45;&gt;RIGHT</title>
<path fill="none" stroke="#00ff00" stroke-width=".3" d="M331.0203,-97.3806C330.8482,-90.9046 330.5989,-81.5213 330.3413,-71.8306"/>
<polygon fill="#00ff00" stroke="#00ff00" stroke-width=".3" points="333.8374,-71.6331 330.0729,-61.7297 326.8399,-71.8192 333.8374,-71.6331"/>
</g>
<!-- I -->
<g id="node9" class="node">
<title>I</title>
<polygon fill="#d3d3d3" stroke="#000000" points="379.7468,-114.5135 360.7527,-114.5135 360.7527,-97.5135 379.7468,-97.5135 379.7468,-114.5135"/>
<text text-anchor="middle" x="370.2498" y="-103.3135" font-family="Times,serif" font-size="9.00" fill="#000000">I</text>
</g>
<!-- I&#45;&gt;LEFT -->
<g id="edge16" class="edge">
<title>I&#45;&gt;LEFT</title>
<path fill="none" stroke="#ff0000" stroke-width=".3" d="M360.3957,-101.4163C344.7563,-93.9432 313.5374,-78.2974 289.2498,-61.5135 286.3904,-59.5375 283.4935,-57.3752 280.6495,-55.1422"/>
<polygon fill="#ff0000" stroke="#ff0000" stroke-width=".3" points="282.8046,-52.3831 272.8496,-48.757 278.3705,-57.7997 282.8046,-52.3831"/>
</g>
<!-- I&#45;&gt;RIGHT -->
<g id="edge17" class="edge">
<title>I&#45;&gt;RIGHT</title>
<path fill="none" stroke="#00ff00" stroke-width=".2928" d="M365.5465,-97.3806C361.4305,-89.8254 355.1585,-78.3131 348.98,-66.9722"/>
<polygon fill="#00ff00" stroke="#00ff00" stroke-width=".2928" points="351.9456,-65.0995 344.0879,-57.9926 345.7986,-68.4485 351.9456,-65.0995"/>
</g>
<!-- J -->
<g id="node10" class="node">
<title>J</title>
<polygon fill="#d3d3d3" stroke="#000000" points="416.7584,-114.5135 397.7411,-114.5135 397.7411,-97.5135 416.7584,-97.5135 416.7584,-114.5135"/>
<text text-anchor="middle" x="407.2498" y="-103.3135" font-family="Times,serif" font-size="9.00" fill="#000000">J</text>
</g>
<!-- J&#45;&gt;LEFT -->
<g id="edge18" class="edge">
<title>J&#45;&gt;LEFT</title>
<path fill="none" stroke="#ff0000" stroke-width=".3" d="M397.6416,-101.5539C394.6519,-100.2098 391.3313,-98.7612 388.2498,-97.5135 344.8532,-79.9425 329.6951,-85.0968 289.2498,-61.5135 286.2472,-59.7627 283.2545,-57.7513 280.3502,-55.613"/>
<polygon fill="#ff0000" stroke="#ff0000" stroke-width=".3" points="282.4755,-52.8315 272.4648,-49.3623 278.1271,-58.3171 282.4755,-52.8315"/>
</g>
<!-- J&#45;&gt;RIGHT -->
<g id="edge19" class="edge">
<title>J&#45;&gt;RIGHT</title>
<path fill="none" stroke="#00ff00" stroke-width=".2405" d="M398.3022,-97.3806C388.7809,-88.1942 373.1961,-73.1575 359.2398,-59.692"/>
<polygon fill="#00ff00" stroke="#00ff00" stroke-width=".2405" points="361.3294,-56.8446 351.7027,-52.42 356.469,-61.8822 361.3294,-56.8446"/>
</g>
<!-- K -->
<g id="node11" class="node">
<title>K</title>
<polygon fill="#d3d3d3" stroke="#000000" points="457.7549,-114.5135 434.7446,-114.5135 434.7446,-97.5135 457.7549,-97.5135 457.7549,-114.5135"/>
<text text-anchor="middle" x="446.2498" y="-103.3135" font-family="Times,serif" font-size="9.00" fill="#000000">K</text>
</g>
<!-- K&#45;&gt;LEFT -->
<g id="edge20" class="edge">
<title>K&#45;&gt;LEFT</title>
<path fill="none" stroke="#00ff00" stroke-width=".2701" d="M434.9381,-100.8694C432.1298,-99.6861 429.1057,-98.4898 426.2498,-97.5135 366.6788,-77.1477 345.0334,-90.6963 289.2498,-61.5135 286.17,-59.9023 283.1256,-57.9844 280.1888,-55.905"/>
<polygon fill="#00ff00" stroke="#00ff00" stroke-width=".2701" points="282.3001,-53.1131 272.2573,-49.7376 278.0032,-58.6391 282.3001,-53.1131"/>
</g>
<!-- K&#45;&gt;RIGHT -->
<g id="edge21" class="edge">
<title>K&#45;&gt;RIGHT</title>
<path fill="none" stroke="#00ff00" stroke-width=".2514" d="M434.6036,-98.5224C418.2335,-87.9928 387.737,-68.3769 363.7516,-52.949"/>
<polygon fill="#00ff00" stroke="#00ff00" stroke-width=".2514" points="365.5515,-49.9452 355.2476,-47.4791 361.7646,-55.8325 365.5515,-49.9452"/>
</g>
<!-- L -->
<g id="node12" class="node">
<title>L</title>
<polygon fill="#d3d3d3" stroke="#000000" points="497.2532,-114.5135 475.2463,-114.5135 475.2463,-97.5135 497.2532,-97.5135 497.2532,-114.5135"/>
<text text-anchor="middle" x="486.2498" y="-103.3135" font-family="Times,serif" font-size="9.00" fill="#000000">L</text>
</g>
<!-- L&#45;&gt;LEFT -->
<g id="edge22" class="edge">
<title>L&#45;&gt;LEFT</title>
<path fill="none" stroke="#00ff00" stroke-width=".1137" d="M475.3951,-100.9319C472.4698,-99.6922 469.2762,-98.4538 466.2498,-97.5135 389.5879,-73.6931 361.4008,-96.7082 289.2498,-61.5135 286.1259,-59.9897 283.0519,-58.1302 280.0965,-56.0876"/>
<polygon fill="#00ff00" stroke="#00ff00" stroke-width=".1137" points="282.2006,-53.2904 272.1387,-49.9724 277.9353,-58.8409 282.2006,-53.2904"/>
</g>
<!-- L&#45;&gt;RIGHT -->
<g id="edge23" class="edge">
<title>L&#45;&gt;RIGHT</title>
<path fill="none" stroke="#ff0000" stroke-width=".1391" d="M475.4585,-100.8408C453.3272,-90.2323 401.895,-65.5786 366.3409,-48.5361"/>
<polygon fill="#ff0000" stroke="#ff0000" stroke-width=".1391" points="367.7525,-45.3314 357.222,-44.165 364.7267,-51.6437 367.7525,-45.3314"/>
</g>
<!-- M -->
<g id="node13" class="node">
<title>M</title>
<polygon fill="#d3d3d3" stroke="#000000" points="619.2522,-114.5135 595.2473,-114.5135 595.2473,-97.5135 619.2522,-97.5135 619.2522,-114.5135"/>
<text text-anchor="middle" x="607.2498" y="-103.3135" font-family="Times,serif" font-size="9.00" fill="#000000">M</text>
</g>
<!-- M&#45;&gt;RIGHT -->
<g id="edge24" class="edge">
<title>M&#45;&gt;RIGHT</title>
<path fill="none" stroke="#ff0000" stroke-width=".188" d="M594.9126,-100.7081C592.0916,-99.5824 589.0878,-98.452 586.2498,-97.5135 510.9078,-72.5985 420.6857,-51.0061 369.6612,-39.5332"/>
<polygon fill="#ff0000" stroke="#ff0000" stroke-width=".188" points="370.2135,-36.0705 359.6912,-37.3083 368.6888,-42.9024 370.2135,-36.0705"/>
</g>
<!-- N -->
<g id="node14" class="node">
<title>N</title>
<polygon fill="#d3d3d3" stroke="#000000" points="537.7549,-114.5135 514.7446,-114.5135 514.7446,-97.5135 537.7549,-97.5135 537.7549,-114.5135"/>
<text text-anchor="middle" x="526.2498" y="-103.3135" font-family="Times,serif" font-size="9.00" fill="#000000">N</text>
</g>
<!-- N&#45;&gt;LEFT -->
<g id="edge25" class="edge">
<title>N&#45;&gt;LEFT</title>
<path fill="none" stroke="#00ff00" stroke-width=".1402" d="M514.9978,-100.6805C512.1877,-99.5029 509.1478,-98.3567 506.2498,-97.5135 412.3796,-70.2017 377.8785,-102.7745 289.2498,-61.5135 286.0988,-60.0465 283.0067,-58.2252 280.0399,-56.2065"/>
<polygon fill="#00ff00" stroke="#00ff00" stroke-width=".1402" points="282.1398,-53.4063 272.0658,-50.1252 277.8949,-58.9724 282.1398,-53.4063"/>
</g>
<!-- N&#45;&gt;RIGHT -->
<g id="edge26" class="edge">
<title>N&#45;&gt;RIGHT</title>
<path fill="none" stroke="#00ff00" stroke-width=".1037" d="M514.8609,-101.0774C512.055,-99.8878 509.0513,-98.6365 506.2498,-97.5135 458.8807,-78.5241 403.8029,-57.9916 367.8274,-44.7858"/>
<polygon fill="#00ff00" stroke="#00ff00" stroke-width=".1037" points="368.803,-41.4158 358.2093,-41.2628 366.3953,-47.9888 368.803,-41.4158"/>
</g>
<!-- O -->
<g id="node15" class="node">
<title>O</title>
<polygon fill="#d3d3d3" stroke="#000000" points="22.7549,-114.5135 -.2554,-114.5135 -.2554,-97.5135 22.7549,-97.5135 22.7549,-114.5135"/>
<text text-anchor="middle" x="11.2498" y="-103.3135" font-family="Times,serif" font-size="9.00" fill="#000000">O</text>
</g>
<!-- O&#45;&gt;LEFT -->
<g id="edge27" class="edge">
<title>O&#45;&gt;LEFT</title>
<path fill="none" stroke="#ff0000" stroke-width=".1171" d="M22.5864,-100.9403C25.3939,-99.7548 28.4114,-98.5399 31.2498,-97.5135 96.0328,-74.0867 173.4313,-52.1433 217.6137,-40.1727"/>
<polygon fill="#ff0000" stroke="#ff0000" stroke-width=".1171" points="218.5663,-43.5409 227.3122,-37.5609 216.746,-36.7818 218.5663,-43.5409"/>
</g>
<!-- O&#45;&gt;RIGHT -->
<g id="edge28" class="edge">
<title>O&#45;&gt;RIGHT</title>
<path fill="none" stroke="#ff0000" stroke-width=".3" d="M22.9099,-100.4515C25.6012,-99.3391 28.4865,-98.279 31.2498,-97.5135 142.8249,-66.6035 182.4799,-106.2867 289.2498,-61.5135 292.2388,-60.26 295.1994,-58.7264 298.0773,-57.0198"/>
<polygon fill="#ff0000" stroke="#ff0000" stroke-width=".3" points="300.0138,-59.9354 306.4089,-51.4882 296.1419,-54.1036 300.0138,-59.9354"/>
</g>
<!-- P -->
<g id="node16" class="node">
<title>P</title>
<polygon fill="#d3d3d3" stroke="#000000" points="61.7551,-114.5135 40.7444,-114.5135 40.7444,-97.5135 61.7551,-97.5135 61.7551,-114.5135"/>
<text text-anchor="middle" x="51.2498" y="-103.3135" font-family="Times,serif" font-size="9.00" fill="#000000">P</text>
</g>
<!-- P&#45;&gt;LEFT -->
<g id="edge29" class="edge">
<title>P&#45;&gt;LEFT</title>
<path fill="none" stroke="#00ff00" stroke-width=".2775" d="M61.796,-101.4141C64.8345,-100.1209 68.1625,-98.7348 71.2498,-97.5135 122.0258,-77.426 181.5446,-55.9863 218.3291,-42.9768"/>
<polygon fill="#00ff00" stroke="#00ff00" stroke-width=".2775" points="219.8089,-46.1663 228.0752,-39.5391 217.4804,-39.5649 219.8089,-46.1663"/>
</g>
<!-- P&#45;&gt;RIGHT -->
<g id="edge30" class="edge">
<title>P&#45;&gt;RIGHT</title>
<path fill="none" stroke="#00ff00" stroke-width=".3" d="M62.0815,-100.8558C65.007,-99.6168 68.2065,-98.3977 71.2498,-97.5135 165.551,-70.1141 199.171,-100.6195 289.2498,-61.5135 292.2229,-60.2227 295.1721,-58.6626 298.0424,-56.938"/>
<polygon fill="#00ff00" stroke="#00ff00" stroke-width=".3" points="299.9937,-59.8435 306.3606,-51.3751 296.1024,-54.0248 299.9937,-59.8435"/>
</g>
</g>
</svg>
