<?xml version="1.0" encoding="UTF-8" standalone="no"?>
<!DOCTYPE svg PUBLIC "-//W3C//DTD SVG 1.1//EN"
 "http://www.w3.org/Graphics/SVG/1.1/DTD/svg11.dtd">
<!-- Generated by graphviz version 2.40.1 (20161225.0304)
 -->
<!-- Title: %3 Pages: 1 -->
<svg width="626pt" height="123pt"
 viewBox="0.00 0.00 625.75 122.51" xmlns="http://www.w3.org/2000/svg" xmlns:xlink="http://www.w3.org/1999/xlink">
<g id="graph0" class="graph" transform="scale(1 1) rotate(0) translate(4 118.5135)">
<title>%3</title>
<polygon fill="#ffffff" stroke="transparent" points="-4,4 -4,-118.5135 621.7524,-118.5135 621.7524,4 -4,4"/>
<!-- A -->
<g id="node1" class="node">
<title>A</title>
<polygon fill="#d3d3d3" stroke="#000000" points="264.7549,-114.5135 241.7446,-114.5135 241.7446,-97.5135 264.7549,-97.5135 264.7549,-114.5135"/>
<text text-anchor="middle" x="253.2498" y="-103.3135" font-family="Times,serif" font-size="9.00" fill="#000000">A</text>
</g>
<!-- LEFT -->
<g id="node17" class="node">
<title>LEFT</title>
<ellipse fill="#add8e6" stroke="#000000" cx="258.2498" cy="-30.7567" rx="26.5303" ry="26.5303"/>
<text text-anchor="middle" x="258.2498" y="-28.0567" font-family="Times,serif" font-size="9.00" fill="#000000">LEFT</text>
</g>
<!-- A&#45;&gt;LEFT -->
<g id="edge1" class="edge">
<title>A&#45;&gt;LEFT</title>
<path fill="none" stroke="#00ff00" stroke-width=".1769" d="M253.8233,-97.3806C254.3182,-89.9315 255.0687,-78.6359 255.8119,-67.4504"/>
<polygon fill="#00ff00" stroke="#00ff00" stroke-width=".1769" points="259.314,-67.5326 256.4847,-57.3225 252.3294,-67.0685 259.314,-67.5326"/>
</g>
<!-- RIGHT -->
<g id="node18" class="node">
<title>RIGHT</title>
<ellipse fill="#add8e6" stroke="#000000" cx="333.2498" cy="-30.7567" rx="30.5154" ry="30.5154"/>
<text text-anchor="middle" x="333.2498" y="-28.0567" font-family="Times,serif" font-size="9.00" fill="#000000">RIGHT</text>
</g>
<!-- A&#45;&gt;RIGHT -->
<g id="edge2" class="edge">
<title>A&#45;&gt;RIGHT</title>
<path fill="none" stroke="#00ff00" stroke-width=".2845" d="M262.4268,-97.3806C272.3525,-88.0433 288.7031,-72.6622 303.1943,-59.0301"/>
<polygon fill="#00ff00" stroke="#00ff00" stroke-width=".2845" points="305.6734,-61.5033 310.559,-52.1021 300.8771,-56.4047 305.6734,-61.5033"/>
</g>
<!-- B -->
<g id="node2" class="node">
<title>B</title>
<polygon fill="#d3d3d3" stroke="#000000" points="304.2527,-114.5135 282.2468,-114.5135 282.2468,-97.5135 304.2527,-97.5135 304.2527,-114.5135"/>
<text text-anchor="middle" x="293.2498" y="-103.3135" font-family="Times,serif" font-size="9.00" fill="#000000">B</text>
</g>
<!-- B&#45;&gt;LEFT -->
<g id="edge3" class="edge">
<title>B&#45;&gt;LEFT</title>
<path fill="none" stroke="#00ff00" stroke-width=".2262" d="M289.2348,-97.3806C285.4287,-89.1968 279.4634,-76.3701 273.7789,-64.1474"/>
<polygon fill="#00ff00" stroke="#00ff00" stroke-width=".2262" points="276.9178,-62.5968 269.5272,-55.0054 270.5707,-65.5487 276.9178,-62.5968"/>
</g>
<!-- B&#45;&gt;RIGHT -->
<g id="edge4" class="edge">
<title>B&#45;&gt;RIGHT</title>
<path fill="none" stroke="#ff0000" stroke-width=".2648" d="M297.8383,-97.3806C301.854,-89.8254 307.9729,-78.3131 314.0007,-66.9722"/>
<polygon fill="#ff0000" stroke="#ff0000" stroke-width=".2648" points="317.1706,-68.4655 318.7735,-57.9926 310.9895,-65.1801 317.1706,-68.4655"/>
</g>
<!-- C -->
<g id="node3" class="node">
<title>C</title>
<polygon fill="#d3d3d3" stroke="#000000" points="344.2527,-114.5135 322.2468,-114.5135 322.2468,-97.5135 344.2527,-97.5135 344.2527,-114.5135"/>
<text text-anchor="middle" x="333.2498" y="-103.3135" font-family="Times,serif" font-size="9.00" fill="#000000">C</text>
</g>
<!-- C&#45;&gt;LEFT -->
<g id="edge5" class="edge">
<title>C&#45;&gt;LEFT</title>
<path fill="none" stroke="#ff0000" stroke-width=".2245" d="M324.6463,-97.3806C314.8167,-87.5173 298.266,-70.9099 284.1485,-56.7442"/>
<polygon fill="#ff0000" stroke="#ff0000" stroke-width=".2245" points="286.5744,-54.2201 277.0363,-49.6076 281.6162,-59.1614 286.5744,-54.2201"/>
</g>
<!-- C&#45;&gt;RIGHT -->
<g id="edge6" class="edge">
<title>C&#45;&gt;RIGHT</title>
<path fill="none" stroke="#ff0000" stroke-width=".3" d="M333.2498,-97.3806C333.2498,-90.9046 333.2498,-81.5213 333.2498,-71.8306"/>
<polygon fill="#ff0000" stroke="#ff0000" stroke-width=".3" points="336.7499,-71.7296 333.2498,-61.7297 329.7499,-71.7297 336.7499,-71.7296"/>
</g>
<!-- D -->
<g id="node4" class="node">
<title>D</title>
<polygon fill="#d3d3d3" stroke="#000000" points="384.7549,-114.5135 361.7446,-114.5135 361.7446,-97.5135 384.7549,-97.5135 384.7549,-114.5135"/>
<text text-anchor="middle" x="373.2498" y="-103.3135" font-family="Times,serif" font-size="9.00" fill="#000000">D</text>
</g>
<!-- D&#45;&gt;LEFT -->
<g id="edge7" class="edge">
<title>D&#45;&gt;LEFT</title>
<path fill="none" stroke="#ff0000" stroke-width=".2299" d="M361.9335,-100.6786C346.0138,-92.9636 316.3674,-77.819 293.2498,-61.5135 290.6056,-59.6485 287.9333,-57.6154 285.3061,-55.5123"/>
<polygon fill="#ff0000" stroke="#ff0000" stroke-width=".2299" points="287.5485,-52.825 277.6335,-49.091 283.0559,-58.1931 287.5485,-52.825"/>
</g>
<!-- D&#45;&gt;RIGHT -->
<g id="edge8" class="edge">
<title>D&#45;&gt;RIGHT</title>
<path fill="none" stroke="#ff0000" stroke-width=".3" d="M368.6612,-97.3806C364.6456,-89.8254 358.5266,-78.3131 352.4988,-66.9722"/>
<polygon fill="#ff0000" stroke="#ff0000" stroke-width=".3" points="355.51,-65.1801 347.726,-57.9926 349.3289,-68.4655 355.51,-65.1801"/>
</g>
<!-- E -->
<g id="node5" class="node">
<title>E</title>
<polygon fill="#d3d3d3" stroke="#000000" points="424.2532,-114.5135 402.2463,-114.5135 402.2463,-97.5135 424.2532,-97.5135 424.2532,-114.5135"/>
<text text-anchor="middle" x="413.2498" y="-103.3135" font-family="Times,serif" font-size="9.00" fill="#000000">E</text>
</g>
<!-- E&#45;&gt;LEFT -->
<g id="edge9" class="edge">
<title>E&#45;&gt;LEFT</title>
<path fill="none" stroke="#00ff00" stroke-width=".3" d="M402.2922,-101.2252C399.3677,-99.9833 396.2002,-98.6704 393.2498,-97.5135 349.2734,-80.2685 333.928,-85.5258 293.2498,-61.5135 290.5504,-59.92 287.8663,-58.1043 285.2547,-56.1701"/>
<polygon fill="#00ff00" stroke="#00ff00" stroke-width=".3" points="287.2158,-53.2557 277.23,-49.7153 282.8284,-58.7102 287.2158,-53.2557"/>
</g>
<!-- E&#45;&gt;RIGHT -->
<g id="edge10" class="edge">
<title>E&#45;&gt;RIGHT</title>
<path fill="none" stroke="#ff0000" stroke-width=".2595" d="M404.0727,-97.3806C394.147,-88.0433 377.7965,-72.6622 363.3052,-59.0301"/>
<polygon fill="#ff0000" stroke="#ff0000" stroke-width=".2595" points="365.6224,-56.4047 355.9405,-52.1021 360.8261,-61.5033 365.6224,-56.4047"/>
</g>
<!-- F -->
<g id="node6" class="node">
<title>F</title>
<polygon fill="#d3d3d3" stroke="#000000" points="617.7551,-114.5135 596.7444,-114.5135 596.7444,-97.5135 617.7551,-97.5135 617.7551,-114.5135"/>
<text text-anchor="middle" x="607.2498" y="-103.3135" font-family="Times,serif" font-size="9.00" fill="#000000">F</text>
</g>
<!-- F&#45;&gt;RIGHT -->
<g id="edge11" class="edge">
<title>F&#45;&gt;RIGHT</title>
<path fill="none" stroke="#00ff00" stroke-width=".2625" d="M596.5233,-100.8456C593.8549,-99.663 590.9768,-98.4731 588.2498,-97.5135 513.9399,-71.3649 424.2662,-50.1978 373.4902,-39.1361"/>
<polygon fill="#00ff00" stroke="#00ff00" stroke-width=".2625" points="374.0806,-35.683 363.5674,-36.9954 372.6044,-42.5256 374.0806,-35.683"/>
</g>
<!-- G -->
<g id="node7" class="node">
<title>G</title>
<polygon fill="#d3d3d3" stroke="#000000" points="464.7549,-114.5135 441.7446,-114.5135 441.7446,-97.5135 464.7549,-97.5135 464.7549,-114.5135"/>
<text text-anchor="middle" x="453.2498" y="-103.3135" font-family="Times,serif" font-size="9.00" fill="#000000">G</text>
</g>
<!-- G&#45;&gt;LEFT -->
<g id="edge12" class="edge">
<title>G&#45;&gt;LEFT</title>
<path fill="none" stroke="#00ff00" stroke-width=".1508" d="M441.9417,-100.8587C439.1333,-99.6757 436.1083,-98.4823 433.2498,-97.5135 372.4032,-76.8906 350.0473,-91.5409 293.2498,-61.5135 290.4786,-60.0484 287.7445,-58.3222 285.0996,-56.4475"/>
<polygon fill="#00ff00" stroke="#00ff00" stroke-width=".1508" points="287.0434,-53.5233 277.0198,-50.0912 282.7153,-59.025 287.0434,-53.5233"/>
</g>
<!-- G&#45;&gt;RIGHT -->
<g id="edge13" class="edge">
<title>G&#45;&gt;RIGHT</title>
<path fill="none" stroke="#00ff00" stroke-width=".2738" d="M441.7437,-98.7975C424.9516,-88.2666 393.0236,-68.2433 368.1328,-52.6333"/>
<polygon fill="#00ff00" stroke="#00ff00" stroke-width=".2738" points="369.9899,-49.6666 359.6585,-47.3187 366.2708,-55.5969 369.9899,-49.6666"/>
</g>
<!-- H -->
<g id="node8" class="node">
<title>H</title>
<polygon fill="#d3d3d3" stroke="#000000" points="504.7549,-114.5135 481.7446,-114.5135 481.7446,-97.5135 504.7549,-97.5135 504.7549,-114.5135"/>
<text text-anchor="middle" x="493.2498" y="-103.3135" font-family="Times,serif" font-size="9.00" fill="#000000">H</text>
</g>
<!-- H&#45;&gt;LEFT -->
<g id="edge14" class="edge">
<title>H&#45;&gt;LEFT</title>
<path fill="none" stroke="#00ff00" stroke-width=".3" d="M481.9775,-100.7481C479.1681,-99.5685 476.1335,-98.4043 473.2498,-97.5135 395.3004,-73.4322 366.3834,-97.6725 293.2498,-61.5135 290.2767,-60.0435 287.3582,-58.2555 284.5531,-56.289"/>
<polygon fill="#00ff00" stroke="#00ff00" stroke-width=".3" points="286.5629,-53.4171 276.5364,-49.9937 282.2396,-58.9225 286.5629,-53.4171"/>
</g>
<!-- H&#45;&gt;RIGHT -->
<g id="edge15" class="edge">
<title>H&#45;&gt;RIGHT</title>
<path fill="none" stroke="#00ff00" stroke-width=".3" d="M481.9989,-100.7215C459.2103,-90.0029 406.7005,-65.3046 370.5866,-48.3183"/>
<polygon fill="#00ff00" stroke="#00ff00" stroke-width=".3" points="371.8694,-45.0538 361.3307,-43.9647 368.89,-51.3882 371.8694,-45.0538"/>
</g>
<!-- I -->
<g id="node9" class="node">
<title>I</title>
<polygon fill="#d3d3d3" stroke="#000000" points="541.7468,-114.5135 522.7527,-114.5135 522.7527,-97.5135 541.7468,-97.5135 541.7468,-114.5135"/>
<text text-anchor="middle" x="532.2498" y="-103.3135" font-family="Times,serif" font-size="9.00" fill="#000000">I</text>
</g>
<!-- I&#45;&gt;LEFT -->
<g id="edge16" class="edge">
<title>I&#45;&gt;LEFT</title>
<path fill="none" stroke="#ff0000" stroke-width=".3" d="M522.3769,-101.0166C519.4927,-99.7171 516.2957,-98.4271 513.2498,-97.5135 418.3493,-69.046 382.8242,-103.8562 293.2498,-61.5135 290.2513,-60.0961 287.3156,-58.3438 284.4993,-56.4002"/>
<polygon fill="#ff0000" stroke="#ff0000" stroke-width=".3" points="286.505,-53.5259 276.466,-50.1393 282.2019,-59.0472 286.505,-53.5259"/>
</g>
<!-- I&#45;&gt;RIGHT -->
<g id="edge17" class="edge">
<title>I&#45;&gt;RIGHT</title>
<path fill="none" stroke="#00ff00" stroke-width=".2928" d="M522.6367,-101.566C519.6467,-100.2224 516.3273,-98.771 513.2498,-97.5135 465.1651,-77.8657 408.916,-57.3994 372.264,-44.3928"/>
<polygon fill="#00ff00" stroke="#00ff00" stroke-width=".2928" points="373.0638,-40.9633 362.469,-40.929 370.73,-47.5628 373.0638,-40.9633"/>
</g>
<!-- J -->
<g id="node10" class="node">
<title>J</title>
<polygon fill="#d3d3d3" stroke="#000000" points="578.7584,-114.5135 559.7411,-114.5135 559.7411,-97.5135 578.7584,-97.5135 578.7584,-114.5135"/>
<text text-anchor="middle" x="569.2498" y="-103.3135" font-family="Times,serif" font-size="9.00" fill="#000000">J</text>
</g>
<!-- J&#45;&gt;LEFT -->
<g id="edge18" class="edge">
<title>J&#45;&gt;LEFT</title>
<path fill="none" stroke="#ff0000" stroke-width=".3" d="M559.3902,-100.9712C556.5062,-99.671 553.306,-98.392 550.2498,-97.5135 439.4015,-65.6484 398.0844,-109.6011 293.2498,-61.5135 290.2352,-60.1307 287.2885,-58.4019 284.4652,-56.4734"/>
<polygon fill="#ff0000" stroke="#ff0000" stroke-width=".3" points="286.4684,-53.5978 276.4213,-50.2353 282.1786,-59.1293 286.4684,-53.5978"/>
</g>
<!-- J&#45;&gt;RIGHT -->
<g id="edge19" class="edge">
<title>J&#45;&gt;RIGHT</title>
<path fill="none" stroke="#00ff00" stroke-width=".2405" d="M559.6791,-101.458C556.6908,-100.11 553.3617,-98.6832 550.2498,-97.5135 489.3217,-74.6109 416.7031,-53.4776 372.829,-41.3609"/>
<polygon fill="#00ff00" stroke="#00ff00" stroke-width=".2405" points="373.6883,-37.9674 363.1187,-38.6969 371.8363,-44.7179 373.6883,-37.9674"/>
</g>
<!-- K -->
<g id="node11" class="node">
<title>K</title>
<polygon fill="#d3d3d3" stroke="#000000" points="22.7549,-114.5135 -.2554,-114.5135 -.2554,-97.5135 22.7549,-97.5135 22.7549,-114.5135"/>
<text text-anchor="middle" x="11.2498" y="-103.3135" font-family="Times,serif" font-size="9.00" fill="#000000">K</text>
</g>
<!-- K&#45;&gt;LEFT -->
<g id="edge20" class="edge">
<title>K&#45;&gt;LEFT</title>
<path fill="none" stroke="#00ff00" stroke-width=".2701" d="M22.582,-100.928C25.3896,-99.743 28.4083,-98.5312 31.2498,-97.5135 97.8034,-73.6752 177.4606,-51.719 222.5274,-39.8872"/>
<polygon fill="#00ff00" stroke="#00ff00" stroke-width=".2701" points="223.6136,-43.2211 232.4066,-37.3105 221.8469,-36.4477 223.6136,-43.2211"/>
</g>
<!-- K&#45;&gt;RIGHT -->
<g id="edge21" class="edge">
<title>K&#45;&gt;RIGHT</title>
<path fill="none" stroke="#00ff00" stroke-width=".2514" d="M22.9085,-100.4461C25.5998,-99.334 28.4855,-98.2754 31.2498,-97.5135 144.9872,-66.1638 185.6717,-107.6634 294.2498,-61.5135 296.9281,-60.375 299.5781,-59.0022 302.1607,-57.4766"/>
<polygon fill="#00ff00" stroke="#00ff00" stroke-width=".2514" points="304.2557,-60.2862 310.6247,-51.8194 300.3659,-54.4664 304.2557,-60.2862"/>
</g>
<!-- L -->
<g id="node12" class="node">
<title>L</title>
<polygon fill="#d3d3d3" stroke="#000000" points="62.2532,-114.5135 40.2463,-114.5135 40.2463,-97.5135 62.2532,-97.5135 62.2532,-114.5135"/>
<text text-anchor="middle" x="51.2498" y="-103.3135" font-family="Times,serif" font-size="9.00" fill="#000000">L</text>
</g>
<!-- L&#45;&gt;LEFT -->
<g id="edge22" class="edge">
<title>L&#45;&gt;LEFT</title>
<path fill="none" stroke="#00ff00" stroke-width=".1137" d="M62.2052,-101.2199C65.1298,-99.978 68.2978,-98.6665 71.2498,-97.5135 123.8634,-76.9625 185.7359,-55.3702 223.4595,-42.4891"/>
<polygon fill="#00ff00" stroke="#00ff00" stroke-width=".1137" points="224.6317,-45.7873 232.9703,-39.2515 222.3759,-39.1608 224.6317,-45.7873"/>
</g>
<!-- L&#45;&gt;RIGHT -->
<g id="edge23" class="edge">
<title>L&#45;&gt;RIGHT</title>
<path fill="none" stroke="#ff0000" stroke-width=".1391" d="M62.0794,-100.8484C65.0049,-99.6094 68.2049,-98.3922 71.2498,-97.5135 167.7075,-69.6761 202.3334,-101.8915 294.2498,-61.5135 296.9143,-60.343 299.5541,-58.9465 302.1294,-57.404"/>
<polygon fill="#ff0000" stroke="#ff0000" stroke-width=".1391" points="304.2398,-60.2025 310.5789,-51.7133 300.3294,-54.3965 304.2398,-60.2025"/>
</g>
<!-- M -->
<g id="node13" class="node">
<title>M</title>
<polygon fill="#d3d3d3" stroke="#000000" points="104.2522,-114.5135 80.2473,-114.5135 80.2473,-97.5135 104.2522,-97.5135 104.2522,-114.5135"/>
<text text-anchor="middle" x="92.2498" y="-103.3135" font-family="Times,serif" font-size="9.00" fill="#000000">M</text>
</g>
<!-- M&#45;&gt;LEFT -->
<g id="edge24" class="edge">
<title>M&#45;&gt;LEFT</title>
<path fill="none" stroke="#ff0000" stroke-width=".1271" stroke-dasharray="1,5" d="M104.4561,-100.4796C129.4747,-89.1374 187.3405,-62.9037 224.5244,-46.0463"/>
<polygon fill="#ff0000" stroke="#ff0000" stroke-width=".1271" points="226.2966,-49.0858 233.9592,-41.769 223.4062,-42.7103 226.2966,-49.0858"/>
</g>
<!-- M&#45;&gt;RIGHT -->
<g id="edge25" class="edge">
<title>M&#45;&gt;RIGHT</title>
<path fill="none" stroke="#ff0000" stroke-width=".188" d="M104.5485,-100.5858C107.3714,-99.4665 110.3858,-98.3696 113.2498,-97.5135 191.8341,-74.0228 219.7666,-95.8582 294.2498,-61.5135 296.8926,-60.2948 299.5164,-58.8629 302.0804,-57.2952"/>
<polygon fill="#ff0000" stroke="#ff0000" stroke-width=".188" points="304.2135,-60.077 310.5072,-51.5541 300.2723,-54.292 304.2135,-60.077"/>
</g>
<!-- N -->
<g id="node14" class="node">
<title>N</title>
<polygon fill="#d3d3d3" stroke="#000000" points="144.7549,-114.5135 121.7446,-114.5135 121.7446,-97.5135 144.7549,-97.5135 144.7549,-114.5135"/>
<text text-anchor="middle" x="133.2498" y="-103.3135" font-family="Times,serif" font-size="9.00" fill="#000000">N</text>
</g>
<!-- N&#45;&gt;LEFT -->
<g id="edge26" class="edge">
<title>N&#45;&gt;LEFT</title>
<path fill="none" stroke="#00ff00" stroke-width=".1402" d="M144.7854,-99.0684C163.2477,-87.9531 200.0681,-65.7852 226.7694,-49.7096"/>
<polygon fill="#00ff00" stroke="#00ff00" stroke-width=".1402" points="228.6337,-52.6726 235.3955,-44.5162 225.0231,-46.6756 228.6337,-52.6726"/>
</g>
<!-- N&#45;&gt;RIGHT -->
<g id="edge27" class="edge">
<title>N&#45;&gt;RIGHT</title>
<path fill="none" stroke="#00ff00" stroke-width=".1037" d="M144.5566,-100.8552C147.365,-99.6723 150.3904,-98.4799 153.2498,-97.5135 214.5218,-76.8049 236.2635,-90.1615 294.2498,-61.5135 296.6174,-60.3437 298.9766,-59.0137 301.2957,-57.5785"/>
<polygon fill="#00ff00" stroke="#00ff00" stroke-width=".1037" points="303.6988,-60.175 309.9733,-51.638 299.7445,-54.3988 303.6988,-60.175"/>
</g>
<!-- O -->
<g id="node15" class="node">
<title>O</title>
<polygon fill="#d3d3d3" stroke="#000000" points="184.7549,-114.5135 161.7446,-114.5135 161.7446,-97.5135 184.7549,-97.5135 184.7549,-114.5135"/>
<text text-anchor="middle" x="173.2498" y="-103.3135" font-family="Times,serif" font-size="9.00" fill="#000000">O</text>
</g>
<!-- O&#45;&gt;LEFT -->
<g id="edge28" class="edge">
<title>O&#45;&gt;LEFT</title>
<path fill="none" stroke="#ff0000" stroke-width=".1171" d="M183.0003,-97.3806C194.5425,-87.1614 214.2617,-69.7026 230.6186,-55.2206"/>
<polygon fill="#ff0000" stroke="#ff0000" stroke-width=".1171" points="233.1607,-57.6446 238.3277,-48.3951 228.5204,-52.4036 233.1607,-57.6446"/>
</g>
<!-- O&#45;&gt;RIGHT -->
<g id="edge29" class="edge">
<title>O&#45;&gt;RIGHT</title>
<path fill="none" stroke="#ff0000" stroke-width=".3" d="M184.6243,-101.041C187.4306,-99.8525 190.4381,-98.6109 193.2498,-97.5135 237.6431,-80.1859 252.5451,-84.5729 294.2498,-61.5135 296.5608,-60.2356 298.8771,-58.8234 301.1642,-57.3271"/>
<polygon fill="#ff0000" stroke="#ff0000" stroke-width=".3" points="303.6218,-59.8761 309.7686,-51.2466 299.582,-54.1595 303.6218,-59.8761"/>
</g>
<!-- P -->
<g id="node16" class="node">
<title>P</title>
<polygon fill="#d3d3d3" stroke="#000000" points="223.7551,-114.5135 202.7444,-114.5135 202.7444,-97.5135 223.7551,-97.5135 223.7551,-114.5135"/>
<text text-anchor="middle" x="213.2498" y="-103.3135" font-family="Times,serif" font-size="9.00" fill="#000000">P</text>
</g>
<!-- P&#45;&gt;LEFT -->
<g id="edge30" class="edge">
<title>P&#45;&gt;LEFT</title>
<path fill="none" stroke="#00ff00" stroke-width=".2775" d="M218.4118,-97.3806C223.5514,-88.7854 231.7533,-75.0686 239.3828,-62.3093"/>
<polygon fill="#00ff00" stroke="#00ff00" stroke-width=".2775" points="242.4005,-64.0824 244.5286,-53.7035 236.3926,-60.49 242.4005,-64.0824"/>
</g>
<!-- P&#45;&gt;RIGHT -->
<g id="edge31" class="edge">
<title>P&#45;&gt;RIGHT</title>
<path fill="none" stroke="#00ff00" stroke-width=".3" d="M223.7989,-100.9228C239.5723,-93.1562 270.0388,-77.5518 294.2498,-61.5135 296.4513,-60.0551 298.6843,-58.5054 300.9096,-56.9073"/>
<polygon fill="#00ff00" stroke="#00ff00" stroke-width=".3" points="303.4505,-59.3784 309.3723,-50.593 299.2643,-53.768 303.4505,-59.3784"/>
</g>
</g>
</svg>
